M48
; DRILL file {KiCad (5.1.9)-1} date 04/19/21 19:21:41
; FORMAT={-:-/ absolute / inch / decimal}
; #@! TF.CreationDate,2021-04-19T19:21:41-07:00
; #@! TF.GenerationSoftware,Kicad,Pcbnew,(5.1.9)-1
; #@! TF.FileFunction,Plated,1,2,PTH
FMAT,2
INCH
T1C0.0157
T2C0.0197
T3C0.0300
T4C0.0394
T5C0.0433
T6C0.0591
%
G90
G05
T1
X3.1172Y-1.8861
X3.1191Y-1.7132
X3.2158Y-1.4706
X3.256Y-1.5123
X3.3143Y-1.6641
X3.3542Y-1.5123
X3.4275Y-1.7132
X3.4283Y-1.9447
X3.5744Y-1.7968
X3.5874Y-1.636
X3.5878Y-1.5793
X3.739Y-1.8623
X3.8131Y-1.9659
X3.9814Y-1.9643
X4.1304Y-1.9371
X4.168Y-1.9041
X4.192Y-1.9707
X4.216Y-2.0328
X4.2204Y-1.4393
X4.25Y-1.9579
X4.2651Y-1.439
X4.3175Y-1.7728
X4.4355Y-1.7169
X5.0Y-1.9559
X5.0867Y-1.3582
X5.0872Y-1.424
X5.1342Y-1.5668
X5.75Y-1.9551
X6.5012Y-1.9583
X7.25Y-1.9591
X8.0012Y-1.9594
X8.7504Y-1.9579
X9.5016Y-1.9591
X10.248Y-1.9575
X10.9988Y-1.9642
X11.7531Y-1.9646
X12.1701Y-1.4945
X12.1828Y-1.4004
X12.2559Y-1.7165
X12.8748Y-1.9646
X13.998Y-1.9618
T3
X12.3366Y-1.3952
X12.3366Y-1.4952
X12.3366Y-1.5952
X12.3366Y-1.6952
T4
X13.8646Y-1.4468
X13.8646Y-1.5452
X13.8646Y-1.6436
X14.4354Y-1.4468
X14.4354Y-1.6436
T5
X5.2519Y-1.3894
X5.2519Y-1.5666
X5.5078Y-1.3894
X5.5078Y-1.5666
T6
X2.75Y-2.1
X2.8438Y-5.1
X2.9375Y-2.85
X3.0Y-2.0
X3.0312Y-3.6
X3.0938Y-5.0
X3.1875Y-2.75
X3.2188Y-4.35
X3.2812Y-3.5
X3.4688Y-4.25
X3.5Y-2.1
X3.75Y-2.0
X3.7812Y-5.1
X3.875Y-2.85
X4.0312Y-5.0
X4.0625Y-3.6
X4.125Y-2.75
X4.25Y-2.1
X4.3125Y-3.5
X4.4375Y-4.35
X4.5Y-2.0
X4.625Y-2.85
X4.6875Y-4.25
X4.7188Y-5.1
X4.8125Y-3.6
X4.875Y-2.75
X4.9688Y-5.0
X5.0Y-2.1
X5.0625Y-3.5
X5.1875Y-4.35
X5.25Y-2.0
X5.375Y-2.85
X5.4375Y-4.25
X5.5625Y-3.6
X5.625Y-2.75
X5.75Y-2.1
X5.8125Y-3.5
X5.9375Y-4.35
X6.0Y-2.0
X6.125Y-2.85
X6.1875Y-4.25
X6.3125Y-3.6
X6.375Y-2.75
X6.5Y-2.1
X6.5625Y-3.5
X6.6875Y-4.35
X6.75Y-2.0
X6.875Y-2.85
X6.9375Y-4.25
X7.0625Y-3.6
X7.125Y-2.75
X7.25Y-2.1
X7.3125Y-3.5
X7.4375Y-4.35
X7.5Y-2.0
X7.5312Y-5.1
X7.625Y-2.85
X7.6875Y-4.25
X7.7812Y-5.0
X7.8125Y-3.6
X7.875Y-2.75
X8.0Y-2.1
X8.0625Y-3.5
X8.1875Y-4.35
X8.25Y-2.0
X8.375Y-2.85
X8.4375Y-4.25
X8.5625Y-3.6
X8.625Y-2.75
X8.75Y-2.1
X8.8125Y-3.5
X8.9375Y-4.35
X9.0Y-2.0
X9.125Y-2.85
X9.1875Y-4.25
X9.3125Y-3.6
X9.375Y-2.75
X9.5Y-2.1
X9.5625Y-3.5
X9.6875Y-4.35
X9.75Y-2.0
X9.875Y-2.85
X9.9375Y-4.25
X10.0625Y-3.6
X10.125Y-2.75
X10.25Y-2.1
X10.3125Y-3.5
X10.3438Y-5.1
X10.4375Y-4.35
X10.5Y-2.0
X10.5938Y-5.0
X10.625Y-2.85
X10.6875Y-4.25
X10.8125Y-3.6
X10.875Y-2.75
X11.0Y-2.1
X11.0625Y-3.5
X11.1875Y-4.35
X11.25Y-2.0
X11.2812Y-5.1
X11.375Y-2.85
X11.4375Y-4.25
X11.5312Y-5.0
X11.5625Y-3.6
X11.625Y-2.75
X11.75Y-2.1
X11.8125Y-3.5
X12.0Y-2.0
X12.125Y-2.85
X12.2188Y-4.35
X12.375Y-2.75
X12.4688Y-4.25
X12.5Y-5.1
X12.75Y-5.0
X12.7812Y-3.6
X12.875Y-2.1
X13.0312Y-3.5
X13.0625Y-2.85
X13.125Y-2.0
X13.25Y-4.35
X13.25Y-5.1
X13.3125Y-2.75
X13.5Y-4.25
X13.5Y-5.0
X14.0Y-2.1
X14.0Y-2.85
X14.0Y-3.6
X14.0Y-4.35
X14.0Y-5.1
X14.25Y-2.0
X14.25Y-2.75
X14.25Y-3.5
X14.25Y-4.25
X14.25Y-5.0
T2
G00X3.098Y-1.3026
M15
G01X3.098Y-1.3262
M16
G05
G00X3.1122Y-1.5368
M15
G01X3.1122Y-1.5605
M16
G05
G00X3.4374Y-1.5368
M15
G01X3.4374Y-1.5605
M16
G05
G00X3.4516Y-1.3026
M15
G01X3.4516Y-1.3262
M16
G05
T6
G00X14.1343Y-1.3247
M15
G01X14.1854Y-1.3247
M16
G05
G00X14.1343Y-1.7657
M15
G01X14.1854Y-1.7657
M16
G05
T0
M30
