%TF.GenerationSoftware,KiCad,Pcbnew,(5.1.9)-1*%
%TF.CreationDate,2021-04-19T19:21:17-07:00*%
%TF.ProjectId,keyboard,6b657962-6f61-4726-942e-6b696361645f,rev?*%
%TF.SameCoordinates,Original*%
%TF.FileFunction,Paste,Bot*%
%TF.FilePolarity,Positive*%
%FSLAX46Y46*%
G04 Gerber Fmt 4.6, Leading zero omitted, Abs format (unit mm)*
G04 Created by KiCad (PCBNEW (5.1.9)-1) date 2021-04-19 19:21:17*
%MOMM*%
%LPD*%
G01*
G04 APERTURE LIST*
%ADD10C,0.010000*%
%ADD11R,0.300000X0.700000*%
%ADD12C,0.100000*%
G04 APERTURE END LIST*
D10*
%TO.C,U1*%
G36*
X102870000Y-41739177D02*
G01*
X104029655Y-40579522D01*
X102870000Y-39419867D01*
X101710345Y-40579522D01*
X102870000Y-41739177D01*
G37*
X102870000Y-41739177D02*
X104029655Y-40579522D01*
X102870000Y-39419867D01*
X101710345Y-40579522D01*
X102870000Y-41739177D01*
G36*
X101031522Y-43577655D02*
G01*
X102191177Y-42418000D01*
X101031522Y-41258345D01*
X99871867Y-42418000D01*
X101031522Y-43577655D01*
G37*
X101031522Y-43577655D02*
X102191177Y-42418000D01*
X101031522Y-41258345D01*
X99871867Y-42418000D01*
X101031522Y-43577655D01*
G36*
X104708478Y-43577655D02*
G01*
X105868133Y-42418000D01*
X104708478Y-41258345D01*
X103548823Y-42418000D01*
X104708478Y-43577655D01*
G37*
X104708478Y-43577655D02*
X105868133Y-42418000D01*
X104708478Y-41258345D01*
X103548823Y-42418000D01*
X104708478Y-43577655D01*
G36*
X102870000Y-45416133D02*
G01*
X104029655Y-44256478D01*
X102870000Y-43096823D01*
X101710345Y-44256478D01*
X102870000Y-45416133D01*
G37*
X102870000Y-45416133D02*
X104029655Y-44256478D01*
X102870000Y-43096823D01*
X101710345Y-44256478D01*
X102870000Y-45416133D01*
%TD*%
%TO.C,D68*%
G36*
G01*
X364166900Y-37022750D02*
X364166900Y-36510250D01*
G75*
G02*
X364385650Y-36291500I218750J0D01*
G01*
X364823150Y-36291500D01*
G75*
G02*
X365041900Y-36510250I0J-218750D01*
G01*
X365041900Y-37022750D01*
G75*
G02*
X364823150Y-37241500I-218750J0D01*
G01*
X364385650Y-37241500D01*
G75*
G02*
X364166900Y-37022750I0J218750D01*
G01*
G37*
G36*
G01*
X362591900Y-37022750D02*
X362591900Y-36510250D01*
G75*
G02*
X362810650Y-36291500I218750J0D01*
G01*
X363248150Y-36291500D01*
G75*
G02*
X363466900Y-36510250I0J-218750D01*
G01*
X363466900Y-37022750D01*
G75*
G02*
X363248150Y-37241500I-218750J0D01*
G01*
X362810650Y-37241500D01*
G75*
G02*
X362591900Y-37022750I0J218750D01*
G01*
G37*
%TD*%
%TO.C,C8*%
G36*
G01*
X97451760Y-47554960D02*
X97451760Y-47054960D01*
G75*
G02*
X97676760Y-46829960I225000J0D01*
G01*
X98126760Y-46829960D01*
G75*
G02*
X98351760Y-47054960I0J-225000D01*
G01*
X98351760Y-47554960D01*
G75*
G02*
X98126760Y-47779960I-225000J0D01*
G01*
X97676760Y-47779960D01*
G75*
G02*
X97451760Y-47554960I0J225000D01*
G01*
G37*
G36*
G01*
X95901760Y-47554960D02*
X95901760Y-47054960D01*
G75*
G02*
X96126760Y-46829960I225000J0D01*
G01*
X96576760Y-46829960D01*
G75*
G02*
X96801760Y-47054960I0J-225000D01*
G01*
X96801760Y-47554960D01*
G75*
G02*
X96576760Y-47779960I-225000J0D01*
G01*
X96126760Y-47779960D01*
G75*
G02*
X95901760Y-47554960I0J225000D01*
G01*
G37*
%TD*%
D11*
%TO.C,J1*%
X80179920Y-39545480D03*
X80679920Y-39545480D03*
X81179920Y-39545480D03*
X81679920Y-39545480D03*
X82179920Y-39545480D03*
X82679920Y-39545480D03*
X83179920Y-39545480D03*
X83679920Y-39545480D03*
X84179920Y-39545480D03*
X84679920Y-39545480D03*
X85179920Y-39545480D03*
X85679920Y-39545480D03*
X85429920Y-41245480D03*
X83929920Y-41245480D03*
X84429920Y-41245480D03*
X84929920Y-41245480D03*
X85929920Y-41245480D03*
X83429920Y-41245480D03*
X82929920Y-41245480D03*
X82429920Y-41245480D03*
X81929920Y-41245480D03*
X81429920Y-41245480D03*
X80929920Y-41245480D03*
X80429920Y-41245480D03*
%TD*%
D12*
%TO.C,Y1*%
G36*
X98604569Y-35987984D02*
G01*
X99453097Y-36836512D01*
X98463147Y-37826462D01*
X97614619Y-36977934D01*
X98604569Y-35987984D01*
G37*
G36*
X97048934Y-37543619D02*
G01*
X97897462Y-38392147D01*
X96907512Y-39382097D01*
X96058984Y-38533569D01*
X97048934Y-37543619D01*
G37*
G36*
X95846853Y-36341538D02*
G01*
X96695381Y-37190066D01*
X95705431Y-38180016D01*
X94856903Y-37331488D01*
X95846853Y-36341538D01*
G37*
G36*
X97402488Y-34785903D02*
G01*
X98251016Y-35634431D01*
X97261066Y-36624381D01*
X96412538Y-35775853D01*
X97402488Y-34785903D01*
G37*
%TD*%
%TO.C,C1*%
G36*
G01*
X100356983Y-35487429D02*
X100003429Y-35840983D01*
G75*
G02*
X99685231Y-35840983I-159099J159099D01*
G01*
X99367033Y-35522785D01*
G75*
G02*
X99367033Y-35204587I159099J159099D01*
G01*
X99720587Y-34851033D01*
G75*
G02*
X100038785Y-34851033I159099J-159099D01*
G01*
X100356983Y-35169231D01*
G75*
G02*
X100356983Y-35487429I-159099J-159099D01*
G01*
G37*
G36*
G01*
X99260967Y-34391413D02*
X98907413Y-34744967D01*
G75*
G02*
X98589215Y-34744967I-159099J159099D01*
G01*
X98271017Y-34426769D01*
G75*
G02*
X98271017Y-34108571I159099J159099D01*
G01*
X98624571Y-33755017D01*
G75*
G02*
X98942769Y-33755017I159099J-159099D01*
G01*
X99260967Y-34073215D01*
G75*
G02*
X99260967Y-34391413I-159099J-159099D01*
G01*
G37*
%TD*%
%TO.C,C2*%
G36*
G01*
X94942967Y-38963413D02*
X94589413Y-39316967D01*
G75*
G02*
X94271215Y-39316967I-159099J159099D01*
G01*
X93953017Y-38998769D01*
G75*
G02*
X93953017Y-38680571I159099J159099D01*
G01*
X94306571Y-38327017D01*
G75*
G02*
X94624769Y-38327017I159099J-159099D01*
G01*
X94942967Y-38645215D01*
G75*
G02*
X94942967Y-38963413I-159099J-159099D01*
G01*
G37*
G36*
G01*
X96038983Y-40059429D02*
X95685429Y-40412983D01*
G75*
G02*
X95367231Y-40412983I-159099J159099D01*
G01*
X95049033Y-40094785D01*
G75*
G02*
X95049033Y-39776587I159099J159099D01*
G01*
X95402587Y-39423033D01*
G75*
G02*
X95720785Y-39423033I159099J-159099D01*
G01*
X96038983Y-39741231D01*
G75*
G02*
X96038983Y-40059429I-159099J-159099D01*
G01*
G37*
%TD*%
%TO.C,C3*%
G36*
G01*
X110578780Y-43859260D02*
X110578780Y-43359260D01*
G75*
G02*
X110803780Y-43134260I225000J0D01*
G01*
X111253780Y-43134260D01*
G75*
G02*
X111478780Y-43359260I0J-225000D01*
G01*
X111478780Y-43859260D01*
G75*
G02*
X111253780Y-44084260I-225000J0D01*
G01*
X110803780Y-44084260D01*
G75*
G02*
X110578780Y-43859260I0J225000D01*
G01*
G37*
G36*
G01*
X109028780Y-43859260D02*
X109028780Y-43359260D01*
G75*
G02*
X109253780Y-43134260I225000J0D01*
G01*
X109703780Y-43134260D01*
G75*
G02*
X109928780Y-43359260I0J-225000D01*
G01*
X109928780Y-43859260D01*
G75*
G02*
X109703780Y-44084260I-225000J0D01*
G01*
X109253780Y-44084260D01*
G75*
G02*
X109028780Y-43859260I0J225000D01*
G01*
G37*
%TD*%
%TO.C,C4*%
G36*
G01*
X96819840Y-45472540D02*
X96819840Y-45972540D01*
G75*
G02*
X96594840Y-46197540I-225000J0D01*
G01*
X96144840Y-46197540D01*
G75*
G02*
X95919840Y-45972540I0J225000D01*
G01*
X95919840Y-45472540D01*
G75*
G02*
X96144840Y-45247540I225000J0D01*
G01*
X96594840Y-45247540D01*
G75*
G02*
X96819840Y-45472540I0J-225000D01*
G01*
G37*
G36*
G01*
X98369840Y-45472540D02*
X98369840Y-45972540D01*
G75*
G02*
X98144840Y-46197540I-225000J0D01*
G01*
X97694840Y-46197540D01*
G75*
G02*
X97469840Y-45972540I0J225000D01*
G01*
X97469840Y-45472540D01*
G75*
G02*
X97694840Y-45247540I225000J0D01*
G01*
X98144840Y-45247540D01*
G75*
G02*
X98369840Y-45472540I0J-225000D01*
G01*
G37*
%TD*%
%TO.C,C5*%
G36*
G01*
X101288669Y-47328777D02*
X101642223Y-47682331D01*
G75*
G02*
X101642223Y-48000529I-159099J-159099D01*
G01*
X101324025Y-48318727D01*
G75*
G02*
X101005827Y-48318727I-159099J159099D01*
G01*
X100652273Y-47965173D01*
G75*
G02*
X100652273Y-47646975I159099J159099D01*
G01*
X100970471Y-47328777D01*
G75*
G02*
X101288669Y-47328777I159099J-159099D01*
G01*
G37*
G36*
G01*
X100192653Y-48424793D02*
X100546207Y-48778347D01*
G75*
G02*
X100546207Y-49096545I-159099J-159099D01*
G01*
X100228009Y-49414743D01*
G75*
G02*
X99909811Y-49414743I-159099J159099D01*
G01*
X99556257Y-49061189D01*
G75*
G02*
X99556257Y-48742991I159099J159099D01*
G01*
X99874455Y-48424793D01*
G75*
G02*
X100192653Y-48424793I159099J-159099D01*
G01*
G37*
%TD*%
%TO.C,C6*%
G36*
G01*
X104700521Y-47312905D02*
X105054075Y-47666459D01*
G75*
G02*
X105054075Y-47984657I-159099J-159099D01*
G01*
X104735877Y-48302855D01*
G75*
G02*
X104417679Y-48302855I-159099J159099D01*
G01*
X104064125Y-47949301D01*
G75*
G02*
X104064125Y-47631103I159099J159099D01*
G01*
X104382323Y-47312905D01*
G75*
G02*
X104700521Y-47312905I159099J-159099D01*
G01*
G37*
G36*
G01*
X103604505Y-48408921D02*
X103958059Y-48762475D01*
G75*
G02*
X103958059Y-49080673I-159099J-159099D01*
G01*
X103639861Y-49398871D01*
G75*
G02*
X103321663Y-49398871I-159099J159099D01*
G01*
X102968109Y-49045317D01*
G75*
G02*
X102968109Y-48727119I159099J159099D01*
G01*
X103286307Y-48408921D01*
G75*
G02*
X103604505Y-48408921I159099J-159099D01*
G01*
G37*
%TD*%
%TO.C,C7*%
G36*
G01*
X104831187Y-35895093D02*
X104477633Y-36248647D01*
G75*
G02*
X104159435Y-36248647I-159099J159099D01*
G01*
X103841237Y-35930449D01*
G75*
G02*
X103841237Y-35612251I159099J159099D01*
G01*
X104194791Y-35258697D01*
G75*
G02*
X104512989Y-35258697I159099J-159099D01*
G01*
X104831187Y-35576895D01*
G75*
G02*
X104831187Y-35895093I-159099J-159099D01*
G01*
G37*
G36*
G01*
X105927203Y-36991109D02*
X105573649Y-37344663D01*
G75*
G02*
X105255451Y-37344663I-159099J159099D01*
G01*
X104937253Y-37026465D01*
G75*
G02*
X104937253Y-36708267I159099J159099D01*
G01*
X105290807Y-36354713D01*
G75*
G02*
X105609005Y-36354713I159099J-159099D01*
G01*
X105927203Y-36672911D01*
G75*
G02*
X105927203Y-36991109I-159099J-159099D01*
G01*
G37*
%TD*%
%TO.C,D1*%
G36*
G01*
X80825000Y-50543750D02*
X80825000Y-51056250D01*
G75*
G02*
X80606250Y-51275000I-218750J0D01*
G01*
X80168750Y-51275000D01*
G75*
G02*
X79950000Y-51056250I0J218750D01*
G01*
X79950000Y-50543750D01*
G75*
G02*
X80168750Y-50325000I218750J0D01*
G01*
X80606250Y-50325000D01*
G75*
G02*
X80825000Y-50543750I0J-218750D01*
G01*
G37*
G36*
G01*
X79250000Y-50543750D02*
X79250000Y-51056250D01*
G75*
G02*
X79031250Y-51275000I-218750J0D01*
G01*
X78593750Y-51275000D01*
G75*
G02*
X78375000Y-51056250I0J218750D01*
G01*
X78375000Y-50543750D01*
G75*
G02*
X78593750Y-50325000I218750J0D01*
G01*
X79031250Y-50325000D01*
G75*
G02*
X79250000Y-50543750I0J-218750D01*
G01*
G37*
%TD*%
%TO.C,D2*%
G36*
G01*
X85680000Y-69593750D02*
X85680000Y-70106250D01*
G75*
G02*
X85461250Y-70325000I-218750J0D01*
G01*
X85023750Y-70325000D01*
G75*
G02*
X84805000Y-70106250I0J218750D01*
G01*
X84805000Y-69593750D01*
G75*
G02*
X85023750Y-69375000I218750J0D01*
G01*
X85461250Y-69375000D01*
G75*
G02*
X85680000Y-69593750I0J-218750D01*
G01*
G37*
G36*
G01*
X84105000Y-69593750D02*
X84105000Y-70106250D01*
G75*
G02*
X83886250Y-70325000I-218750J0D01*
G01*
X83448750Y-70325000D01*
G75*
G02*
X83230000Y-70106250I0J218750D01*
G01*
X83230000Y-69593750D01*
G75*
G02*
X83448750Y-69375000I218750J0D01*
G01*
X83886250Y-69375000D01*
G75*
G02*
X84105000Y-69593750I0J-218750D01*
G01*
G37*
%TD*%
%TO.C,D3*%
G36*
G01*
X86645000Y-88643750D02*
X86645000Y-89156250D01*
G75*
G02*
X86426250Y-89375000I-218750J0D01*
G01*
X85988750Y-89375000D01*
G75*
G02*
X85770000Y-89156250I0J218750D01*
G01*
X85770000Y-88643750D01*
G75*
G02*
X85988750Y-88425000I218750J0D01*
G01*
X86426250Y-88425000D01*
G75*
G02*
X86645000Y-88643750I0J-218750D01*
G01*
G37*
G36*
G01*
X88220000Y-88643750D02*
X88220000Y-89156250D01*
G75*
G02*
X88001250Y-89375000I-218750J0D01*
G01*
X87563750Y-89375000D01*
G75*
G02*
X87345000Y-89156250I0J218750D01*
G01*
X87345000Y-88643750D01*
G75*
G02*
X87563750Y-88425000I218750J0D01*
G01*
X88001250Y-88425000D01*
G75*
G02*
X88220000Y-88643750I0J-218750D01*
G01*
G37*
%TD*%
%TO.C,D4*%
G36*
G01*
X92665000Y-107693750D02*
X92665000Y-108206250D01*
G75*
G02*
X92446250Y-108425000I-218750J0D01*
G01*
X92008750Y-108425000D01*
G75*
G02*
X91790000Y-108206250I0J218750D01*
G01*
X91790000Y-107693750D01*
G75*
G02*
X92008750Y-107475000I218750J0D01*
G01*
X92446250Y-107475000D01*
G75*
G02*
X92665000Y-107693750I0J-218750D01*
G01*
G37*
G36*
G01*
X91090000Y-107693750D02*
X91090000Y-108206250D01*
G75*
G02*
X90871250Y-108425000I-218750J0D01*
G01*
X90433750Y-108425000D01*
G75*
G02*
X90215000Y-108206250I0J218750D01*
G01*
X90215000Y-107693750D01*
G75*
G02*
X90433750Y-107475000I218750J0D01*
G01*
X90871250Y-107475000D01*
G75*
G02*
X91090000Y-107693750I0J-218750D01*
G01*
G37*
%TD*%
%TO.C,D5*%
G36*
G01*
X81650000Y-126743750D02*
X81650000Y-127256250D01*
G75*
G02*
X81431250Y-127475000I-218750J0D01*
G01*
X80993750Y-127475000D01*
G75*
G02*
X80775000Y-127256250I0J218750D01*
G01*
X80775000Y-126743750D01*
G75*
G02*
X80993750Y-126525000I218750J0D01*
G01*
X81431250Y-126525000D01*
G75*
G02*
X81650000Y-126743750I0J-218750D01*
G01*
G37*
G36*
G01*
X83225000Y-126743750D02*
X83225000Y-127256250D01*
G75*
G02*
X83006250Y-127475000I-218750J0D01*
G01*
X82568750Y-127475000D01*
G75*
G02*
X82350000Y-127256250I0J218750D01*
G01*
X82350000Y-126743750D01*
G75*
G02*
X82568750Y-126525000I218750J0D01*
G01*
X83006250Y-126525000D01*
G75*
G02*
X83225000Y-126743750I0J-218750D01*
G01*
G37*
%TD*%
%TO.C,D6*%
G36*
G01*
X98450000Y-50543750D02*
X98450000Y-51056250D01*
G75*
G02*
X98231250Y-51275000I-218750J0D01*
G01*
X97793750Y-51275000D01*
G75*
G02*
X97575000Y-51056250I0J218750D01*
G01*
X97575000Y-50543750D01*
G75*
G02*
X97793750Y-50325000I218750J0D01*
G01*
X98231250Y-50325000D01*
G75*
G02*
X98450000Y-50543750I0J-218750D01*
G01*
G37*
G36*
G01*
X100025000Y-50543750D02*
X100025000Y-51056250D01*
G75*
G02*
X99806250Y-51275000I-218750J0D01*
G01*
X99368750Y-51275000D01*
G75*
G02*
X99150000Y-51056250I0J218750D01*
G01*
X99150000Y-50543750D01*
G75*
G02*
X99368750Y-50325000I218750J0D01*
G01*
X99806250Y-50325000D01*
G75*
G02*
X100025000Y-50543750I0J-218750D01*
G01*
G37*
%TD*%
%TO.C,D7*%
G36*
G01*
X107850000Y-69543750D02*
X107850000Y-70056250D01*
G75*
G02*
X107631250Y-70275000I-218750J0D01*
G01*
X107193750Y-70275000D01*
G75*
G02*
X106975000Y-70056250I0J218750D01*
G01*
X106975000Y-69543750D01*
G75*
G02*
X107193750Y-69325000I218750J0D01*
G01*
X107631250Y-69325000D01*
G75*
G02*
X107850000Y-69543750I0J-218750D01*
G01*
G37*
G36*
G01*
X109425000Y-69543750D02*
X109425000Y-70056250D01*
G75*
G02*
X109206250Y-70275000I-218750J0D01*
G01*
X108768750Y-70275000D01*
G75*
G02*
X108550000Y-70056250I0J218750D01*
G01*
X108550000Y-69543750D01*
G75*
G02*
X108768750Y-69325000I218750J0D01*
G01*
X109206250Y-69325000D01*
G75*
G02*
X109425000Y-69543750I0J-218750D01*
G01*
G37*
%TD*%
%TO.C,D8*%
G36*
G01*
X114255000Y-88643750D02*
X114255000Y-89156250D01*
G75*
G02*
X114036250Y-89375000I-218750J0D01*
G01*
X113598750Y-89375000D01*
G75*
G02*
X113380000Y-89156250I0J218750D01*
G01*
X113380000Y-88643750D01*
G75*
G02*
X113598750Y-88425000I218750J0D01*
G01*
X114036250Y-88425000D01*
G75*
G02*
X114255000Y-88643750I0J-218750D01*
G01*
G37*
G36*
G01*
X112680000Y-88643750D02*
X112680000Y-89156250D01*
G75*
G02*
X112461250Y-89375000I-218750J0D01*
G01*
X112023750Y-89375000D01*
G75*
G02*
X111805000Y-89156250I0J218750D01*
G01*
X111805000Y-88643750D01*
G75*
G02*
X112023750Y-88425000I218750J0D01*
G01*
X112461250Y-88425000D01*
G75*
G02*
X112680000Y-88643750I0J-218750D01*
G01*
G37*
%TD*%
%TO.C,D9*%
G36*
G01*
X105450000Y-126743750D02*
X105450000Y-127256250D01*
G75*
G02*
X105231250Y-127475000I-218750J0D01*
G01*
X104793750Y-127475000D01*
G75*
G02*
X104575000Y-127256250I0J218750D01*
G01*
X104575000Y-126743750D01*
G75*
G02*
X104793750Y-126525000I218750J0D01*
G01*
X105231250Y-126525000D01*
G75*
G02*
X105450000Y-126743750I0J-218750D01*
G01*
G37*
G36*
G01*
X107025000Y-126743750D02*
X107025000Y-127256250D01*
G75*
G02*
X106806250Y-127475000I-218750J0D01*
G01*
X106368750Y-127475000D01*
G75*
G02*
X106150000Y-127256250I0J218750D01*
G01*
X106150000Y-126743750D01*
G75*
G02*
X106368750Y-126525000I218750J0D01*
G01*
X106806250Y-126525000D01*
G75*
G02*
X107025000Y-126743750I0J-218750D01*
G01*
G37*
%TD*%
%TO.C,D10*%
G36*
G01*
X117450000Y-50543750D02*
X117450000Y-51056250D01*
G75*
G02*
X117231250Y-51275000I-218750J0D01*
G01*
X116793750Y-51275000D01*
G75*
G02*
X116575000Y-51056250I0J218750D01*
G01*
X116575000Y-50543750D01*
G75*
G02*
X116793750Y-50325000I218750J0D01*
G01*
X117231250Y-50325000D01*
G75*
G02*
X117450000Y-50543750I0J-218750D01*
G01*
G37*
G36*
G01*
X119025000Y-50543750D02*
X119025000Y-51056250D01*
G75*
G02*
X118806250Y-51275000I-218750J0D01*
G01*
X118368750Y-51275000D01*
G75*
G02*
X118150000Y-51056250I0J218750D01*
G01*
X118150000Y-50543750D01*
G75*
G02*
X118368750Y-50325000I218750J0D01*
G01*
X118806250Y-50325000D01*
G75*
G02*
X119025000Y-50543750I0J-218750D01*
G01*
G37*
%TD*%
%TO.C,D11*%
G36*
G01*
X126850000Y-69543750D02*
X126850000Y-70056250D01*
G75*
G02*
X126631250Y-70275000I-218750J0D01*
G01*
X126193750Y-70275000D01*
G75*
G02*
X125975000Y-70056250I0J218750D01*
G01*
X125975000Y-69543750D01*
G75*
G02*
X126193750Y-69325000I218750J0D01*
G01*
X126631250Y-69325000D01*
G75*
G02*
X126850000Y-69543750I0J-218750D01*
G01*
G37*
G36*
G01*
X128425000Y-69543750D02*
X128425000Y-70056250D01*
G75*
G02*
X128206250Y-70275000I-218750J0D01*
G01*
X127768750Y-70275000D01*
G75*
G02*
X127550000Y-70056250I0J218750D01*
G01*
X127550000Y-69543750D01*
G75*
G02*
X127768750Y-69325000I218750J0D01*
G01*
X128206250Y-69325000D01*
G75*
G02*
X128425000Y-69543750I0J-218750D01*
G01*
G37*
%TD*%
%TO.C,D12*%
G36*
G01*
X133225000Y-88543750D02*
X133225000Y-89056250D01*
G75*
G02*
X133006250Y-89275000I-218750J0D01*
G01*
X132568750Y-89275000D01*
G75*
G02*
X132350000Y-89056250I0J218750D01*
G01*
X132350000Y-88543750D01*
G75*
G02*
X132568750Y-88325000I218750J0D01*
G01*
X133006250Y-88325000D01*
G75*
G02*
X133225000Y-88543750I0J-218750D01*
G01*
G37*
G36*
G01*
X131650000Y-88543750D02*
X131650000Y-89056250D01*
G75*
G02*
X131431250Y-89275000I-218750J0D01*
G01*
X130993750Y-89275000D01*
G75*
G02*
X130775000Y-89056250I0J218750D01*
G01*
X130775000Y-88543750D01*
G75*
G02*
X130993750Y-88325000I218750J0D01*
G01*
X131431250Y-88325000D01*
G75*
G02*
X131650000Y-88543750I0J-218750D01*
G01*
G37*
%TD*%
%TO.C,D13*%
G36*
G01*
X123825000Y-107743750D02*
X123825000Y-108256250D01*
G75*
G02*
X123606250Y-108475000I-218750J0D01*
G01*
X123168750Y-108475000D01*
G75*
G02*
X122950000Y-108256250I0J218750D01*
G01*
X122950000Y-107743750D01*
G75*
G02*
X123168750Y-107525000I218750J0D01*
G01*
X123606250Y-107525000D01*
G75*
G02*
X123825000Y-107743750I0J-218750D01*
G01*
G37*
G36*
G01*
X122250000Y-107743750D02*
X122250000Y-108256250D01*
G75*
G02*
X122031250Y-108475000I-218750J0D01*
G01*
X121593750Y-108475000D01*
G75*
G02*
X121375000Y-108256250I0J218750D01*
G01*
X121375000Y-107743750D01*
G75*
G02*
X121593750Y-107525000I218750J0D01*
G01*
X122031250Y-107525000D01*
G75*
G02*
X122250000Y-107743750I0J-218750D01*
G01*
G37*
%TD*%
%TO.C,D14*%
G36*
G01*
X129250000Y-126743750D02*
X129250000Y-127256250D01*
G75*
G02*
X129031250Y-127475000I-218750J0D01*
G01*
X128593750Y-127475000D01*
G75*
G02*
X128375000Y-127256250I0J218750D01*
G01*
X128375000Y-126743750D01*
G75*
G02*
X128593750Y-126525000I218750J0D01*
G01*
X129031250Y-126525000D01*
G75*
G02*
X129250000Y-126743750I0J-218750D01*
G01*
G37*
G36*
G01*
X130825000Y-126743750D02*
X130825000Y-127256250D01*
G75*
G02*
X130606250Y-127475000I-218750J0D01*
G01*
X130168750Y-127475000D01*
G75*
G02*
X129950000Y-127256250I0J218750D01*
G01*
X129950000Y-126743750D01*
G75*
G02*
X130168750Y-126525000I218750J0D01*
G01*
X130606250Y-126525000D01*
G75*
G02*
X130825000Y-126743750I0J-218750D01*
G01*
G37*
%TD*%
%TO.C,D15*%
G36*
G01*
X138025000Y-50543750D02*
X138025000Y-51056250D01*
G75*
G02*
X137806250Y-51275000I-218750J0D01*
G01*
X137368750Y-51275000D01*
G75*
G02*
X137150000Y-51056250I0J218750D01*
G01*
X137150000Y-50543750D01*
G75*
G02*
X137368750Y-50325000I218750J0D01*
G01*
X137806250Y-50325000D01*
G75*
G02*
X138025000Y-50543750I0J-218750D01*
G01*
G37*
G36*
G01*
X136450000Y-50543750D02*
X136450000Y-51056250D01*
G75*
G02*
X136231250Y-51275000I-218750J0D01*
G01*
X135793750Y-51275000D01*
G75*
G02*
X135575000Y-51056250I0J218750D01*
G01*
X135575000Y-50543750D01*
G75*
G02*
X135793750Y-50325000I218750J0D01*
G01*
X136231250Y-50325000D01*
G75*
G02*
X136450000Y-50543750I0J-218750D01*
G01*
G37*
%TD*%
%TO.C,D16*%
G36*
G01*
X147625000Y-69543750D02*
X147625000Y-70056250D01*
G75*
G02*
X147406250Y-70275000I-218750J0D01*
G01*
X146968750Y-70275000D01*
G75*
G02*
X146750000Y-70056250I0J218750D01*
G01*
X146750000Y-69543750D01*
G75*
G02*
X146968750Y-69325000I218750J0D01*
G01*
X147406250Y-69325000D01*
G75*
G02*
X147625000Y-69543750I0J-218750D01*
G01*
G37*
G36*
G01*
X146050000Y-69543750D02*
X146050000Y-70056250D01*
G75*
G02*
X145831250Y-70275000I-218750J0D01*
G01*
X145393750Y-70275000D01*
G75*
G02*
X145175000Y-70056250I0J218750D01*
G01*
X145175000Y-69543750D01*
G75*
G02*
X145393750Y-69325000I218750J0D01*
G01*
X145831250Y-69325000D01*
G75*
G02*
X146050000Y-69543750I0J-218750D01*
G01*
G37*
%TD*%
%TO.C,D17*%
G36*
G01*
X150650000Y-88543750D02*
X150650000Y-89056250D01*
G75*
G02*
X150431250Y-89275000I-218750J0D01*
G01*
X149993750Y-89275000D01*
G75*
G02*
X149775000Y-89056250I0J218750D01*
G01*
X149775000Y-88543750D01*
G75*
G02*
X149993750Y-88325000I218750J0D01*
G01*
X150431250Y-88325000D01*
G75*
G02*
X150650000Y-88543750I0J-218750D01*
G01*
G37*
G36*
G01*
X152225000Y-88543750D02*
X152225000Y-89056250D01*
G75*
G02*
X152006250Y-89275000I-218750J0D01*
G01*
X151568750Y-89275000D01*
G75*
G02*
X151350000Y-89056250I0J218750D01*
G01*
X151350000Y-88543750D01*
G75*
G02*
X151568750Y-88325000I218750J0D01*
G01*
X152006250Y-88325000D01*
G75*
G02*
X152225000Y-88543750I0J-218750D01*
G01*
G37*
%TD*%
%TO.C,D18*%
G36*
G01*
X142825000Y-107543750D02*
X142825000Y-108056250D01*
G75*
G02*
X142606250Y-108275000I-218750J0D01*
G01*
X142168750Y-108275000D01*
G75*
G02*
X141950000Y-108056250I0J218750D01*
G01*
X141950000Y-107543750D01*
G75*
G02*
X142168750Y-107325000I218750J0D01*
G01*
X142606250Y-107325000D01*
G75*
G02*
X142825000Y-107543750I0J-218750D01*
G01*
G37*
G36*
G01*
X141250000Y-107543750D02*
X141250000Y-108056250D01*
G75*
G02*
X141031250Y-108275000I-218750J0D01*
G01*
X140593750Y-108275000D01*
G75*
G02*
X140375000Y-108056250I0J218750D01*
G01*
X140375000Y-107543750D01*
G75*
G02*
X140593750Y-107325000I218750J0D01*
G01*
X141031250Y-107325000D01*
G75*
G02*
X141250000Y-107543750I0J-218750D01*
G01*
G37*
%TD*%
%TO.C,D19*%
G36*
G01*
X156800000Y-50543750D02*
X156800000Y-51056250D01*
G75*
G02*
X156581250Y-51275000I-218750J0D01*
G01*
X156143750Y-51275000D01*
G75*
G02*
X155925000Y-51056250I0J218750D01*
G01*
X155925000Y-50543750D01*
G75*
G02*
X156143750Y-50325000I218750J0D01*
G01*
X156581250Y-50325000D01*
G75*
G02*
X156800000Y-50543750I0J-218750D01*
G01*
G37*
G36*
G01*
X155225000Y-50543750D02*
X155225000Y-51056250D01*
G75*
G02*
X155006250Y-51275000I-218750J0D01*
G01*
X154568750Y-51275000D01*
G75*
G02*
X154350000Y-51056250I0J218750D01*
G01*
X154350000Y-50543750D01*
G75*
G02*
X154568750Y-50325000I218750J0D01*
G01*
X155006250Y-50325000D01*
G75*
G02*
X155225000Y-50543750I0J-218750D01*
G01*
G37*
%TD*%
%TO.C,D20*%
G36*
G01*
X165050000Y-69543750D02*
X165050000Y-70056250D01*
G75*
G02*
X164831250Y-70275000I-218750J0D01*
G01*
X164393750Y-70275000D01*
G75*
G02*
X164175000Y-70056250I0J218750D01*
G01*
X164175000Y-69543750D01*
G75*
G02*
X164393750Y-69325000I218750J0D01*
G01*
X164831250Y-69325000D01*
G75*
G02*
X165050000Y-69543750I0J-218750D01*
G01*
G37*
G36*
G01*
X166625000Y-69543750D02*
X166625000Y-70056250D01*
G75*
G02*
X166406250Y-70275000I-218750J0D01*
G01*
X165968750Y-70275000D01*
G75*
G02*
X165750000Y-70056250I0J218750D01*
G01*
X165750000Y-69543750D01*
G75*
G02*
X165968750Y-69325000I218750J0D01*
G01*
X166406250Y-69325000D01*
G75*
G02*
X166625000Y-69543750I0J-218750D01*
G01*
G37*
%TD*%
%TO.C,D21*%
G36*
G01*
X171425000Y-88543750D02*
X171425000Y-89056250D01*
G75*
G02*
X171206250Y-89275000I-218750J0D01*
G01*
X170768750Y-89275000D01*
G75*
G02*
X170550000Y-89056250I0J218750D01*
G01*
X170550000Y-88543750D01*
G75*
G02*
X170768750Y-88325000I218750J0D01*
G01*
X171206250Y-88325000D01*
G75*
G02*
X171425000Y-88543750I0J-218750D01*
G01*
G37*
G36*
G01*
X169850000Y-88543750D02*
X169850000Y-89056250D01*
G75*
G02*
X169631250Y-89275000I-218750J0D01*
G01*
X169193750Y-89275000D01*
G75*
G02*
X168975000Y-89056250I0J218750D01*
G01*
X168975000Y-88543750D01*
G75*
G02*
X169193750Y-88325000I218750J0D01*
G01*
X169631250Y-88325000D01*
G75*
G02*
X169850000Y-88543750I0J-218750D01*
G01*
G37*
%TD*%
%TO.C,D22*%
G36*
G01*
X160250000Y-107543750D02*
X160250000Y-108056250D01*
G75*
G02*
X160031250Y-108275000I-218750J0D01*
G01*
X159593750Y-108275000D01*
G75*
G02*
X159375000Y-108056250I0J218750D01*
G01*
X159375000Y-107543750D01*
G75*
G02*
X159593750Y-107325000I218750J0D01*
G01*
X160031250Y-107325000D01*
G75*
G02*
X160250000Y-107543750I0J-218750D01*
G01*
G37*
G36*
G01*
X161825000Y-107543750D02*
X161825000Y-108056250D01*
G75*
G02*
X161606250Y-108275000I-218750J0D01*
G01*
X161168750Y-108275000D01*
G75*
G02*
X160950000Y-108056250I0J218750D01*
G01*
X160950000Y-107543750D01*
G75*
G02*
X161168750Y-107325000I218750J0D01*
G01*
X161606250Y-107325000D01*
G75*
G02*
X161825000Y-107543750I0J-218750D01*
G01*
G37*
%TD*%
%TO.C,D23*%
G36*
G01*
X176225000Y-50543750D02*
X176225000Y-51056250D01*
G75*
G02*
X176006250Y-51275000I-218750J0D01*
G01*
X175568750Y-51275000D01*
G75*
G02*
X175350000Y-51056250I0J218750D01*
G01*
X175350000Y-50543750D01*
G75*
G02*
X175568750Y-50325000I218750J0D01*
G01*
X176006250Y-50325000D01*
G75*
G02*
X176225000Y-50543750I0J-218750D01*
G01*
G37*
G36*
G01*
X174650000Y-50543750D02*
X174650000Y-51056250D01*
G75*
G02*
X174431250Y-51275000I-218750J0D01*
G01*
X173993750Y-51275000D01*
G75*
G02*
X173775000Y-51056250I0J218750D01*
G01*
X173775000Y-50543750D01*
G75*
G02*
X173993750Y-50325000I218750J0D01*
G01*
X174431250Y-50325000D01*
G75*
G02*
X174650000Y-50543750I0J-218750D01*
G01*
G37*
%TD*%
%TO.C,D24*%
G36*
G01*
X185625000Y-69543750D02*
X185625000Y-70056250D01*
G75*
G02*
X185406250Y-70275000I-218750J0D01*
G01*
X184968750Y-70275000D01*
G75*
G02*
X184750000Y-70056250I0J218750D01*
G01*
X184750000Y-69543750D01*
G75*
G02*
X184968750Y-69325000I218750J0D01*
G01*
X185406250Y-69325000D01*
G75*
G02*
X185625000Y-69543750I0J-218750D01*
G01*
G37*
G36*
G01*
X184050000Y-69543750D02*
X184050000Y-70056250D01*
G75*
G02*
X183831250Y-70275000I-218750J0D01*
G01*
X183393750Y-70275000D01*
G75*
G02*
X183175000Y-70056250I0J218750D01*
G01*
X183175000Y-69543750D01*
G75*
G02*
X183393750Y-69325000I218750J0D01*
G01*
X183831250Y-69325000D01*
G75*
G02*
X184050000Y-69543750I0J-218750D01*
G01*
G37*
%TD*%
%TO.C,D25*%
G36*
G01*
X190425000Y-88543750D02*
X190425000Y-89056250D01*
G75*
G02*
X190206250Y-89275000I-218750J0D01*
G01*
X189768750Y-89275000D01*
G75*
G02*
X189550000Y-89056250I0J218750D01*
G01*
X189550000Y-88543750D01*
G75*
G02*
X189768750Y-88325000I218750J0D01*
G01*
X190206250Y-88325000D01*
G75*
G02*
X190425000Y-88543750I0J-218750D01*
G01*
G37*
G36*
G01*
X188850000Y-88543750D02*
X188850000Y-89056250D01*
G75*
G02*
X188631250Y-89275000I-218750J0D01*
G01*
X188193750Y-89275000D01*
G75*
G02*
X187975000Y-89056250I0J218750D01*
G01*
X187975000Y-88543750D01*
G75*
G02*
X188193750Y-88325000I218750J0D01*
G01*
X188631250Y-88325000D01*
G75*
G02*
X188850000Y-88543750I0J-218750D01*
G01*
G37*
%TD*%
%TO.C,D26*%
G36*
G01*
X179250000Y-107743750D02*
X179250000Y-108256250D01*
G75*
G02*
X179031250Y-108475000I-218750J0D01*
G01*
X178593750Y-108475000D01*
G75*
G02*
X178375000Y-108256250I0J218750D01*
G01*
X178375000Y-107743750D01*
G75*
G02*
X178593750Y-107525000I218750J0D01*
G01*
X179031250Y-107525000D01*
G75*
G02*
X179250000Y-107743750I0J-218750D01*
G01*
G37*
G36*
G01*
X180825000Y-107743750D02*
X180825000Y-108256250D01*
G75*
G02*
X180606250Y-108475000I-218750J0D01*
G01*
X180168750Y-108475000D01*
G75*
G02*
X179950000Y-108256250I0J218750D01*
G01*
X179950000Y-107743750D01*
G75*
G02*
X180168750Y-107525000I218750J0D01*
G01*
X180606250Y-107525000D01*
G75*
G02*
X180825000Y-107743750I0J-218750D01*
G01*
G37*
%TD*%
%TO.C,D27*%
G36*
G01*
X193650000Y-50543750D02*
X193650000Y-51056250D01*
G75*
G02*
X193431250Y-51275000I-218750J0D01*
G01*
X192993750Y-51275000D01*
G75*
G02*
X192775000Y-51056250I0J218750D01*
G01*
X192775000Y-50543750D01*
G75*
G02*
X192993750Y-50325000I218750J0D01*
G01*
X193431250Y-50325000D01*
G75*
G02*
X193650000Y-50543750I0J-218750D01*
G01*
G37*
G36*
G01*
X195225000Y-50543750D02*
X195225000Y-51056250D01*
G75*
G02*
X195006250Y-51275000I-218750J0D01*
G01*
X194568750Y-51275000D01*
G75*
G02*
X194350000Y-51056250I0J218750D01*
G01*
X194350000Y-50543750D01*
G75*
G02*
X194568750Y-50325000I218750J0D01*
G01*
X195006250Y-50325000D01*
G75*
G02*
X195225000Y-50543750I0J-218750D01*
G01*
G37*
%TD*%
%TO.C,D28*%
G36*
G01*
X203050000Y-69543750D02*
X203050000Y-70056250D01*
G75*
G02*
X202831250Y-70275000I-218750J0D01*
G01*
X202393750Y-70275000D01*
G75*
G02*
X202175000Y-70056250I0J218750D01*
G01*
X202175000Y-69543750D01*
G75*
G02*
X202393750Y-69325000I218750J0D01*
G01*
X202831250Y-69325000D01*
G75*
G02*
X203050000Y-69543750I0J-218750D01*
G01*
G37*
G36*
G01*
X204625000Y-69543750D02*
X204625000Y-70056250D01*
G75*
G02*
X204406250Y-70275000I-218750J0D01*
G01*
X203968750Y-70275000D01*
G75*
G02*
X203750000Y-70056250I0J218750D01*
G01*
X203750000Y-69543750D01*
G75*
G02*
X203968750Y-69325000I218750J0D01*
G01*
X204406250Y-69325000D01*
G75*
G02*
X204625000Y-69543750I0J-218750D01*
G01*
G37*
%TD*%
%TO.C,D29*%
G36*
G01*
X207862500Y-88543750D02*
X207862500Y-89056250D01*
G75*
G02*
X207643750Y-89275000I-218750J0D01*
G01*
X207206250Y-89275000D01*
G75*
G02*
X206987500Y-89056250I0J218750D01*
G01*
X206987500Y-88543750D01*
G75*
G02*
X207206250Y-88325000I218750J0D01*
G01*
X207643750Y-88325000D01*
G75*
G02*
X207862500Y-88543750I0J-218750D01*
G01*
G37*
G36*
G01*
X209437500Y-88543750D02*
X209437500Y-89056250D01*
G75*
G02*
X209218750Y-89275000I-218750J0D01*
G01*
X208781250Y-89275000D01*
G75*
G02*
X208562500Y-89056250I0J218750D01*
G01*
X208562500Y-88543750D01*
G75*
G02*
X208781250Y-88325000I218750J0D01*
G01*
X209218750Y-88325000D01*
G75*
G02*
X209437500Y-88543750I0J-218750D01*
G01*
G37*
%TD*%
%TO.C,D30*%
G36*
G01*
X199825000Y-107543750D02*
X199825000Y-108056250D01*
G75*
G02*
X199606250Y-108275000I-218750J0D01*
G01*
X199168750Y-108275000D01*
G75*
G02*
X198950000Y-108056250I0J218750D01*
G01*
X198950000Y-107543750D01*
G75*
G02*
X199168750Y-107325000I218750J0D01*
G01*
X199606250Y-107325000D01*
G75*
G02*
X199825000Y-107543750I0J-218750D01*
G01*
G37*
G36*
G01*
X198250000Y-107543750D02*
X198250000Y-108056250D01*
G75*
G02*
X198031250Y-108275000I-218750J0D01*
G01*
X197593750Y-108275000D01*
G75*
G02*
X197375000Y-108056250I0J218750D01*
G01*
X197375000Y-107543750D01*
G75*
G02*
X197593750Y-107325000I218750J0D01*
G01*
X198031250Y-107325000D01*
G75*
G02*
X198250000Y-107543750I0J-218750D01*
G01*
G37*
%TD*%
%TO.C,D31*%
G36*
G01*
X200650000Y-126743750D02*
X200650000Y-127256250D01*
G75*
G02*
X200431250Y-127475000I-218750J0D01*
G01*
X199993750Y-127475000D01*
G75*
G02*
X199775000Y-127256250I0J218750D01*
G01*
X199775000Y-126743750D01*
G75*
G02*
X199993750Y-126525000I218750J0D01*
G01*
X200431250Y-126525000D01*
G75*
G02*
X200650000Y-126743750I0J-218750D01*
G01*
G37*
G36*
G01*
X202225000Y-126743750D02*
X202225000Y-127256250D01*
G75*
G02*
X202006250Y-127475000I-218750J0D01*
G01*
X201568750Y-127475000D01*
G75*
G02*
X201350000Y-127256250I0J218750D01*
G01*
X201350000Y-126743750D01*
G75*
G02*
X201568750Y-126525000I218750J0D01*
G01*
X202006250Y-126525000D01*
G75*
G02*
X202225000Y-126743750I0J-218750D01*
G01*
G37*
%TD*%
%TO.C,D32*%
G36*
G01*
X214225000Y-50543750D02*
X214225000Y-51056250D01*
G75*
G02*
X214006250Y-51275000I-218750J0D01*
G01*
X213568750Y-51275000D01*
G75*
G02*
X213350000Y-51056250I0J218750D01*
G01*
X213350000Y-50543750D01*
G75*
G02*
X213568750Y-50325000I218750J0D01*
G01*
X214006250Y-50325000D01*
G75*
G02*
X214225000Y-50543750I0J-218750D01*
G01*
G37*
G36*
G01*
X212650000Y-50543750D02*
X212650000Y-51056250D01*
G75*
G02*
X212431250Y-51275000I-218750J0D01*
G01*
X211993750Y-51275000D01*
G75*
G02*
X211775000Y-51056250I0J218750D01*
G01*
X211775000Y-50543750D01*
G75*
G02*
X211993750Y-50325000I218750J0D01*
G01*
X212431250Y-50325000D01*
G75*
G02*
X212650000Y-50543750I0J-218750D01*
G01*
G37*
%TD*%
%TO.C,D33*%
G36*
G01*
X222250000Y-69543750D02*
X222250000Y-70056250D01*
G75*
G02*
X222031250Y-70275000I-218750J0D01*
G01*
X221593750Y-70275000D01*
G75*
G02*
X221375000Y-70056250I0J218750D01*
G01*
X221375000Y-69543750D01*
G75*
G02*
X221593750Y-69325000I218750J0D01*
G01*
X222031250Y-69325000D01*
G75*
G02*
X222250000Y-69543750I0J-218750D01*
G01*
G37*
G36*
G01*
X223825000Y-69543750D02*
X223825000Y-70056250D01*
G75*
G02*
X223606250Y-70275000I-218750J0D01*
G01*
X223168750Y-70275000D01*
G75*
G02*
X222950000Y-70056250I0J218750D01*
G01*
X222950000Y-69543750D01*
G75*
G02*
X223168750Y-69325000I218750J0D01*
G01*
X223606250Y-69325000D01*
G75*
G02*
X223825000Y-69543750I0J-218750D01*
G01*
G37*
%TD*%
%TO.C,D34*%
G36*
G01*
X228425000Y-88543750D02*
X228425000Y-89056250D01*
G75*
G02*
X228206250Y-89275000I-218750J0D01*
G01*
X227768750Y-89275000D01*
G75*
G02*
X227550000Y-89056250I0J218750D01*
G01*
X227550000Y-88543750D01*
G75*
G02*
X227768750Y-88325000I218750J0D01*
G01*
X228206250Y-88325000D01*
G75*
G02*
X228425000Y-88543750I0J-218750D01*
G01*
G37*
G36*
G01*
X226850000Y-88543750D02*
X226850000Y-89056250D01*
G75*
G02*
X226631250Y-89275000I-218750J0D01*
G01*
X226193750Y-89275000D01*
G75*
G02*
X225975000Y-89056250I0J218750D01*
G01*
X225975000Y-88543750D01*
G75*
G02*
X226193750Y-88325000I218750J0D01*
G01*
X226631250Y-88325000D01*
G75*
G02*
X226850000Y-88543750I0J-218750D01*
G01*
G37*
%TD*%
%TO.C,D35*%
G36*
G01*
X217450000Y-107743750D02*
X217450000Y-108256250D01*
G75*
G02*
X217231250Y-108475000I-218750J0D01*
G01*
X216793750Y-108475000D01*
G75*
G02*
X216575000Y-108256250I0J218750D01*
G01*
X216575000Y-107743750D01*
G75*
G02*
X216793750Y-107525000I218750J0D01*
G01*
X217231250Y-107525000D01*
G75*
G02*
X217450000Y-107743750I0J-218750D01*
G01*
G37*
G36*
G01*
X219025000Y-107743750D02*
X219025000Y-108256250D01*
G75*
G02*
X218806250Y-108475000I-218750J0D01*
G01*
X218368750Y-108475000D01*
G75*
G02*
X218150000Y-108256250I0J218750D01*
G01*
X218150000Y-107743750D01*
G75*
G02*
X218368750Y-107525000I218750J0D01*
G01*
X218806250Y-107525000D01*
G75*
G02*
X219025000Y-107743750I0J-218750D01*
G01*
G37*
%TD*%
%TO.C,D36*%
G36*
G01*
X231650000Y-50543750D02*
X231650000Y-51056250D01*
G75*
G02*
X231431250Y-51275000I-218750J0D01*
G01*
X230993750Y-51275000D01*
G75*
G02*
X230775000Y-51056250I0J218750D01*
G01*
X230775000Y-50543750D01*
G75*
G02*
X230993750Y-50325000I218750J0D01*
G01*
X231431250Y-50325000D01*
G75*
G02*
X231650000Y-50543750I0J-218750D01*
G01*
G37*
G36*
G01*
X233225000Y-50543750D02*
X233225000Y-51056250D01*
G75*
G02*
X233006250Y-51275000I-218750J0D01*
G01*
X232568750Y-51275000D01*
G75*
G02*
X232350000Y-51056250I0J218750D01*
G01*
X232350000Y-50543750D01*
G75*
G02*
X232568750Y-50325000I218750J0D01*
G01*
X233006250Y-50325000D01*
G75*
G02*
X233225000Y-50543750I0J-218750D01*
G01*
G37*
%TD*%
%TO.C,D37*%
G36*
G01*
X242825000Y-69543750D02*
X242825000Y-70056250D01*
G75*
G02*
X242606250Y-70275000I-218750J0D01*
G01*
X242168750Y-70275000D01*
G75*
G02*
X241950000Y-70056250I0J218750D01*
G01*
X241950000Y-69543750D01*
G75*
G02*
X242168750Y-69325000I218750J0D01*
G01*
X242606250Y-69325000D01*
G75*
G02*
X242825000Y-69543750I0J-218750D01*
G01*
G37*
G36*
G01*
X241250000Y-69543750D02*
X241250000Y-70056250D01*
G75*
G02*
X241031250Y-70275000I-218750J0D01*
G01*
X240593750Y-70275000D01*
G75*
G02*
X240375000Y-70056250I0J218750D01*
G01*
X240375000Y-69543750D01*
G75*
G02*
X240593750Y-69325000I218750J0D01*
G01*
X241031250Y-69325000D01*
G75*
G02*
X241250000Y-69543750I0J-218750D01*
G01*
G37*
%TD*%
%TO.C,D38*%
G36*
G01*
X246050000Y-88543750D02*
X246050000Y-89056250D01*
G75*
G02*
X245831250Y-89275000I-218750J0D01*
G01*
X245393750Y-89275000D01*
G75*
G02*
X245175000Y-89056250I0J218750D01*
G01*
X245175000Y-88543750D01*
G75*
G02*
X245393750Y-88325000I218750J0D01*
G01*
X245831250Y-88325000D01*
G75*
G02*
X246050000Y-88543750I0J-218750D01*
G01*
G37*
G36*
G01*
X247625000Y-88543750D02*
X247625000Y-89056250D01*
G75*
G02*
X247406250Y-89275000I-218750J0D01*
G01*
X246968750Y-89275000D01*
G75*
G02*
X246750000Y-89056250I0J218750D01*
G01*
X246750000Y-88543750D01*
G75*
G02*
X246968750Y-88325000I218750J0D01*
G01*
X247406250Y-88325000D01*
G75*
G02*
X247625000Y-88543750I0J-218750D01*
G01*
G37*
%TD*%
%TO.C,D39*%
G36*
G01*
X238025000Y-107543750D02*
X238025000Y-108056250D01*
G75*
G02*
X237806250Y-108275000I-218750J0D01*
G01*
X237368750Y-108275000D01*
G75*
G02*
X237150000Y-108056250I0J218750D01*
G01*
X237150000Y-107543750D01*
G75*
G02*
X237368750Y-107325000I218750J0D01*
G01*
X237806250Y-107325000D01*
G75*
G02*
X238025000Y-107543750I0J-218750D01*
G01*
G37*
G36*
G01*
X236450000Y-107543750D02*
X236450000Y-108056250D01*
G75*
G02*
X236231250Y-108275000I-218750J0D01*
G01*
X235793750Y-108275000D01*
G75*
G02*
X235575000Y-108056250I0J218750D01*
G01*
X235575000Y-107543750D01*
G75*
G02*
X235793750Y-107325000I218750J0D01*
G01*
X236231250Y-107325000D01*
G75*
G02*
X236450000Y-107543750I0J-218750D01*
G01*
G37*
%TD*%
%TO.C,D40*%
G36*
G01*
X252225000Y-50543750D02*
X252225000Y-51056250D01*
G75*
G02*
X252006250Y-51275000I-218750J0D01*
G01*
X251568750Y-51275000D01*
G75*
G02*
X251350000Y-51056250I0J218750D01*
G01*
X251350000Y-50543750D01*
G75*
G02*
X251568750Y-50325000I218750J0D01*
G01*
X252006250Y-50325000D01*
G75*
G02*
X252225000Y-50543750I0J-218750D01*
G01*
G37*
G36*
G01*
X250650000Y-50543750D02*
X250650000Y-51056250D01*
G75*
G02*
X250431250Y-51275000I-218750J0D01*
G01*
X249993750Y-51275000D01*
G75*
G02*
X249775000Y-51056250I0J218750D01*
G01*
X249775000Y-50543750D01*
G75*
G02*
X249993750Y-50325000I218750J0D01*
G01*
X250431250Y-50325000D01*
G75*
G02*
X250650000Y-50543750I0J-218750D01*
G01*
G37*
%TD*%
%TO.C,D41*%
G36*
G01*
X260250000Y-69543750D02*
X260250000Y-70056250D01*
G75*
G02*
X260031250Y-70275000I-218750J0D01*
G01*
X259593750Y-70275000D01*
G75*
G02*
X259375000Y-70056250I0J218750D01*
G01*
X259375000Y-69543750D01*
G75*
G02*
X259593750Y-69325000I218750J0D01*
G01*
X260031250Y-69325000D01*
G75*
G02*
X260250000Y-69543750I0J-218750D01*
G01*
G37*
G36*
G01*
X261825000Y-69543750D02*
X261825000Y-70056250D01*
G75*
G02*
X261606250Y-70275000I-218750J0D01*
G01*
X261168750Y-70275000D01*
G75*
G02*
X260950000Y-70056250I0J218750D01*
G01*
X260950000Y-69543750D01*
G75*
G02*
X261168750Y-69325000I218750J0D01*
G01*
X261606250Y-69325000D01*
G75*
G02*
X261825000Y-69543750I0J-218750D01*
G01*
G37*
%TD*%
%TO.C,D42*%
G36*
G01*
X266625000Y-88543750D02*
X266625000Y-89056250D01*
G75*
G02*
X266406250Y-89275000I-218750J0D01*
G01*
X265968750Y-89275000D01*
G75*
G02*
X265750000Y-89056250I0J218750D01*
G01*
X265750000Y-88543750D01*
G75*
G02*
X265968750Y-88325000I218750J0D01*
G01*
X266406250Y-88325000D01*
G75*
G02*
X266625000Y-88543750I0J-218750D01*
G01*
G37*
G36*
G01*
X265050000Y-88543750D02*
X265050000Y-89056250D01*
G75*
G02*
X264831250Y-89275000I-218750J0D01*
G01*
X264393750Y-89275000D01*
G75*
G02*
X264175000Y-89056250I0J218750D01*
G01*
X264175000Y-88543750D01*
G75*
G02*
X264393750Y-88325000I218750J0D01*
G01*
X264831250Y-88325000D01*
G75*
G02*
X265050000Y-88543750I0J-218750D01*
G01*
G37*
%TD*%
%TO.C,D43*%
G36*
G01*
X257025000Y-107543750D02*
X257025000Y-108056250D01*
G75*
G02*
X256806250Y-108275000I-218750J0D01*
G01*
X256368750Y-108275000D01*
G75*
G02*
X256150000Y-108056250I0J218750D01*
G01*
X256150000Y-107543750D01*
G75*
G02*
X256368750Y-107325000I218750J0D01*
G01*
X256806250Y-107325000D01*
G75*
G02*
X257025000Y-107543750I0J-218750D01*
G01*
G37*
G36*
G01*
X255450000Y-107543750D02*
X255450000Y-108056250D01*
G75*
G02*
X255231250Y-108275000I-218750J0D01*
G01*
X254793750Y-108275000D01*
G75*
G02*
X254575000Y-108056250I0J218750D01*
G01*
X254575000Y-107543750D01*
G75*
G02*
X254793750Y-107325000I218750J0D01*
G01*
X255231250Y-107325000D01*
G75*
G02*
X255450000Y-107543750I0J-218750D01*
G01*
G37*
%TD*%
%TO.C,D53*%
G36*
G01*
X297625000Y-126743750D02*
X297625000Y-127256250D01*
G75*
G02*
X297406250Y-127475000I-218750J0D01*
G01*
X296968750Y-127475000D01*
G75*
G02*
X296750000Y-127256250I0J218750D01*
G01*
X296750000Y-126743750D01*
G75*
G02*
X296968750Y-126525000I218750J0D01*
G01*
X297406250Y-126525000D01*
G75*
G02*
X297625000Y-126743750I0J-218750D01*
G01*
G37*
G36*
G01*
X296050000Y-126743750D02*
X296050000Y-127256250D01*
G75*
G02*
X295831250Y-127475000I-218750J0D01*
G01*
X295393750Y-127475000D01*
G75*
G02*
X295175000Y-127256250I0J218750D01*
G01*
X295175000Y-126743750D01*
G75*
G02*
X295393750Y-126525000I218750J0D01*
G01*
X295831250Y-126525000D01*
G75*
G02*
X296050000Y-126743750I0J-218750D01*
G01*
G37*
%TD*%
%TO.C,D44*%
G36*
G01*
X269850000Y-50543750D02*
X269850000Y-51056250D01*
G75*
G02*
X269631250Y-51275000I-218750J0D01*
G01*
X269193750Y-51275000D01*
G75*
G02*
X268975000Y-51056250I0J218750D01*
G01*
X268975000Y-50543750D01*
G75*
G02*
X269193750Y-50325000I218750J0D01*
G01*
X269631250Y-50325000D01*
G75*
G02*
X269850000Y-50543750I0J-218750D01*
G01*
G37*
G36*
G01*
X271425000Y-50543750D02*
X271425000Y-51056250D01*
G75*
G02*
X271206250Y-51275000I-218750J0D01*
G01*
X270768750Y-51275000D01*
G75*
G02*
X270550000Y-51056250I0J218750D01*
G01*
X270550000Y-50543750D01*
G75*
G02*
X270768750Y-50325000I218750J0D01*
G01*
X271206250Y-50325000D01*
G75*
G02*
X271425000Y-50543750I0J-218750D01*
G01*
G37*
%TD*%
%TO.C,D45*%
G36*
G01*
X280825000Y-69543750D02*
X280825000Y-70056250D01*
G75*
G02*
X280606250Y-70275000I-218750J0D01*
G01*
X280168750Y-70275000D01*
G75*
G02*
X279950000Y-70056250I0J218750D01*
G01*
X279950000Y-69543750D01*
G75*
G02*
X280168750Y-69325000I218750J0D01*
G01*
X280606250Y-69325000D01*
G75*
G02*
X280825000Y-69543750I0J-218750D01*
G01*
G37*
G36*
G01*
X279250000Y-69543750D02*
X279250000Y-70056250D01*
G75*
G02*
X279031250Y-70275000I-218750J0D01*
G01*
X278593750Y-70275000D01*
G75*
G02*
X278375000Y-70056250I0J218750D01*
G01*
X278375000Y-69543750D01*
G75*
G02*
X278593750Y-69325000I218750J0D01*
G01*
X279031250Y-69325000D01*
G75*
G02*
X279250000Y-69543750I0J-218750D01*
G01*
G37*
%TD*%
%TO.C,D46*%
G36*
G01*
X284037500Y-88543750D02*
X284037500Y-89056250D01*
G75*
G02*
X283818750Y-89275000I-218750J0D01*
G01*
X283381250Y-89275000D01*
G75*
G02*
X283162500Y-89056250I0J218750D01*
G01*
X283162500Y-88543750D01*
G75*
G02*
X283381250Y-88325000I218750J0D01*
G01*
X283818750Y-88325000D01*
G75*
G02*
X284037500Y-88543750I0J-218750D01*
G01*
G37*
G36*
G01*
X285612500Y-88543750D02*
X285612500Y-89056250D01*
G75*
G02*
X285393750Y-89275000I-218750J0D01*
G01*
X284956250Y-89275000D01*
G75*
G02*
X284737500Y-89056250I0J218750D01*
G01*
X284737500Y-88543750D01*
G75*
G02*
X284956250Y-88325000I218750J0D01*
G01*
X285393750Y-88325000D01*
G75*
G02*
X285612500Y-88543750I0J-218750D01*
G01*
G37*
%TD*%
%TO.C,D47*%
G36*
G01*
X276025000Y-107743750D02*
X276025000Y-108256250D01*
G75*
G02*
X275806250Y-108475000I-218750J0D01*
G01*
X275368750Y-108475000D01*
G75*
G02*
X275150000Y-108256250I0J218750D01*
G01*
X275150000Y-107743750D01*
G75*
G02*
X275368750Y-107525000I218750J0D01*
G01*
X275806250Y-107525000D01*
G75*
G02*
X276025000Y-107743750I0J-218750D01*
G01*
G37*
G36*
G01*
X274450000Y-107743750D02*
X274450000Y-108256250D01*
G75*
G02*
X274231250Y-108475000I-218750J0D01*
G01*
X273793750Y-108475000D01*
G75*
G02*
X273575000Y-108256250I0J218750D01*
G01*
X273575000Y-107743750D01*
G75*
G02*
X273793750Y-107525000I218750J0D01*
G01*
X274231250Y-107525000D01*
G75*
G02*
X274450000Y-107743750I0J-218750D01*
G01*
G37*
%TD*%
%TO.C,D48*%
G36*
G01*
X272250000Y-126743750D02*
X272250000Y-127256250D01*
G75*
G02*
X272031250Y-127475000I-218750J0D01*
G01*
X271593750Y-127475000D01*
G75*
G02*
X271375000Y-127256250I0J218750D01*
G01*
X271375000Y-126743750D01*
G75*
G02*
X271593750Y-126525000I218750J0D01*
G01*
X272031250Y-126525000D01*
G75*
G02*
X272250000Y-126743750I0J-218750D01*
G01*
G37*
G36*
G01*
X273825000Y-126743750D02*
X273825000Y-127256250D01*
G75*
G02*
X273606250Y-127475000I-218750J0D01*
G01*
X273168750Y-127475000D01*
G75*
G02*
X272950000Y-127256250I0J218750D01*
G01*
X272950000Y-126743750D01*
G75*
G02*
X273168750Y-126525000I218750J0D01*
G01*
X273606250Y-126525000D01*
G75*
G02*
X273825000Y-126743750I0J-218750D01*
G01*
G37*
%TD*%
%TO.C,D49*%
G36*
G01*
X290425000Y-50543750D02*
X290425000Y-51056250D01*
G75*
G02*
X290206250Y-51275000I-218750J0D01*
G01*
X289768750Y-51275000D01*
G75*
G02*
X289550000Y-51056250I0J218750D01*
G01*
X289550000Y-50543750D01*
G75*
G02*
X289768750Y-50325000I218750J0D01*
G01*
X290206250Y-50325000D01*
G75*
G02*
X290425000Y-50543750I0J-218750D01*
G01*
G37*
G36*
G01*
X288850000Y-50543750D02*
X288850000Y-51056250D01*
G75*
G02*
X288631250Y-51275000I-218750J0D01*
G01*
X288193750Y-51275000D01*
G75*
G02*
X287975000Y-51056250I0J218750D01*
G01*
X287975000Y-50543750D01*
G75*
G02*
X288193750Y-50325000I218750J0D01*
G01*
X288631250Y-50325000D01*
G75*
G02*
X288850000Y-50543750I0J-218750D01*
G01*
G37*
%TD*%
%TO.C,D50*%
G36*
G01*
X298450000Y-69543750D02*
X298450000Y-70056250D01*
G75*
G02*
X298231250Y-70275000I-218750J0D01*
G01*
X297793750Y-70275000D01*
G75*
G02*
X297575000Y-70056250I0J218750D01*
G01*
X297575000Y-69543750D01*
G75*
G02*
X297793750Y-69325000I218750J0D01*
G01*
X298231250Y-69325000D01*
G75*
G02*
X298450000Y-69543750I0J-218750D01*
G01*
G37*
G36*
G01*
X300025000Y-69543750D02*
X300025000Y-70056250D01*
G75*
G02*
X299806250Y-70275000I-218750J0D01*
G01*
X299368750Y-70275000D01*
G75*
G02*
X299150000Y-70056250I0J218750D01*
G01*
X299150000Y-69543750D01*
G75*
G02*
X299368750Y-69325000I218750J0D01*
G01*
X299806250Y-69325000D01*
G75*
G02*
X300025000Y-69543750I0J-218750D01*
G01*
G37*
%TD*%
%TO.C,D51*%
G36*
G01*
X304625000Y-88543750D02*
X304625000Y-89056250D01*
G75*
G02*
X304406250Y-89275000I-218750J0D01*
G01*
X303968750Y-89275000D01*
G75*
G02*
X303750000Y-89056250I0J218750D01*
G01*
X303750000Y-88543750D01*
G75*
G02*
X303968750Y-88325000I218750J0D01*
G01*
X304406250Y-88325000D01*
G75*
G02*
X304625000Y-88543750I0J-218750D01*
G01*
G37*
G36*
G01*
X303050000Y-88543750D02*
X303050000Y-89056250D01*
G75*
G02*
X302831250Y-89275000I-218750J0D01*
G01*
X302393750Y-89275000D01*
G75*
G02*
X302175000Y-89056250I0J218750D01*
G01*
X302175000Y-88543750D01*
G75*
G02*
X302393750Y-88325000I218750J0D01*
G01*
X302831250Y-88325000D01*
G75*
G02*
X303050000Y-88543750I0J-218750D01*
G01*
G37*
%TD*%
%TO.C,D52*%
G36*
G01*
X293650000Y-107743750D02*
X293650000Y-108256250D01*
G75*
G02*
X293431250Y-108475000I-218750J0D01*
G01*
X292993750Y-108475000D01*
G75*
G02*
X292775000Y-108256250I0J218750D01*
G01*
X292775000Y-107743750D01*
G75*
G02*
X292993750Y-107525000I218750J0D01*
G01*
X293431250Y-107525000D01*
G75*
G02*
X293650000Y-107743750I0J-218750D01*
G01*
G37*
G36*
G01*
X295225000Y-107743750D02*
X295225000Y-108256250D01*
G75*
G02*
X295006250Y-108475000I-218750J0D01*
G01*
X294568750Y-108475000D01*
G75*
G02*
X294350000Y-108256250I0J218750D01*
G01*
X294350000Y-107743750D01*
G75*
G02*
X294568750Y-107525000I218750J0D01*
G01*
X295006250Y-107525000D01*
G75*
G02*
X295225000Y-107743750I0J-218750D01*
G01*
G37*
%TD*%
%TO.C,D54*%
G36*
G01*
X307850000Y-50543750D02*
X307850000Y-51056250D01*
G75*
G02*
X307631250Y-51275000I-218750J0D01*
G01*
X307193750Y-51275000D01*
G75*
G02*
X306975000Y-51056250I0J218750D01*
G01*
X306975000Y-50543750D01*
G75*
G02*
X307193750Y-50325000I218750J0D01*
G01*
X307631250Y-50325000D01*
G75*
G02*
X307850000Y-50543750I0J-218750D01*
G01*
G37*
G36*
G01*
X309425000Y-50543750D02*
X309425000Y-51056250D01*
G75*
G02*
X309206250Y-51275000I-218750J0D01*
G01*
X308768750Y-51275000D01*
G75*
G02*
X308550000Y-51056250I0J218750D01*
G01*
X308550000Y-50543750D01*
G75*
G02*
X308768750Y-50325000I218750J0D01*
G01*
X309206250Y-50325000D01*
G75*
G02*
X309425000Y-50543750I0J-218750D01*
G01*
G37*
%TD*%
%TO.C,D55*%
G36*
G01*
X319025000Y-69543750D02*
X319025000Y-70056250D01*
G75*
G02*
X318806250Y-70275000I-218750J0D01*
G01*
X318368750Y-70275000D01*
G75*
G02*
X318150000Y-70056250I0J218750D01*
G01*
X318150000Y-69543750D01*
G75*
G02*
X318368750Y-69325000I218750J0D01*
G01*
X318806250Y-69325000D01*
G75*
G02*
X319025000Y-69543750I0J-218750D01*
G01*
G37*
G36*
G01*
X317450000Y-69543750D02*
X317450000Y-70056250D01*
G75*
G02*
X317231250Y-70275000I-218750J0D01*
G01*
X316793750Y-70275000D01*
G75*
G02*
X316575000Y-70056250I0J218750D01*
G01*
X316575000Y-69543750D01*
G75*
G02*
X316793750Y-69325000I218750J0D01*
G01*
X317231250Y-69325000D01*
G75*
G02*
X317450000Y-69543750I0J-218750D01*
G01*
G37*
%TD*%
%TO.C,D56*%
G36*
G01*
X319850000Y-107743750D02*
X319850000Y-108256250D01*
G75*
G02*
X319631250Y-108475000I-218750J0D01*
G01*
X319193750Y-108475000D01*
G75*
G02*
X318975000Y-108256250I0J218750D01*
G01*
X318975000Y-107743750D01*
G75*
G02*
X319193750Y-107525000I218750J0D01*
G01*
X319631250Y-107525000D01*
G75*
G02*
X319850000Y-107743750I0J-218750D01*
G01*
G37*
G36*
G01*
X321425000Y-107743750D02*
X321425000Y-108256250D01*
G75*
G02*
X321206250Y-108475000I-218750J0D01*
G01*
X320768750Y-108475000D01*
G75*
G02*
X320550000Y-108256250I0J218750D01*
G01*
X320550000Y-107743750D01*
G75*
G02*
X320768750Y-107525000I218750J0D01*
G01*
X321206250Y-107525000D01*
G75*
G02*
X321425000Y-107743750I0J-218750D01*
G01*
G37*
%TD*%
%TO.C,D57*%
G36*
G01*
X328425000Y-126743750D02*
X328425000Y-127256250D01*
G75*
G02*
X328206250Y-127475000I-218750J0D01*
G01*
X327768750Y-127475000D01*
G75*
G02*
X327550000Y-127256250I0J218750D01*
G01*
X327550000Y-126743750D01*
G75*
G02*
X327768750Y-126525000I218750J0D01*
G01*
X328206250Y-126525000D01*
G75*
G02*
X328425000Y-126743750I0J-218750D01*
G01*
G37*
G36*
G01*
X326850000Y-126743750D02*
X326850000Y-127256250D01*
G75*
G02*
X326631250Y-127475000I-218750J0D01*
G01*
X326193750Y-127475000D01*
G75*
G02*
X325975000Y-127256250I0J218750D01*
G01*
X325975000Y-126743750D01*
G75*
G02*
X326193750Y-126525000I218750J0D01*
G01*
X326631250Y-126525000D01*
G75*
G02*
X326850000Y-126743750I0J-218750D01*
G01*
G37*
%TD*%
%TO.C,D58*%
G36*
G01*
X336400000Y-50493750D02*
X336400000Y-51006250D01*
G75*
G02*
X336181250Y-51225000I-218750J0D01*
G01*
X335743750Y-51225000D01*
G75*
G02*
X335525000Y-51006250I0J218750D01*
G01*
X335525000Y-50493750D01*
G75*
G02*
X335743750Y-50275000I218750J0D01*
G01*
X336181250Y-50275000D01*
G75*
G02*
X336400000Y-50493750I0J-218750D01*
G01*
G37*
G36*
G01*
X337975000Y-50493750D02*
X337975000Y-51006250D01*
G75*
G02*
X337756250Y-51225000I-218750J0D01*
G01*
X337318750Y-51225000D01*
G75*
G02*
X337100000Y-51006250I0J218750D01*
G01*
X337100000Y-50493750D01*
G75*
G02*
X337318750Y-50275000I218750J0D01*
G01*
X337756250Y-50275000D01*
G75*
G02*
X337975000Y-50493750I0J-218750D01*
G01*
G37*
%TD*%
%TO.C,D59*%
G36*
G01*
X342825000Y-69543750D02*
X342825000Y-70056250D01*
G75*
G02*
X342606250Y-70275000I-218750J0D01*
G01*
X342168750Y-70275000D01*
G75*
G02*
X341950000Y-70056250I0J218750D01*
G01*
X341950000Y-69543750D01*
G75*
G02*
X342168750Y-69325000I218750J0D01*
G01*
X342606250Y-69325000D01*
G75*
G02*
X342825000Y-69543750I0J-218750D01*
G01*
G37*
G36*
G01*
X341250000Y-69543750D02*
X341250000Y-70056250D01*
G75*
G02*
X341031250Y-70275000I-218750J0D01*
G01*
X340593750Y-70275000D01*
G75*
G02*
X340375000Y-70056250I0J218750D01*
G01*
X340375000Y-69543750D01*
G75*
G02*
X340593750Y-69325000I218750J0D01*
G01*
X341031250Y-69325000D01*
G75*
G02*
X341250000Y-69543750I0J-218750D01*
G01*
G37*
%TD*%
%TO.C,D60*%
G36*
G01*
X334050000Y-88543750D02*
X334050000Y-89056250D01*
G75*
G02*
X333831250Y-89275000I-218750J0D01*
G01*
X333393750Y-89275000D01*
G75*
G02*
X333175000Y-89056250I0J218750D01*
G01*
X333175000Y-88543750D01*
G75*
G02*
X333393750Y-88325000I218750J0D01*
G01*
X333831250Y-88325000D01*
G75*
G02*
X334050000Y-88543750I0J-218750D01*
G01*
G37*
G36*
G01*
X335625000Y-88543750D02*
X335625000Y-89056250D01*
G75*
G02*
X335406250Y-89275000I-218750J0D01*
G01*
X334968750Y-89275000D01*
G75*
G02*
X334750000Y-89056250I0J218750D01*
G01*
X334750000Y-88543750D01*
G75*
G02*
X334968750Y-88325000I218750J0D01*
G01*
X335406250Y-88325000D01*
G75*
G02*
X335625000Y-88543750I0J-218750D01*
G01*
G37*
%TD*%
%TO.C,D61*%
G36*
G01*
X347300000Y-107693750D02*
X347300000Y-108206250D01*
G75*
G02*
X347081250Y-108425000I-218750J0D01*
G01*
X346643750Y-108425000D01*
G75*
G02*
X346425000Y-108206250I0J218750D01*
G01*
X346425000Y-107693750D01*
G75*
G02*
X346643750Y-107475000I218750J0D01*
G01*
X347081250Y-107475000D01*
G75*
G02*
X347300000Y-107693750I0J-218750D01*
G01*
G37*
G36*
G01*
X345725000Y-107693750D02*
X345725000Y-108206250D01*
G75*
G02*
X345506250Y-108425000I-218750J0D01*
G01*
X345068750Y-108425000D01*
G75*
G02*
X344850000Y-108206250I0J218750D01*
G01*
X344850000Y-107693750D01*
G75*
G02*
X345068750Y-107475000I218750J0D01*
G01*
X345506250Y-107475000D01*
G75*
G02*
X345725000Y-107693750I0J-218750D01*
G01*
G37*
%TD*%
%TO.C,D62*%
G36*
G01*
X346050000Y-126743750D02*
X346050000Y-127256250D01*
G75*
G02*
X345831250Y-127475000I-218750J0D01*
G01*
X345393750Y-127475000D01*
G75*
G02*
X345175000Y-127256250I0J218750D01*
G01*
X345175000Y-126743750D01*
G75*
G02*
X345393750Y-126525000I218750J0D01*
G01*
X345831250Y-126525000D01*
G75*
G02*
X346050000Y-126743750I0J-218750D01*
G01*
G37*
G36*
G01*
X347625000Y-126743750D02*
X347625000Y-127256250D01*
G75*
G02*
X347406250Y-127475000I-218750J0D01*
G01*
X346968750Y-127475000D01*
G75*
G02*
X346750000Y-127256250I0J218750D01*
G01*
X346750000Y-126743750D01*
G75*
G02*
X346968750Y-126525000I218750J0D01*
G01*
X347406250Y-126525000D01*
G75*
G02*
X347625000Y-126743750I0J-218750D01*
G01*
G37*
%TD*%
%TO.C,D64*%
G36*
G01*
X366731000Y-69593750D02*
X366731000Y-70106250D01*
G75*
G02*
X366512250Y-70325000I-218750J0D01*
G01*
X366074750Y-70325000D01*
G75*
G02*
X365856000Y-70106250I0J218750D01*
G01*
X365856000Y-69593750D01*
G75*
G02*
X366074750Y-69375000I218750J0D01*
G01*
X366512250Y-69375000D01*
G75*
G02*
X366731000Y-69593750I0J-218750D01*
G01*
G37*
G36*
G01*
X365156000Y-69593750D02*
X365156000Y-70106250D01*
G75*
G02*
X364937250Y-70325000I-218750J0D01*
G01*
X364499750Y-70325000D01*
G75*
G02*
X364281000Y-70106250I0J218750D01*
G01*
X364281000Y-69593750D01*
G75*
G02*
X364499750Y-69375000I218750J0D01*
G01*
X364937250Y-69375000D01*
G75*
G02*
X365156000Y-69593750I0J-218750D01*
G01*
G37*
%TD*%
%TO.C,D65*%
G36*
G01*
X365181500Y-88643750D02*
X365181500Y-89156250D01*
G75*
G02*
X364962750Y-89375000I-218750J0D01*
G01*
X364525250Y-89375000D01*
G75*
G02*
X364306500Y-89156250I0J218750D01*
G01*
X364306500Y-88643750D01*
G75*
G02*
X364525250Y-88425000I218750J0D01*
G01*
X364962750Y-88425000D01*
G75*
G02*
X365181500Y-88643750I0J-218750D01*
G01*
G37*
G36*
G01*
X366756500Y-88643750D02*
X366756500Y-89156250D01*
G75*
G02*
X366537750Y-89375000I-218750J0D01*
G01*
X366100250Y-89375000D01*
G75*
G02*
X365881500Y-89156250I0J218750D01*
G01*
X365881500Y-88643750D01*
G75*
G02*
X366100250Y-88425000I218750J0D01*
G01*
X366537750Y-88425000D01*
G75*
G02*
X366756500Y-88643750I0J-218750D01*
G01*
G37*
%TD*%
%TO.C,D66*%
G36*
G01*
X366731000Y-107743750D02*
X366731000Y-108256250D01*
G75*
G02*
X366512250Y-108475000I-218750J0D01*
G01*
X366074750Y-108475000D01*
G75*
G02*
X365856000Y-108256250I0J218750D01*
G01*
X365856000Y-107743750D01*
G75*
G02*
X366074750Y-107525000I218750J0D01*
G01*
X366512250Y-107525000D01*
G75*
G02*
X366731000Y-107743750I0J-218750D01*
G01*
G37*
G36*
G01*
X365156000Y-107743750D02*
X365156000Y-108256250D01*
G75*
G02*
X364937250Y-108475000I-218750J0D01*
G01*
X364499750Y-108475000D01*
G75*
G02*
X364281000Y-108256250I0J218750D01*
G01*
X364281000Y-107743750D01*
G75*
G02*
X364499750Y-107525000I218750J0D01*
G01*
X364937250Y-107525000D01*
G75*
G02*
X365156000Y-107743750I0J-218750D01*
G01*
G37*
%TD*%
%TO.C,D67*%
G36*
G01*
X366731000Y-126743750D02*
X366731000Y-127256250D01*
G75*
G02*
X366512250Y-127475000I-218750J0D01*
G01*
X366074750Y-127475000D01*
G75*
G02*
X365856000Y-127256250I0J218750D01*
G01*
X365856000Y-126743750D01*
G75*
G02*
X366074750Y-126525000I218750J0D01*
G01*
X366512250Y-126525000D01*
G75*
G02*
X366731000Y-126743750I0J-218750D01*
G01*
G37*
G36*
G01*
X365156000Y-126743750D02*
X365156000Y-127256250D01*
G75*
G02*
X364937250Y-127475000I-218750J0D01*
G01*
X364499750Y-127475000D01*
G75*
G02*
X364281000Y-127256250I0J218750D01*
G01*
X364281000Y-126743750D01*
G75*
G02*
X364499750Y-126525000I218750J0D01*
G01*
X364937250Y-126525000D01*
G75*
G02*
X365156000Y-126743750I0J-218750D01*
G01*
G37*
%TD*%
%TO.C,R1*%
G36*
G01*
X130831000Y-36531000D02*
X130281000Y-36531000D01*
G75*
G02*
X130081000Y-36331000I0J200000D01*
G01*
X130081000Y-35931000D01*
G75*
G02*
X130281000Y-35731000I200000J0D01*
G01*
X130831000Y-35731000D01*
G75*
G02*
X131031000Y-35931000I0J-200000D01*
G01*
X131031000Y-36331000D01*
G75*
G02*
X130831000Y-36531000I-200000J0D01*
G01*
G37*
G36*
G01*
X130831000Y-34881000D02*
X130281000Y-34881000D01*
G75*
G02*
X130081000Y-34681000I0J200000D01*
G01*
X130081000Y-34281000D01*
G75*
G02*
X130281000Y-34081000I200000J0D01*
G01*
X130831000Y-34081000D01*
G75*
G02*
X131031000Y-34281000I0J-200000D01*
G01*
X131031000Y-34681000D01*
G75*
G02*
X130831000Y-34881000I-200000J0D01*
G01*
G37*
%TD*%
%TO.C,R2*%
G36*
G01*
X109838940Y-41734060D02*
X109838940Y-42284060D01*
G75*
G02*
X109638940Y-42484060I-200000J0D01*
G01*
X109238940Y-42484060D01*
G75*
G02*
X109038940Y-42284060I0J200000D01*
G01*
X109038940Y-41734060D01*
G75*
G02*
X109238940Y-41534060I200000J0D01*
G01*
X109638940Y-41534060D01*
G75*
G02*
X109838940Y-41734060I0J-200000D01*
G01*
G37*
G36*
G01*
X111488940Y-41734060D02*
X111488940Y-42284060D01*
G75*
G02*
X111288940Y-42484060I-200000J0D01*
G01*
X110888940Y-42484060D01*
G75*
G02*
X110688940Y-42284060I0J200000D01*
G01*
X110688940Y-41734060D01*
G75*
G02*
X110888940Y-41534060I200000J0D01*
G01*
X111288940Y-41534060D01*
G75*
G02*
X111488940Y-41734060I0J-200000D01*
G01*
G37*
%TD*%
%TO.C,R3*%
G36*
G01*
X76669220Y-41039600D02*
X77219220Y-41039600D01*
G75*
G02*
X77419220Y-41239600I0J-200000D01*
G01*
X77419220Y-41639600D01*
G75*
G02*
X77219220Y-41839600I-200000J0D01*
G01*
X76669220Y-41839600D01*
G75*
G02*
X76469220Y-41639600I0J200000D01*
G01*
X76469220Y-41239600D01*
G75*
G02*
X76669220Y-41039600I200000J0D01*
G01*
G37*
G36*
G01*
X76669220Y-39389600D02*
X77219220Y-39389600D01*
G75*
G02*
X77419220Y-39589600I0J-200000D01*
G01*
X77419220Y-39989600D01*
G75*
G02*
X77219220Y-40189600I-200000J0D01*
G01*
X76669220Y-40189600D01*
G75*
G02*
X76469220Y-39989600I0J200000D01*
G01*
X76469220Y-39589600D01*
G75*
G02*
X76669220Y-39389600I200000J0D01*
G01*
G37*
%TD*%
%TO.C,R4*%
G36*
G01*
X89155860Y-39394680D02*
X89705860Y-39394680D01*
G75*
G02*
X89905860Y-39594680I0J-200000D01*
G01*
X89905860Y-39994680D01*
G75*
G02*
X89705860Y-40194680I-200000J0D01*
G01*
X89155860Y-40194680D01*
G75*
G02*
X88955860Y-39994680I0J200000D01*
G01*
X88955860Y-39594680D01*
G75*
G02*
X89155860Y-39394680I200000J0D01*
G01*
G37*
G36*
G01*
X89155860Y-41044680D02*
X89705860Y-41044680D01*
G75*
G02*
X89905860Y-41244680I0J-200000D01*
G01*
X89905860Y-41644680D01*
G75*
G02*
X89705860Y-41844680I-200000J0D01*
G01*
X89155860Y-41844680D01*
G75*
G02*
X88955860Y-41644680I0J200000D01*
G01*
X88955860Y-41244680D01*
G75*
G02*
X89155860Y-41044680I200000J0D01*
G01*
G37*
%TD*%
%TO.C,R5*%
G36*
G01*
X84327180Y-43247900D02*
X84327180Y-43797900D01*
G75*
G02*
X84127180Y-43997900I-200000J0D01*
G01*
X83727180Y-43997900D01*
G75*
G02*
X83527180Y-43797900I0J200000D01*
G01*
X83527180Y-43247900D01*
G75*
G02*
X83727180Y-43047900I200000J0D01*
G01*
X84127180Y-43047900D01*
G75*
G02*
X84327180Y-43247900I0J-200000D01*
G01*
G37*
G36*
G01*
X85977180Y-43247900D02*
X85977180Y-43797900D01*
G75*
G02*
X85777180Y-43997900I-200000J0D01*
G01*
X85377180Y-43997900D01*
G75*
G02*
X85177180Y-43797900I0J200000D01*
G01*
X85177180Y-43247900D01*
G75*
G02*
X85377180Y-43047900I200000J0D01*
G01*
X85777180Y-43047900D01*
G75*
G02*
X85977180Y-43247900I0J-200000D01*
G01*
G37*
%TD*%
%TO.C,R6*%
G36*
G01*
X80385200Y-43795360D02*
X80385200Y-43245360D01*
G75*
G02*
X80585200Y-43045360I200000J0D01*
G01*
X80985200Y-43045360D01*
G75*
G02*
X81185200Y-43245360I0J-200000D01*
G01*
X81185200Y-43795360D01*
G75*
G02*
X80985200Y-43995360I-200000J0D01*
G01*
X80585200Y-43995360D01*
G75*
G02*
X80385200Y-43795360I0J200000D01*
G01*
G37*
G36*
G01*
X82035200Y-43795360D02*
X82035200Y-43245360D01*
G75*
G02*
X82235200Y-43045360I200000J0D01*
G01*
X82635200Y-43045360D01*
G75*
G02*
X82835200Y-43245360I0J-200000D01*
G01*
X82835200Y-43795360D01*
G75*
G02*
X82635200Y-43995360I-200000J0D01*
G01*
X82235200Y-43995360D01*
G75*
G02*
X82035200Y-43795360I0J200000D01*
G01*
G37*
%TD*%
%TO.C,U1*%
G36*
X98991519Y-42258901D02*
G01*
X98277341Y-41544723D01*
X98461189Y-41360875D01*
X99175367Y-42075053D01*
X98991519Y-42258901D01*
G37*
G36*
X99345073Y-41905348D02*
G01*
X98630895Y-41191170D01*
X98814743Y-41007322D01*
X99528921Y-41721500D01*
X99345073Y-41905348D01*
G37*
G36*
X99698626Y-41551794D02*
G01*
X98984448Y-40837616D01*
X99168296Y-40653768D01*
X99882474Y-41367946D01*
X99698626Y-41551794D01*
G37*
G36*
X100052179Y-41198241D02*
G01*
X99338001Y-40484063D01*
X99521849Y-40300215D01*
X100236027Y-41014393D01*
X100052179Y-41198241D01*
G37*
G36*
X100405733Y-40844688D02*
G01*
X99691555Y-40130510D01*
X99875403Y-39946662D01*
X100589581Y-40660840D01*
X100405733Y-40844688D01*
G37*
G36*
X100759286Y-40491134D02*
G01*
X100045108Y-39776956D01*
X100228956Y-39593108D01*
X100943134Y-40307286D01*
X100759286Y-40491134D01*
G37*
G36*
X101112840Y-40137581D02*
G01*
X100398662Y-39423403D01*
X100582510Y-39239555D01*
X101296688Y-39953733D01*
X101112840Y-40137581D01*
G37*
G36*
X101466393Y-39784027D02*
G01*
X100752215Y-39069849D01*
X100936063Y-38886001D01*
X101650241Y-39600179D01*
X101466393Y-39784027D01*
G37*
G36*
X101819946Y-39430474D02*
G01*
X101105768Y-38716296D01*
X101289616Y-38532448D01*
X102003794Y-39246626D01*
X101819946Y-39430474D01*
G37*
G36*
X102173500Y-39076921D02*
G01*
X101459322Y-38362743D01*
X101643170Y-38178895D01*
X102357348Y-38893073D01*
X102173500Y-39076921D01*
G37*
G36*
X102527053Y-38723367D02*
G01*
X101812875Y-38009189D01*
X101996723Y-37825341D01*
X102710901Y-38539519D01*
X102527053Y-38723367D01*
G37*
G36*
X107278811Y-43475125D02*
G01*
X106564633Y-42760947D01*
X106748481Y-42577099D01*
X107462659Y-43291277D01*
X107278811Y-43475125D01*
G37*
G36*
X106925257Y-43828678D02*
G01*
X106211079Y-43114500D01*
X106394927Y-42930652D01*
X107109105Y-43644830D01*
X106925257Y-43828678D01*
G37*
G36*
X106571704Y-44182232D02*
G01*
X105857526Y-43468054D01*
X106041374Y-43284206D01*
X106755552Y-43998384D01*
X106571704Y-44182232D01*
G37*
G36*
X106218151Y-44535785D02*
G01*
X105503973Y-43821607D01*
X105687821Y-43637759D01*
X106401999Y-44351937D01*
X106218151Y-44535785D01*
G37*
G36*
X105864597Y-44889338D02*
G01*
X105150419Y-44175160D01*
X105334267Y-43991312D01*
X106048445Y-44705490D01*
X105864597Y-44889338D01*
G37*
G36*
X105511044Y-45242892D02*
G01*
X104796866Y-44528714D01*
X104980714Y-44344866D01*
X105694892Y-45059044D01*
X105511044Y-45242892D01*
G37*
G36*
X105157490Y-45596445D02*
G01*
X104443312Y-44882267D01*
X104627160Y-44698419D01*
X105341338Y-45412597D01*
X105157490Y-45596445D01*
G37*
G36*
X104803937Y-45949999D02*
G01*
X104089759Y-45235821D01*
X104273607Y-45051973D01*
X104987785Y-45766151D01*
X104803937Y-45949999D01*
G37*
G36*
X104450384Y-46303552D02*
G01*
X103736206Y-45589374D01*
X103920054Y-45405526D01*
X104634232Y-46119704D01*
X104450384Y-46303552D01*
G37*
G36*
X104096830Y-46657105D02*
G01*
X103382652Y-45942927D01*
X103566500Y-45759079D01*
X104280678Y-46473257D01*
X104096830Y-46657105D01*
G37*
G36*
X103743277Y-47010659D02*
G01*
X103029099Y-46296481D01*
X103212947Y-46112633D01*
X103927125Y-46826811D01*
X103743277Y-47010659D01*
G37*
G36*
X101996723Y-47010659D02*
G01*
X101812875Y-46826811D01*
X102527053Y-46112633D01*
X102710901Y-46296481D01*
X101996723Y-47010659D01*
G37*
G36*
X101643170Y-46657105D02*
G01*
X101459322Y-46473257D01*
X102173500Y-45759079D01*
X102357348Y-45942927D01*
X101643170Y-46657105D01*
G37*
G36*
X101289616Y-46303552D02*
G01*
X101105768Y-46119704D01*
X101819946Y-45405526D01*
X102003794Y-45589374D01*
X101289616Y-46303552D01*
G37*
G36*
X100936063Y-45949999D02*
G01*
X100752215Y-45766151D01*
X101466393Y-45051973D01*
X101650241Y-45235821D01*
X100936063Y-45949999D01*
G37*
G36*
X100582510Y-45596445D02*
G01*
X100398662Y-45412597D01*
X101112840Y-44698419D01*
X101296688Y-44882267D01*
X100582510Y-45596445D01*
G37*
G36*
X100228956Y-45242892D02*
G01*
X100045108Y-45059044D01*
X100759286Y-44344866D01*
X100943134Y-44528714D01*
X100228956Y-45242892D01*
G37*
G36*
X99875403Y-44889338D02*
G01*
X99691555Y-44705490D01*
X100405733Y-43991312D01*
X100589581Y-44175160D01*
X99875403Y-44889338D01*
G37*
G36*
X99521849Y-44535785D02*
G01*
X99338001Y-44351937D01*
X100052179Y-43637759D01*
X100236027Y-43821607D01*
X99521849Y-44535785D01*
G37*
G36*
X99168296Y-44182232D02*
G01*
X98984448Y-43998384D01*
X99698626Y-43284206D01*
X99882474Y-43468054D01*
X99168296Y-44182232D01*
G37*
G36*
X98814743Y-43828678D02*
G01*
X98630895Y-43644830D01*
X99345073Y-42930652D01*
X99528921Y-43114500D01*
X98814743Y-43828678D01*
G37*
G36*
X98461189Y-43475125D02*
G01*
X98277341Y-43291277D01*
X98991519Y-42577099D01*
X99175367Y-42760947D01*
X98461189Y-43475125D01*
G37*
G36*
X103212947Y-38723367D02*
G01*
X103029099Y-38539519D01*
X103743277Y-37825341D01*
X103927125Y-38009189D01*
X103212947Y-38723367D01*
G37*
G36*
X103566500Y-39076921D02*
G01*
X103382652Y-38893073D01*
X104096830Y-38178895D01*
X104280678Y-38362743D01*
X103566500Y-39076921D01*
G37*
G36*
X103920054Y-39430474D02*
G01*
X103736206Y-39246626D01*
X104450384Y-38532448D01*
X104634232Y-38716296D01*
X103920054Y-39430474D01*
G37*
G36*
X104273607Y-39784027D02*
G01*
X104089759Y-39600179D01*
X104803937Y-38886001D01*
X104987785Y-39069849D01*
X104273607Y-39784027D01*
G37*
G36*
X104627160Y-40137581D02*
G01*
X104443312Y-39953733D01*
X105157490Y-39239555D01*
X105341338Y-39423403D01*
X104627160Y-40137581D01*
G37*
G36*
X104980714Y-40491134D02*
G01*
X104796866Y-40307286D01*
X105511044Y-39593108D01*
X105694892Y-39776956D01*
X104980714Y-40491134D01*
G37*
G36*
X105334267Y-40844688D02*
G01*
X105150419Y-40660840D01*
X105864597Y-39946662D01*
X106048445Y-40130510D01*
X105334267Y-40844688D01*
G37*
G36*
X105687821Y-41198241D02*
G01*
X105503973Y-41014393D01*
X106218151Y-40300215D01*
X106401999Y-40484063D01*
X105687821Y-41198241D01*
G37*
G36*
X106041374Y-41551794D02*
G01*
X105857526Y-41367946D01*
X106571704Y-40653768D01*
X106755552Y-40837616D01*
X106041374Y-41551794D01*
G37*
G36*
X106394927Y-41905348D02*
G01*
X106211079Y-41721500D01*
X106925257Y-41007322D01*
X107109105Y-41191170D01*
X106394927Y-41905348D01*
G37*
G36*
X106748481Y-42258901D02*
G01*
X106564633Y-42075053D01*
X107278811Y-41360875D01*
X107462659Y-41544723D01*
X106748481Y-42258901D01*
G37*
%TD*%
%TO.C,D63*%
G36*
G01*
X366731000Y-50543750D02*
X366731000Y-51056250D01*
G75*
G02*
X366512250Y-51275000I-218750J0D01*
G01*
X366074750Y-51275000D01*
G75*
G02*
X365856000Y-51056250I0J218750D01*
G01*
X365856000Y-50543750D01*
G75*
G02*
X366074750Y-50325000I218750J0D01*
G01*
X366512250Y-50325000D01*
G75*
G02*
X366731000Y-50543750I0J-218750D01*
G01*
G37*
G36*
G01*
X365156000Y-50543750D02*
X365156000Y-51056250D01*
G75*
G02*
X364937250Y-51275000I-218750J0D01*
G01*
X364499750Y-51275000D01*
G75*
G02*
X364281000Y-51056250I0J218750D01*
G01*
X364281000Y-50543750D01*
G75*
G02*
X364499750Y-50325000I218750J0D01*
G01*
X364937250Y-50325000D01*
G75*
G02*
X365156000Y-50543750I0J-218750D01*
G01*
G37*
%TD*%
M02*
