M48
; DRILL file {KiCad (5.1.9)-1} date 04/19/21 19:21:41
; FORMAT={-:-/ absolute / inch / decimal}
; #@! TF.CreationDate,2021-04-19T19:21:41-07:00
; #@! TF.GenerationSoftware,Kicad,Pcbnew,(5.1.9)-1
; #@! TF.FileFunction,NonPlated,1,2,NPTH
FMAT,2
INCH
T1C0.0256
T2C0.0669
T3C0.1201
T4C0.1575
%
G90
G05
T1
X3.1331Y-1.5979
T2
X2.7Y-2.2
X2.7937Y-5.2
X2.8875Y-2.95
X2.9812Y-3.7
X3.1Y-2.2
X3.1687Y-4.45
X3.1938Y-5.2
X3.2875Y-2.95
X3.3813Y-3.7
X3.45Y-2.2
X3.5688Y-4.45
X3.7312Y-5.2
X3.825Y-2.95
X3.85Y-2.2
X4.0125Y-3.7
X4.1312Y-5.2
X4.2Y-2.2
X4.225Y-2.95
X4.3875Y-4.45
X4.4125Y-3.7
X4.575Y-2.95
X4.6Y-2.2
X4.6688Y-5.2
X4.7625Y-3.7
X4.7875Y-4.45
X4.95Y-2.2
X4.975Y-2.95
X5.0687Y-5.2
X5.1375Y-4.45
X5.1625Y-3.7
X5.325Y-2.95
X5.35Y-2.2
X5.5125Y-3.7
X5.5375Y-4.45
X5.7Y-2.2
X5.725Y-2.95
X5.8875Y-4.45
X5.9125Y-3.7
X6.075Y-2.95
X6.1Y-2.2
X6.2625Y-3.7
X6.2875Y-4.45
X6.45Y-2.2
X6.475Y-2.95
X6.6375Y-4.45
X6.6625Y-3.7
X6.825Y-2.95
X6.85Y-2.2
X7.0125Y-3.7
X7.0375Y-4.45
X7.2Y-2.2
X7.225Y-2.95
X7.3875Y-4.45
X7.4125Y-3.7
X7.4813Y-5.2
X7.575Y-2.95
X7.6Y-2.2
X7.7625Y-3.7
X7.7875Y-4.45
X7.8812Y-5.2
X7.95Y-2.2
X7.975Y-2.95
X8.1375Y-4.45
X8.1625Y-3.7
X8.325Y-2.95
X8.35Y-2.2
X8.5125Y-3.7
X8.5375Y-4.45
X8.7Y-2.2
X8.725Y-2.95
X8.8875Y-4.45
X8.9125Y-3.7
X9.075Y-2.95
X9.1Y-2.2
X9.2625Y-3.7
X9.2875Y-4.45
X9.45Y-2.2
X9.475Y-2.95
X9.6375Y-4.45
X9.6625Y-3.7
X9.825Y-2.95
X9.85Y-2.2
X10.0125Y-3.7
X10.0375Y-4.45
X10.2Y-2.2
X10.225Y-2.95
X10.2937Y-5.2
X10.3875Y-4.45
X10.4125Y-3.7
X10.575Y-2.95
X10.6Y-2.2
X10.6937Y-5.2
X10.7625Y-3.7
X10.7875Y-4.45
X10.95Y-2.2
X10.975Y-2.95
X11.1375Y-4.45
X11.1625Y-3.7
X11.2312Y-5.2
X11.325Y-2.95
X11.35Y-2.2
X11.5125Y-3.7
X11.5375Y-4.45
X11.6312Y-5.2
X11.7Y-2.2
X11.725Y-2.95
X11.9125Y-3.7
X12.075Y-2.95
X12.1Y-2.2
X12.1687Y-4.45
X12.45Y-5.2
X12.475Y-2.95
X12.5687Y-4.45
X12.7312Y-3.7
X12.825Y-2.2
X12.85Y-5.2
X13.0125Y-2.95
X13.1312Y-3.7
X13.2Y-4.45
X13.2Y-5.2
X13.225Y-2.2
X13.4125Y-2.95
X13.6Y-4.45
X13.6Y-5.2
X13.95Y-2.2
X13.95Y-2.95
X13.95Y-3.7
X13.95Y-4.45
X13.95Y-5.2
X14.35Y-2.2
X14.35Y-2.95
X14.35Y-3.7
X14.35Y-4.45
X14.35Y-5.2
T3
X2.9002Y-4.1744
X3.8373Y-4.1744
X5.7127Y-5.4756
X9.6498Y-5.4756
X12.4627Y-3.4244
X12.5565Y-1.9244
X13.3998Y-3.4244
X13.4935Y-1.9244
T4
X2.9Y-2.2
X2.9002Y-4.7744
X2.9937Y-5.2
X3.0875Y-2.95
X3.1812Y-3.7
X3.3687Y-4.45
X3.65Y-2.2
X3.8373Y-4.7744
X3.9312Y-5.2
X4.025Y-2.95
X4.2125Y-3.7
X4.4Y-2.2
X4.5875Y-4.45
X4.775Y-2.95
X4.8687Y-5.2
X4.9625Y-3.7
X5.15Y-2.2
X5.3375Y-4.45
X5.525Y-2.95
X5.7125Y-3.7
X5.7127Y-4.8756
X5.9Y-2.2
X6.0875Y-4.45
X6.275Y-2.95
X6.4625Y-3.7
X6.65Y-2.2
X6.8375Y-4.45
X7.025Y-2.95
X7.2125Y-3.7
X7.4Y-2.2
X7.5875Y-4.45
X7.6812Y-5.2
X7.775Y-2.95
X7.9625Y-3.7
X8.15Y-2.2
X8.3375Y-4.45
X8.525Y-2.95
X8.7125Y-3.7
X8.9Y-2.2
X9.0875Y-4.45
X9.275Y-2.95
X9.4625Y-3.7
X9.6498Y-4.8756
X9.65Y-2.2
X9.8375Y-4.45
X10.025Y-2.95
X10.2125Y-3.7
X10.4Y-2.2
X10.4938Y-5.2
X10.5875Y-4.45
X10.775Y-2.95
X10.9625Y-3.7
X11.15Y-2.2
X11.3375Y-4.45
X11.4313Y-5.2
X11.525Y-2.95
X11.7125Y-3.7
X11.9Y-2.2
X12.275Y-2.95
X12.3688Y-4.45
X12.4627Y-4.0244
X12.5565Y-2.5244
X12.65Y-5.2
X12.9313Y-3.7
X13.025Y-2.2
X13.2125Y-2.95
X13.3998Y-4.0244
X13.4Y-4.45
X13.4Y-5.2
X13.4935Y-2.5244
X14.15Y-2.2
X14.15Y-2.95
X14.15Y-3.7
X14.15Y-4.45
X14.15Y-5.2
T1
G00X3.4106Y-1.5979
M15
G01X3.4224Y-1.5979
M16
G05
T0
M30
