M48
; DRILL file {KiCad (5.1.9)-1} date 04/19/21 20:07:33
; FORMAT={-:-/ absolute / metric / decimal}
; #@! TF.CreationDate,2021-04-19T20:07:33-07:00
; #@! TF.GenerationSoftware,Kicad,Pcbnew,(5.1.9)-1
FMAT,2
METRIC
T1C0.400
T2C0.500
T3C0.762
T4C1.000
T5C1.100
T6C1.500
T7C0.650
T8C1.700
T9C3.050
T10C4.000
%
G90
G05
T1
X79.177Y-47.907
X79.225Y-43.515
X81.681Y-37.353
X82.702Y-38.412
X84.183Y-42.268
X85.197Y-38.412
X87.058Y-43.515
X87.079Y-49.395
X90.79Y-45.639
X91.12Y-41.554
X91.13Y-40.114
X94.971Y-47.302
X96.853Y-49.934
X101.128Y-49.893
X104.912Y-49.202
X105.867Y-48.364
X106.477Y-50.056
X107.086Y-51.633
X107.198Y-36.558
X107.95Y-49.73
X108.334Y-36.551
X109.664Y-45.029
X112.662Y-43.609
X127.0Y-49.68
X129.202Y-34.498
X129.215Y-36.17
X130.409Y-39.797
X146.05Y-49.66
X165.13Y-49.74
X184.15Y-49.76
X203.23Y-49.77
X222.26Y-49.73
X241.34Y-49.76
X260.3Y-49.72
X279.37Y-49.89
X298.53Y-49.9
X309.121Y-37.96
X309.443Y-35.57
X311.3Y-43.599
X327.02Y-49.9
X355.55Y-49.83
T3
X313.35Y-35.438
X313.35Y-37.978
X313.35Y-40.518
X313.35Y-43.058
T4
X352.16Y-36.748
X352.16Y-39.248
X352.16Y-41.748
X366.66Y-36.748
X366.66Y-41.748
T5
X133.398Y-35.292
X133.398Y-39.792
X139.898Y-35.292
X139.898Y-39.792
T6
X69.85Y-53.34
X72.231Y-129.54
X74.612Y-72.39
X76.2Y-50.8
X76.994Y-91.44
X78.581Y-127.0
X80.962Y-69.85
X81.756Y-110.49
X83.344Y-88.9
X88.106Y-107.95
X88.9Y-53.34
X95.25Y-50.8
X96.044Y-129.54
X98.425Y-72.39
X102.394Y-127.0
X103.188Y-91.44
X104.775Y-69.85
X107.95Y-53.34
X109.537Y-88.9
X112.712Y-110.49
X114.3Y-50.8
X117.475Y-72.39
X119.062Y-107.95
X119.856Y-129.54
X122.237Y-91.44
X123.825Y-69.85
X126.206Y-127.0
X127.0Y-53.34
X128.588Y-88.9
X131.762Y-110.49
X133.35Y-50.8
X136.525Y-72.39
X138.112Y-107.95
X141.287Y-91.44
X142.875Y-69.85
X146.05Y-53.34
X147.637Y-88.9
X150.812Y-110.49
X152.4Y-50.8
X155.575Y-72.39
X157.162Y-107.95
X160.338Y-91.44
X161.925Y-69.85
X165.1Y-53.34
X166.688Y-88.9
X169.862Y-110.49
X171.45Y-50.8
X174.625Y-72.39
X176.213Y-107.95
X179.387Y-91.44
X180.975Y-69.85
X184.15Y-53.34
X185.737Y-88.9
X188.912Y-110.49
X190.5Y-50.8
X191.294Y-129.54
X193.675Y-72.39
X195.262Y-107.95
X197.644Y-127.0
X198.438Y-91.44
X200.025Y-69.85
X203.2Y-53.34
X204.787Y-88.9
X207.962Y-110.49
X209.55Y-50.8
X212.725Y-72.39
X214.312Y-107.95
X217.487Y-91.44
X219.075Y-69.85
X222.25Y-53.34
X223.837Y-88.9
X227.012Y-110.49
X228.6Y-50.8
X231.775Y-72.39
X233.362Y-107.95
X236.537Y-91.44
X238.125Y-69.85
X241.3Y-53.34
X242.887Y-88.9
X246.062Y-110.49
X247.65Y-50.8
X250.825Y-72.39
X252.412Y-107.95
X255.587Y-91.44
X257.175Y-69.85
X260.35Y-53.34
X261.938Y-88.9
X262.731Y-129.54
X265.113Y-110.49
X266.7Y-50.8
X269.081Y-127.0
X269.875Y-72.39
X271.462Y-107.95
X274.637Y-91.44
X276.225Y-69.85
X279.4Y-53.34
X280.988Y-88.9
X284.162Y-110.49
X285.75Y-50.8
X286.544Y-129.54
X288.925Y-72.39
X290.512Y-107.95
X292.894Y-127.0
X293.688Y-91.44
X295.275Y-69.85
X298.45Y-53.34
X300.037Y-88.9
X304.8Y-50.8
X307.975Y-72.39
X310.356Y-110.49
X314.325Y-69.85
X316.706Y-107.95
X317.5Y-129.54
X323.85Y-127.0
X324.644Y-91.44
X327.025Y-53.34
X330.994Y-88.9
X331.787Y-72.39
X333.375Y-50.8
X336.55Y-110.49
X336.55Y-129.54
X338.137Y-69.85
X342.9Y-107.95
X342.9Y-127.0
X355.6Y-53.34
X355.6Y-72.39
X355.6Y-91.44
X355.6Y-110.49
X355.6Y-129.54
X361.95Y-50.8
X361.95Y-69.85
X361.95Y-88.9
X361.95Y-107.95
X361.95Y-127.0
T7
X79.58Y-40.585
T8
X68.58Y-55.88
X70.961Y-132.08
X73.343Y-74.93
X75.724Y-93.98
X78.74Y-55.88
X80.486Y-113.03
X81.121Y-132.08
X83.502Y-74.93
X85.884Y-93.98
X87.63Y-55.88
X90.646Y-113.03
X94.774Y-132.08
X97.155Y-74.93
X97.79Y-55.88
X101.917Y-93.98
X104.934Y-132.08
X106.68Y-55.88
X107.315Y-74.93
X111.442Y-113.03
X112.078Y-93.98
X116.205Y-74.93
X116.84Y-55.88
X118.586Y-132.08
X120.968Y-93.98
X121.602Y-113.03
X125.73Y-55.88
X126.365Y-74.93
X128.746Y-132.08
X130.493Y-113.03
X131.127Y-93.98
X135.255Y-74.93
X135.89Y-55.88
X140.017Y-93.98
X140.653Y-113.03
X144.78Y-55.88
X145.415Y-74.93
X149.542Y-113.03
X150.177Y-93.98
X154.305Y-74.93
X154.94Y-55.88
X159.067Y-93.98
X159.702Y-113.03
X163.83Y-55.88
X164.465Y-74.93
X168.593Y-113.03
X169.227Y-93.98
X173.355Y-74.93
X173.99Y-55.88
X178.117Y-93.98
X178.752Y-113.03
X182.88Y-55.88
X183.515Y-74.93
X187.642Y-113.03
X188.278Y-93.98
X190.024Y-132.08
X192.405Y-74.93
X193.04Y-55.88
X197.167Y-93.98
X197.802Y-113.03
X200.184Y-132.08
X201.93Y-55.88
X202.565Y-74.93
X206.692Y-113.03
X207.327Y-93.98
X211.455Y-74.93
X212.09Y-55.88
X216.218Y-93.98
X216.852Y-113.03
X220.98Y-55.88
X221.615Y-74.93
X225.742Y-113.03
X226.377Y-93.98
X230.505Y-74.93
X231.14Y-55.88
X235.267Y-93.98
X235.903Y-113.03
X240.03Y-55.88
X240.665Y-74.93
X244.792Y-113.03
X245.427Y-93.98
X249.555Y-74.93
X250.19Y-55.88
X254.317Y-93.98
X254.952Y-113.03
X259.08Y-55.88
X259.715Y-74.93
X261.461Y-132.08
X263.842Y-113.03
X264.477Y-93.98
X268.605Y-74.93
X269.24Y-55.88
X271.621Y-132.08
X273.368Y-93.98
X274.002Y-113.03
X278.13Y-55.88
X278.765Y-74.93
X282.892Y-113.03
X283.527Y-93.98
X285.274Y-132.08
X287.655Y-74.93
X288.29Y-55.88
X292.417Y-93.98
X293.053Y-113.03
X295.434Y-132.08
X297.18Y-55.88
X297.815Y-74.93
X302.577Y-93.98
X306.705Y-74.93
X307.34Y-55.88
X309.086Y-113.03
X316.23Y-132.08
X316.865Y-74.93
X319.246Y-113.03
X323.374Y-93.98
X325.755Y-55.88
X326.39Y-132.08
X330.517Y-74.93
X333.534Y-93.98
X335.28Y-113.03
X335.28Y-132.08
X335.915Y-55.88
X340.678Y-74.93
X345.44Y-113.03
X345.44Y-132.08
X354.33Y-55.88
X354.33Y-74.93
X354.33Y-93.98
X354.33Y-113.03
X354.33Y-132.08
X364.49Y-55.88
X364.49Y-74.93
X364.49Y-93.98
X364.49Y-113.03
X364.49Y-132.08
T9
X73.666Y-106.03
X97.466Y-106.03
X145.104Y-139.08
X245.104Y-139.08
X316.554Y-86.98
X318.935Y-48.88
X340.354Y-86.98
X342.735Y-48.88
T10
X73.66Y-55.88
X73.666Y-121.27
X76.041Y-132.08
X78.422Y-74.93
X80.804Y-93.98
X85.566Y-113.03
X92.71Y-55.88
X97.466Y-121.27
X99.854Y-132.08
X102.235Y-74.93
X106.997Y-93.98
X111.76Y-55.88
X116.522Y-113.03
X121.285Y-74.93
X123.666Y-132.08
X126.047Y-93.98
X130.81Y-55.88
X135.572Y-113.03
X140.335Y-74.93
X145.097Y-93.98
X145.104Y-123.84
X149.86Y-55.88
X154.623Y-113.03
X159.385Y-74.93
X164.147Y-93.98
X168.91Y-55.88
X173.672Y-113.03
X178.435Y-74.93
X183.197Y-93.98
X187.96Y-55.88
X192.722Y-113.03
X195.104Y-132.08
X197.485Y-74.93
X202.248Y-93.98
X207.01Y-55.88
X211.772Y-113.03
X216.535Y-74.93
X221.297Y-93.98
X226.06Y-55.88
X230.822Y-113.03
X235.585Y-74.93
X240.347Y-93.98
X245.104Y-123.84
X245.11Y-55.88
X249.873Y-113.03
X254.635Y-74.93
X259.397Y-93.98
X264.16Y-55.88
X266.541Y-132.08
X268.923Y-113.03
X273.685Y-74.93
X278.447Y-93.98
X283.21Y-55.88
X287.972Y-113.03
X290.354Y-132.08
X292.735Y-74.93
X297.498Y-93.98
X302.26Y-55.88
X311.785Y-74.93
X314.166Y-113.03
X316.554Y-102.22
X318.935Y-64.12
X321.31Y-132.08
X328.454Y-93.98
X330.835Y-55.88
X335.597Y-74.93
X340.354Y-102.22
X340.36Y-113.03
X340.36Y-132.08
X342.735Y-64.12
X359.41Y-55.88
X359.41Y-74.93
X359.41Y-93.98
X359.41Y-113.03
X359.41Y-132.08
T2
G00X78.69Y-33.085
M15
G01X78.69Y-33.685
M16
G05
G00X79.05Y-39.035
M15
G01X79.05Y-39.635
M16
G05
G00X87.31Y-39.035
M15
G01X87.31Y-39.635
M16
G05
G00X87.67Y-33.085
M15
G01X87.67Y-33.685
M16
G05
T6
G00X359.01Y-33.648
M15
G01X360.31Y-33.648
M16
G05
G00X359.01Y-44.848
M15
G01X360.31Y-44.848
M16
G05
T7
G00X86.63Y-40.585
M15
G01X86.93Y-40.585
M16
G05
T0
M30
