G04 #@! TF.GenerationSoftware,KiCad,Pcbnew,(5.1.9)-1*
G04 #@! TF.CreationDate,2021-04-19T20:06:47-07:00*
G04 #@! TF.ProjectId,keyboard,6b657962-6f61-4726-942e-6b696361645f,rev?*
G04 #@! TF.SameCoordinates,Original*
G04 #@! TF.FileFunction,Soldermask,Top*
G04 #@! TF.FilePolarity,Negative*
%FSLAX46Y46*%
G04 Gerber Fmt 4.6, Leading zero omitted, Abs format (unit mm)*
G04 Created by KiCad (PCBNEW (5.1.9)-1) date 2021-04-19 20:06:47*
%MOMM*%
%LPD*%
G01*
G04 APERTURE LIST*
%ADD10C,2.200000*%
%ADD11C,4.000000*%
%ADD12C,1.700000*%
%ADD13C,3.050000*%
%ADD14C,0.650000*%
%ADD15O,0.950000X0.650000*%
%ADD16O,0.800000X1.400000*%
%ADD17C,1.524000*%
%ADD18R,1.524000X1.524000*%
%ADD19C,2.000000*%
%ADD20R,2.000000X2.000000*%
%ADD21R,3.200000X2.000000*%
G04 APERTURE END LIST*
D10*
G04 #@! TO.C,K31*
X197643750Y-127000000D03*
X191293750Y-129540000D03*
D11*
X195103750Y-132080000D03*
D12*
X190023750Y-132080000D03*
X200183750Y-132080000D03*
D11*
X145103750Y-123840000D03*
X245103750Y-123840000D03*
D13*
X245103750Y-139080000D03*
X145103750Y-139080000D03*
G04 #@! TD*
D14*
G04 #@! TO.C,J1*
X79579920Y-40585480D03*
D15*
X86779920Y-40585480D03*
D16*
X78689920Y-33385480D03*
X87669920Y-33385480D03*
X87309920Y-39335480D03*
X79049920Y-39335480D03*
G04 #@! TD*
D17*
G04 #@! TO.C,OLED1*
X313350240Y-35438080D03*
X313350240Y-37978080D03*
X313350240Y-40518080D03*
D18*
X313350240Y-43058080D03*
G04 #@! TD*
D12*
G04 #@! TO.C,K54*
X307340000Y-55880000D03*
X297180000Y-55880000D03*
D11*
X302260000Y-55880000D03*
D10*
X298450000Y-53340000D03*
X304800000Y-50800000D03*
G04 #@! TD*
G04 #@! TO.C,K1*
X76200000Y-50800000D03*
X69850000Y-53340000D03*
D11*
X73660000Y-55880000D03*
D12*
X68580000Y-55880000D03*
X78740000Y-55880000D03*
G04 #@! TD*
G04 #@! TO.C,K2*
X83502500Y-74930000D03*
X73342500Y-74930000D03*
D11*
X78422500Y-74930000D03*
D10*
X74612500Y-72390000D03*
X80962500Y-69850000D03*
G04 #@! TD*
D12*
G04 #@! TO.C,K3*
X85883750Y-93980000D03*
X75723750Y-93980000D03*
D11*
X80803750Y-93980000D03*
D10*
X76993750Y-91440000D03*
X83343750Y-88900000D03*
G04 #@! TD*
G04 #@! TO.C,K4*
X88106250Y-107950000D03*
X81756250Y-110490000D03*
D11*
X85566250Y-113030000D03*
D12*
X80486250Y-113030000D03*
X90646250Y-113030000D03*
D11*
X97466250Y-121270000D03*
X73666250Y-121270000D03*
D13*
X73666250Y-106030000D03*
X97466250Y-106030000D03*
G04 #@! TD*
D10*
G04 #@! TO.C,K5*
X78581250Y-127000000D03*
X72231250Y-129540000D03*
D11*
X76041250Y-132080000D03*
D12*
X70961250Y-132080000D03*
X81121250Y-132080000D03*
G04 #@! TD*
G04 #@! TO.C,K6*
X97790000Y-55880000D03*
X87630000Y-55880000D03*
D11*
X92710000Y-55880000D03*
D10*
X88900000Y-53340000D03*
X95250000Y-50800000D03*
G04 #@! TD*
G04 #@! TO.C,K7*
X104775000Y-69850000D03*
X98425000Y-72390000D03*
D11*
X102235000Y-74930000D03*
D12*
X97155000Y-74930000D03*
X107315000Y-74930000D03*
G04 #@! TD*
G04 #@! TO.C,K8*
X112077500Y-93980000D03*
X101917500Y-93980000D03*
D11*
X106997500Y-93980000D03*
D10*
X103187500Y-91440000D03*
X109537500Y-88900000D03*
G04 #@! TD*
G04 #@! TO.C,K9*
X102393750Y-127000000D03*
X96043750Y-129540000D03*
D11*
X99853750Y-132080000D03*
D12*
X94773750Y-132080000D03*
X104933750Y-132080000D03*
G04 #@! TD*
D10*
G04 #@! TO.C,K10*
X114300000Y-50800000D03*
X107950000Y-53340000D03*
D11*
X111760000Y-55880000D03*
D12*
X106680000Y-55880000D03*
X116840000Y-55880000D03*
G04 #@! TD*
D10*
G04 #@! TO.C,K11*
X123825000Y-69850000D03*
X117475000Y-72390000D03*
D11*
X121285000Y-74930000D03*
D12*
X116205000Y-74930000D03*
X126365000Y-74930000D03*
G04 #@! TD*
G04 #@! TO.C,K12*
X131127500Y-93980000D03*
X120967500Y-93980000D03*
D11*
X126047500Y-93980000D03*
D10*
X122237500Y-91440000D03*
X128587500Y-88900000D03*
G04 #@! TD*
G04 #@! TO.C,K13*
X119062500Y-107950000D03*
X112712500Y-110490000D03*
D11*
X116522500Y-113030000D03*
D12*
X111442500Y-113030000D03*
X121602500Y-113030000D03*
G04 #@! TD*
G04 #@! TO.C,K14*
X128746250Y-132080000D03*
X118586250Y-132080000D03*
D11*
X123666250Y-132080000D03*
D10*
X119856250Y-129540000D03*
X126206250Y-127000000D03*
G04 #@! TD*
D12*
G04 #@! TO.C,K15*
X135890000Y-55880000D03*
X125730000Y-55880000D03*
D11*
X130810000Y-55880000D03*
D10*
X127000000Y-53340000D03*
X133350000Y-50800000D03*
G04 #@! TD*
D12*
G04 #@! TO.C,K16*
X145415000Y-74930000D03*
X135255000Y-74930000D03*
D11*
X140335000Y-74930000D03*
D10*
X136525000Y-72390000D03*
X142875000Y-69850000D03*
G04 #@! TD*
D12*
G04 #@! TO.C,K17*
X150177500Y-93980000D03*
X140017500Y-93980000D03*
D11*
X145097500Y-93980000D03*
D10*
X141287500Y-91440000D03*
X147637500Y-88900000D03*
G04 #@! TD*
G04 #@! TO.C,K18*
X138112500Y-107950000D03*
X131762500Y-110490000D03*
D11*
X135572500Y-113030000D03*
D12*
X130492500Y-113030000D03*
X140652500Y-113030000D03*
G04 #@! TD*
D10*
G04 #@! TO.C,K19*
X152400000Y-50800000D03*
X146050000Y-53340000D03*
D11*
X149860000Y-55880000D03*
D12*
X144780000Y-55880000D03*
X154940000Y-55880000D03*
G04 #@! TD*
G04 #@! TO.C,K20*
X164465000Y-74930000D03*
X154305000Y-74930000D03*
D11*
X159385000Y-74930000D03*
D10*
X155575000Y-72390000D03*
X161925000Y-69850000D03*
G04 #@! TD*
D12*
G04 #@! TO.C,K21*
X169227500Y-93980000D03*
X159067500Y-93980000D03*
D11*
X164147500Y-93980000D03*
D10*
X160337500Y-91440000D03*
X166687500Y-88900000D03*
G04 #@! TD*
D12*
G04 #@! TO.C,K22*
X159702500Y-113030000D03*
X149542500Y-113030000D03*
D11*
X154622500Y-113030000D03*
D10*
X150812500Y-110490000D03*
X157162500Y-107950000D03*
G04 #@! TD*
G04 #@! TO.C,K23*
X171450000Y-50800000D03*
X165100000Y-53340000D03*
D11*
X168910000Y-55880000D03*
D12*
X163830000Y-55880000D03*
X173990000Y-55880000D03*
G04 #@! TD*
D10*
G04 #@! TO.C,K24*
X180975000Y-69850000D03*
X174625000Y-72390000D03*
D11*
X178435000Y-74930000D03*
D12*
X173355000Y-74930000D03*
X183515000Y-74930000D03*
G04 #@! TD*
D10*
G04 #@! TO.C,K25*
X185737500Y-88900000D03*
X179387500Y-91440000D03*
D11*
X183197500Y-93980000D03*
D12*
X178117500Y-93980000D03*
X188277500Y-93980000D03*
G04 #@! TD*
D10*
G04 #@! TO.C,K26*
X176212500Y-107950000D03*
X169862500Y-110490000D03*
D11*
X173672500Y-113030000D03*
D12*
X168592500Y-113030000D03*
X178752500Y-113030000D03*
G04 #@! TD*
D10*
G04 #@! TO.C,K27*
X190500000Y-50800000D03*
X184150000Y-53340000D03*
D11*
X187960000Y-55880000D03*
D12*
X182880000Y-55880000D03*
X193040000Y-55880000D03*
G04 #@! TD*
G04 #@! TO.C,K28*
X202565000Y-74930000D03*
X192405000Y-74930000D03*
D11*
X197485000Y-74930000D03*
D10*
X193675000Y-72390000D03*
X200025000Y-69850000D03*
G04 #@! TD*
D12*
G04 #@! TO.C,K29*
X207327500Y-93980000D03*
X197167500Y-93980000D03*
D11*
X202247500Y-93980000D03*
D10*
X198437500Y-91440000D03*
X204787500Y-88900000D03*
G04 #@! TD*
D12*
G04 #@! TO.C,K30*
X197802500Y-113030000D03*
X187642500Y-113030000D03*
D11*
X192722500Y-113030000D03*
D10*
X188912500Y-110490000D03*
X195262500Y-107950000D03*
G04 #@! TD*
D12*
G04 #@! TO.C,K32*
X212090000Y-55880000D03*
X201930000Y-55880000D03*
D11*
X207010000Y-55880000D03*
D10*
X203200000Y-53340000D03*
X209550000Y-50800000D03*
G04 #@! TD*
G04 #@! TO.C,K33*
X219075000Y-69850000D03*
X212725000Y-72390000D03*
D11*
X216535000Y-74930000D03*
D12*
X211455000Y-74930000D03*
X221615000Y-74930000D03*
G04 #@! TD*
D10*
G04 #@! TO.C,K34*
X223837500Y-88900000D03*
X217487500Y-91440000D03*
D11*
X221297500Y-93980000D03*
D12*
X216217500Y-93980000D03*
X226377500Y-93980000D03*
G04 #@! TD*
G04 #@! TO.C,K35*
X216852500Y-113030000D03*
X206692500Y-113030000D03*
D11*
X211772500Y-113030000D03*
D10*
X207962500Y-110490000D03*
X214312500Y-107950000D03*
G04 #@! TD*
G04 #@! TO.C,K36*
X228600000Y-50800000D03*
X222250000Y-53340000D03*
D11*
X226060000Y-55880000D03*
D12*
X220980000Y-55880000D03*
X231140000Y-55880000D03*
G04 #@! TD*
G04 #@! TO.C,K37*
X240665000Y-74930000D03*
X230505000Y-74930000D03*
D11*
X235585000Y-74930000D03*
D10*
X231775000Y-72390000D03*
X238125000Y-69850000D03*
G04 #@! TD*
D12*
G04 #@! TO.C,K38*
X245427500Y-93980000D03*
X235267500Y-93980000D03*
D11*
X240347500Y-93980000D03*
D10*
X236537500Y-91440000D03*
X242887500Y-88900000D03*
G04 #@! TD*
D12*
G04 #@! TO.C,K39*
X235902500Y-113030000D03*
X225742500Y-113030000D03*
D11*
X230822500Y-113030000D03*
D10*
X227012500Y-110490000D03*
X233362500Y-107950000D03*
G04 #@! TD*
G04 #@! TO.C,K40*
X247650000Y-50800000D03*
X241300000Y-53340000D03*
D11*
X245110000Y-55880000D03*
D12*
X240030000Y-55880000D03*
X250190000Y-55880000D03*
G04 #@! TD*
D10*
G04 #@! TO.C,K41*
X257175000Y-69850000D03*
X250825000Y-72390000D03*
D11*
X254635000Y-74930000D03*
D12*
X249555000Y-74930000D03*
X259715000Y-74930000D03*
G04 #@! TD*
D10*
G04 #@! TO.C,K42*
X261937500Y-88900000D03*
X255587500Y-91440000D03*
D11*
X259397500Y-93980000D03*
D12*
X254317500Y-93980000D03*
X264477500Y-93980000D03*
G04 #@! TD*
G04 #@! TO.C,K43*
X254952500Y-113030000D03*
X244792500Y-113030000D03*
D11*
X249872500Y-113030000D03*
D10*
X246062500Y-110490000D03*
X252412500Y-107950000D03*
G04 #@! TD*
G04 #@! TO.C,K44*
X266700000Y-50800000D03*
X260350000Y-53340000D03*
D11*
X264160000Y-55880000D03*
D12*
X259080000Y-55880000D03*
X269240000Y-55880000D03*
G04 #@! TD*
G04 #@! TO.C,K45*
X278765000Y-74930000D03*
X268605000Y-74930000D03*
D11*
X273685000Y-74930000D03*
D10*
X269875000Y-72390000D03*
X276225000Y-69850000D03*
G04 #@! TD*
D12*
G04 #@! TO.C,K46*
X283527500Y-93980000D03*
X273367500Y-93980000D03*
D11*
X278447500Y-93980000D03*
D10*
X274637500Y-91440000D03*
X280987500Y-88900000D03*
G04 #@! TD*
G04 #@! TO.C,K47*
X271462500Y-107950000D03*
X265112500Y-110490000D03*
D11*
X268922500Y-113030000D03*
D12*
X263842500Y-113030000D03*
X274002500Y-113030000D03*
G04 #@! TD*
G04 #@! TO.C,K49*
X288290000Y-55880000D03*
X278130000Y-55880000D03*
D11*
X283210000Y-55880000D03*
D10*
X279400000Y-53340000D03*
X285750000Y-50800000D03*
G04 #@! TD*
D12*
G04 #@! TO.C,K50*
X297815000Y-74930000D03*
X287655000Y-74930000D03*
D11*
X292735000Y-74930000D03*
D10*
X288925000Y-72390000D03*
X295275000Y-69850000D03*
G04 #@! TD*
D12*
G04 #@! TO.C,K51*
X302577500Y-93980000D03*
X292417500Y-93980000D03*
D11*
X297497500Y-93980000D03*
D10*
X293687500Y-91440000D03*
X300037500Y-88900000D03*
G04 #@! TD*
G04 #@! TO.C,K52*
X290512500Y-107950000D03*
X284162500Y-110490000D03*
D11*
X287972500Y-113030000D03*
D12*
X282892500Y-113030000D03*
X293052500Y-113030000D03*
G04 #@! TD*
G04 #@! TO.C,K55*
X316865000Y-74930000D03*
X306705000Y-74930000D03*
D11*
X311785000Y-74930000D03*
D10*
X307975000Y-72390000D03*
X314325000Y-69850000D03*
G04 #@! TD*
G04 #@! TO.C,K56*
X316706250Y-107950000D03*
X310356250Y-110490000D03*
D11*
X314166250Y-113030000D03*
D12*
X309086250Y-113030000D03*
X319246250Y-113030000D03*
G04 #@! TD*
D10*
G04 #@! TO.C,K57*
X323850000Y-127000000D03*
X317500000Y-129540000D03*
D11*
X321310000Y-132080000D03*
D12*
X316230000Y-132080000D03*
X326390000Y-132080000D03*
G04 #@! TD*
D10*
G04 #@! TO.C,K58*
X333375000Y-50800000D03*
X327025000Y-53340000D03*
D11*
X330835000Y-55880000D03*
D12*
X325755000Y-55880000D03*
X335915000Y-55880000D03*
D11*
X342735000Y-64120000D03*
X318935000Y-64120000D03*
D13*
X318935000Y-48880000D03*
X342735000Y-48880000D03*
G04 #@! TD*
D10*
G04 #@! TO.C,K59*
X338137500Y-69850000D03*
X331787500Y-72390000D03*
D11*
X335597500Y-74930000D03*
D12*
X330517500Y-74930000D03*
X340677500Y-74930000D03*
G04 #@! TD*
D13*
G04 #@! TO.C,K60*
X340353750Y-86980000D03*
X316553750Y-86980000D03*
D11*
X316553750Y-102220000D03*
X340353750Y-102220000D03*
D12*
X333533750Y-93980000D03*
X323373750Y-93980000D03*
D11*
X328453750Y-93980000D03*
D10*
X324643750Y-91440000D03*
X330993750Y-88900000D03*
G04 #@! TD*
G04 #@! TO.C,K61*
X342900000Y-107950000D03*
X336550000Y-110490000D03*
D11*
X340360000Y-113030000D03*
D12*
X335280000Y-113030000D03*
X345440000Y-113030000D03*
G04 #@! TD*
D10*
G04 #@! TO.C,K62*
X342900000Y-127000000D03*
X336550000Y-129540000D03*
D11*
X340360000Y-132080000D03*
D12*
X335280000Y-132080000D03*
X345440000Y-132080000D03*
G04 #@! TD*
G04 #@! TO.C,K64*
X364490000Y-74930000D03*
X354330000Y-74930000D03*
D11*
X359410000Y-74930000D03*
D10*
X355600000Y-72390000D03*
X361950000Y-69850000D03*
G04 #@! TD*
G04 #@! TO.C,K65*
X361950000Y-88900000D03*
X355600000Y-91440000D03*
D11*
X359410000Y-93980000D03*
D12*
X354330000Y-93980000D03*
X364490000Y-93980000D03*
G04 #@! TD*
G04 #@! TO.C,K66*
X364490000Y-113030000D03*
X354330000Y-113030000D03*
D11*
X359410000Y-113030000D03*
D10*
X355600000Y-110490000D03*
X361950000Y-107950000D03*
G04 #@! TD*
D12*
G04 #@! TO.C,K67*
X364490000Y-132080000D03*
X354330000Y-132080000D03*
D11*
X359410000Y-132080000D03*
D10*
X355600000Y-129540000D03*
X361950000Y-127000000D03*
G04 #@! TD*
D19*
G04 #@! TO.C,SW1*
X139898000Y-39792000D03*
X139898000Y-35292000D03*
X133398000Y-39792000D03*
X133398000Y-35292000D03*
G04 #@! TD*
D10*
G04 #@! TO.C,K53*
X292893750Y-127000000D03*
X286543750Y-129540000D03*
D11*
X290353750Y-132080000D03*
D12*
X285273750Y-132080000D03*
X295433750Y-132080000D03*
G04 #@! TD*
G04 #@! TO.C,K48*
X271621250Y-132080000D03*
X261461250Y-132080000D03*
D11*
X266541250Y-132080000D03*
D10*
X262731250Y-129540000D03*
X269081250Y-127000000D03*
G04 #@! TD*
D20*
G04 #@! TO.C,SW2*
X352160000Y-36748080D03*
D19*
X352160000Y-39248080D03*
X352160000Y-41748080D03*
D21*
X359660000Y-33648080D03*
X359660000Y-44848080D03*
D19*
X366660000Y-36748080D03*
X366660000Y-41748080D03*
G04 #@! TD*
D10*
G04 #@! TO.C,K63*
X361950000Y-50800000D03*
X355600000Y-53340000D03*
D11*
X359410000Y-55880000D03*
D12*
X354330000Y-55880000D03*
X364490000Y-55880000D03*
G04 #@! TD*
M02*
