%TF.GenerationSoftware,KiCad,Pcbnew,(5.1.9)-1*%
%TF.CreationDate,2021-04-19T19:21:17-07:00*%
%TF.ProjectId,keyboard,6b657962-6f61-4726-942e-6b696361645f,rev?*%
%TF.SameCoordinates,Original*%
%TF.FileFunction,Legend,Bot*%
%TF.FilePolarity,Positive*%
%FSLAX46Y46*%
G04 Gerber Fmt 4.6, Leading zero omitted, Abs format (unit mm)*
G04 Created by KiCad (PCBNEW (5.1.9)-1) date 2021-04-19 19:21:17*
%MOMM*%
%LPD*%
G01*
G04 APERTURE LIST*
%ADD10C,0.120000*%
%ADD11C,0.127000*%
%ADD12C,0.200000*%
%ADD13C,0.150000*%
%ADD14C,0.015000*%
G04 APERTURE END LIST*
D10*
%TO.C,D68*%
X364616900Y-37501500D02*
X362331900Y-37501500D01*
X362331900Y-37501500D02*
X362331900Y-36031500D01*
X362331900Y-36031500D02*
X364616900Y-36031500D01*
%TO.C,C8*%
X96986180Y-46794960D02*
X97267340Y-46794960D01*
X96986180Y-47814960D02*
X97267340Y-47814960D01*
%TO.C,J1*%
X86429920Y-41595480D02*
X87929920Y-41595480D01*
X87929920Y-41595480D02*
X87929920Y-34335480D01*
X78429920Y-41595480D02*
X78429920Y-34335480D01*
X78429920Y-41595480D02*
X79929920Y-41595480D01*
%TO.C,Y1*%
X99735940Y-36836513D02*
X96907513Y-39664940D01*
X97402487Y-34503060D02*
X99735940Y-36836513D01*
%TO.C,C1*%
X99052781Y-35258030D02*
X98853970Y-35059219D01*
X99774030Y-34536781D02*
X99575219Y-34337970D01*
%TO.C,C2*%
X95456030Y-39108781D02*
X95257219Y-38909970D01*
X94734781Y-39830030D02*
X94535970Y-39631219D01*
%TO.C,C3*%
X110113200Y-44119260D02*
X110394360Y-44119260D01*
X110113200Y-43099260D02*
X110394360Y-43099260D01*
%TO.C,C4*%
X97285420Y-45212540D02*
X97004260Y-45212540D01*
X97285420Y-46232540D02*
X97004260Y-46232540D01*
%TO.C,C5*%
X101059270Y-48632979D02*
X100860459Y-48831790D01*
X100338021Y-47911730D02*
X100139210Y-48110541D01*
%TO.C,C6*%
X104471122Y-48617107D02*
X104272311Y-48815918D01*
X103749873Y-47895858D02*
X103551062Y-48094669D01*
%TO.C,C7*%
X105344250Y-36040461D02*
X105145439Y-35841650D01*
X104623001Y-36761710D02*
X104424190Y-36562899D01*
%TO.C,D1*%
X81085000Y-51535000D02*
X78800000Y-51535000D01*
X81085000Y-50065000D02*
X81085000Y-51535000D01*
X78800000Y-50065000D02*
X81085000Y-50065000D01*
%TO.C,D2*%
X85940000Y-70585000D02*
X83655000Y-70585000D01*
X85940000Y-69115000D02*
X85940000Y-70585000D01*
X83655000Y-69115000D02*
X85940000Y-69115000D01*
%TO.C,D3*%
X86195000Y-88165000D02*
X88480000Y-88165000D01*
X88480000Y-88165000D02*
X88480000Y-89635000D01*
X88480000Y-89635000D02*
X86195000Y-89635000D01*
%TO.C,D4*%
X92925000Y-108685000D02*
X90640000Y-108685000D01*
X92925000Y-107215000D02*
X92925000Y-108685000D01*
X90640000Y-107215000D02*
X92925000Y-107215000D01*
%TO.C,D5*%
X81200000Y-126265000D02*
X83485000Y-126265000D01*
X83485000Y-126265000D02*
X83485000Y-127735000D01*
X83485000Y-127735000D02*
X81200000Y-127735000D01*
%TO.C,D6*%
X98000000Y-50065000D02*
X100285000Y-50065000D01*
X100285000Y-50065000D02*
X100285000Y-51535000D01*
X100285000Y-51535000D02*
X98000000Y-51535000D01*
%TO.C,D7*%
X107400000Y-69065000D02*
X109685000Y-69065000D01*
X109685000Y-69065000D02*
X109685000Y-70535000D01*
X109685000Y-70535000D02*
X107400000Y-70535000D01*
%TO.C,D8*%
X114515000Y-89635000D02*
X112230000Y-89635000D01*
X114515000Y-88165000D02*
X114515000Y-89635000D01*
X112230000Y-88165000D02*
X114515000Y-88165000D01*
%TO.C,D9*%
X105000000Y-126265000D02*
X107285000Y-126265000D01*
X107285000Y-126265000D02*
X107285000Y-127735000D01*
X107285000Y-127735000D02*
X105000000Y-127735000D01*
%TO.C,D10*%
X117000000Y-50065000D02*
X119285000Y-50065000D01*
X119285000Y-50065000D02*
X119285000Y-51535000D01*
X119285000Y-51535000D02*
X117000000Y-51535000D01*
%TO.C,D11*%
X126400000Y-69065000D02*
X128685000Y-69065000D01*
X128685000Y-69065000D02*
X128685000Y-70535000D01*
X128685000Y-70535000D02*
X126400000Y-70535000D01*
%TO.C,D12*%
X133485000Y-89535000D02*
X131200000Y-89535000D01*
X133485000Y-88065000D02*
X133485000Y-89535000D01*
X131200000Y-88065000D02*
X133485000Y-88065000D01*
%TO.C,D13*%
X124085000Y-108735000D02*
X121800000Y-108735000D01*
X124085000Y-107265000D02*
X124085000Y-108735000D01*
X121800000Y-107265000D02*
X124085000Y-107265000D01*
%TO.C,D14*%
X128800000Y-126265000D02*
X131085000Y-126265000D01*
X131085000Y-126265000D02*
X131085000Y-127735000D01*
X131085000Y-127735000D02*
X128800000Y-127735000D01*
%TO.C,D15*%
X138285000Y-51535000D02*
X136000000Y-51535000D01*
X138285000Y-50065000D02*
X138285000Y-51535000D01*
X136000000Y-50065000D02*
X138285000Y-50065000D01*
%TO.C,D16*%
X147885000Y-70535000D02*
X145600000Y-70535000D01*
X147885000Y-69065000D02*
X147885000Y-70535000D01*
X145600000Y-69065000D02*
X147885000Y-69065000D01*
%TO.C,D17*%
X150200000Y-88065000D02*
X152485000Y-88065000D01*
X152485000Y-88065000D02*
X152485000Y-89535000D01*
X152485000Y-89535000D02*
X150200000Y-89535000D01*
%TO.C,D18*%
X143085000Y-108535000D02*
X140800000Y-108535000D01*
X143085000Y-107065000D02*
X143085000Y-108535000D01*
X140800000Y-107065000D02*
X143085000Y-107065000D01*
%TO.C,D19*%
X157060000Y-51535000D02*
X154775000Y-51535000D01*
X157060000Y-50065000D02*
X157060000Y-51535000D01*
X154775000Y-50065000D02*
X157060000Y-50065000D01*
%TO.C,D20*%
X164600000Y-69065000D02*
X166885000Y-69065000D01*
X166885000Y-69065000D02*
X166885000Y-70535000D01*
X166885000Y-70535000D02*
X164600000Y-70535000D01*
%TO.C,D21*%
X171685000Y-89535000D02*
X169400000Y-89535000D01*
X171685000Y-88065000D02*
X171685000Y-89535000D01*
X169400000Y-88065000D02*
X171685000Y-88065000D01*
%TO.C,D22*%
X159800000Y-107065000D02*
X162085000Y-107065000D01*
X162085000Y-107065000D02*
X162085000Y-108535000D01*
X162085000Y-108535000D02*
X159800000Y-108535000D01*
%TO.C,D23*%
X176485000Y-51535000D02*
X174200000Y-51535000D01*
X176485000Y-50065000D02*
X176485000Y-51535000D01*
X174200000Y-50065000D02*
X176485000Y-50065000D01*
%TO.C,D24*%
X185885000Y-70535000D02*
X183600000Y-70535000D01*
X185885000Y-69065000D02*
X185885000Y-70535000D01*
X183600000Y-69065000D02*
X185885000Y-69065000D01*
%TO.C,D25*%
X190685000Y-89535000D02*
X188400000Y-89535000D01*
X190685000Y-88065000D02*
X190685000Y-89535000D01*
X188400000Y-88065000D02*
X190685000Y-88065000D01*
%TO.C,D26*%
X178800000Y-107265000D02*
X181085000Y-107265000D01*
X181085000Y-107265000D02*
X181085000Y-108735000D01*
X181085000Y-108735000D02*
X178800000Y-108735000D01*
%TO.C,D27*%
X193200000Y-50065000D02*
X195485000Y-50065000D01*
X195485000Y-50065000D02*
X195485000Y-51535000D01*
X195485000Y-51535000D02*
X193200000Y-51535000D01*
%TO.C,D28*%
X202600000Y-69065000D02*
X204885000Y-69065000D01*
X204885000Y-69065000D02*
X204885000Y-70535000D01*
X204885000Y-70535000D02*
X202600000Y-70535000D01*
%TO.C,D29*%
X207412500Y-88065000D02*
X209697500Y-88065000D01*
X209697500Y-88065000D02*
X209697500Y-89535000D01*
X209697500Y-89535000D02*
X207412500Y-89535000D01*
%TO.C,D30*%
X200085000Y-108535000D02*
X197800000Y-108535000D01*
X200085000Y-107065000D02*
X200085000Y-108535000D01*
X197800000Y-107065000D02*
X200085000Y-107065000D01*
%TO.C,D31*%
X200200000Y-126265000D02*
X202485000Y-126265000D01*
X202485000Y-126265000D02*
X202485000Y-127735000D01*
X202485000Y-127735000D02*
X200200000Y-127735000D01*
%TO.C,D32*%
X214485000Y-51535000D02*
X212200000Y-51535000D01*
X214485000Y-50065000D02*
X214485000Y-51535000D01*
X212200000Y-50065000D02*
X214485000Y-50065000D01*
%TO.C,D33*%
X221800000Y-69065000D02*
X224085000Y-69065000D01*
X224085000Y-69065000D02*
X224085000Y-70535000D01*
X224085000Y-70535000D02*
X221800000Y-70535000D01*
%TO.C,D34*%
X228685000Y-89535000D02*
X226400000Y-89535000D01*
X228685000Y-88065000D02*
X228685000Y-89535000D01*
X226400000Y-88065000D02*
X228685000Y-88065000D01*
%TO.C,D35*%
X217000000Y-107265000D02*
X219285000Y-107265000D01*
X219285000Y-107265000D02*
X219285000Y-108735000D01*
X219285000Y-108735000D02*
X217000000Y-108735000D01*
%TO.C,D36*%
X231200000Y-50065000D02*
X233485000Y-50065000D01*
X233485000Y-50065000D02*
X233485000Y-51535000D01*
X233485000Y-51535000D02*
X231200000Y-51535000D01*
%TO.C,D37*%
X243085000Y-70535000D02*
X240800000Y-70535000D01*
X243085000Y-69065000D02*
X243085000Y-70535000D01*
X240800000Y-69065000D02*
X243085000Y-69065000D01*
%TO.C,D38*%
X245600000Y-88065000D02*
X247885000Y-88065000D01*
X247885000Y-88065000D02*
X247885000Y-89535000D01*
X247885000Y-89535000D02*
X245600000Y-89535000D01*
%TO.C,D39*%
X238285000Y-108535000D02*
X236000000Y-108535000D01*
X238285000Y-107065000D02*
X238285000Y-108535000D01*
X236000000Y-107065000D02*
X238285000Y-107065000D01*
%TO.C,D40*%
X252485000Y-51535000D02*
X250200000Y-51535000D01*
X252485000Y-50065000D02*
X252485000Y-51535000D01*
X250200000Y-50065000D02*
X252485000Y-50065000D01*
%TO.C,D41*%
X259800000Y-69065000D02*
X262085000Y-69065000D01*
X262085000Y-69065000D02*
X262085000Y-70535000D01*
X262085000Y-70535000D02*
X259800000Y-70535000D01*
%TO.C,D42*%
X266885000Y-89535000D02*
X264600000Y-89535000D01*
X266885000Y-88065000D02*
X266885000Y-89535000D01*
X264600000Y-88065000D02*
X266885000Y-88065000D01*
%TO.C,D43*%
X257285000Y-108535000D02*
X255000000Y-108535000D01*
X257285000Y-107065000D02*
X257285000Y-108535000D01*
X255000000Y-107065000D02*
X257285000Y-107065000D01*
%TO.C,D53*%
X297885000Y-127735000D02*
X295600000Y-127735000D01*
X297885000Y-126265000D02*
X297885000Y-127735000D01*
X295600000Y-126265000D02*
X297885000Y-126265000D01*
%TO.C,D44*%
X269400000Y-50065000D02*
X271685000Y-50065000D01*
X271685000Y-50065000D02*
X271685000Y-51535000D01*
X271685000Y-51535000D02*
X269400000Y-51535000D01*
%TO.C,D45*%
X281085000Y-70535000D02*
X278800000Y-70535000D01*
X281085000Y-69065000D02*
X281085000Y-70535000D01*
X278800000Y-69065000D02*
X281085000Y-69065000D01*
%TO.C,D46*%
X283587500Y-88065000D02*
X285872500Y-88065000D01*
X285872500Y-88065000D02*
X285872500Y-89535000D01*
X285872500Y-89535000D02*
X283587500Y-89535000D01*
%TO.C,D47*%
X276285000Y-108735000D02*
X274000000Y-108735000D01*
X276285000Y-107265000D02*
X276285000Y-108735000D01*
X274000000Y-107265000D02*
X276285000Y-107265000D01*
%TO.C,D48*%
X271800000Y-126265000D02*
X274085000Y-126265000D01*
X274085000Y-126265000D02*
X274085000Y-127735000D01*
X274085000Y-127735000D02*
X271800000Y-127735000D01*
%TO.C,D49*%
X290685000Y-51535000D02*
X288400000Y-51535000D01*
X290685000Y-50065000D02*
X290685000Y-51535000D01*
X288400000Y-50065000D02*
X290685000Y-50065000D01*
%TO.C,D50*%
X298000000Y-69065000D02*
X300285000Y-69065000D01*
X300285000Y-69065000D02*
X300285000Y-70535000D01*
X300285000Y-70535000D02*
X298000000Y-70535000D01*
%TO.C,D51*%
X304885000Y-89535000D02*
X302600000Y-89535000D01*
X304885000Y-88065000D02*
X304885000Y-89535000D01*
X302600000Y-88065000D02*
X304885000Y-88065000D01*
%TO.C,D52*%
X293200000Y-107265000D02*
X295485000Y-107265000D01*
X295485000Y-107265000D02*
X295485000Y-108735000D01*
X295485000Y-108735000D02*
X293200000Y-108735000D01*
%TO.C,D54*%
X307400000Y-50065000D02*
X309685000Y-50065000D01*
X309685000Y-50065000D02*
X309685000Y-51535000D01*
X309685000Y-51535000D02*
X307400000Y-51535000D01*
%TO.C,D55*%
X319285000Y-70535000D02*
X317000000Y-70535000D01*
X319285000Y-69065000D02*
X319285000Y-70535000D01*
X317000000Y-69065000D02*
X319285000Y-69065000D01*
%TO.C,D56*%
X319400000Y-107265000D02*
X321685000Y-107265000D01*
X321685000Y-107265000D02*
X321685000Y-108735000D01*
X321685000Y-108735000D02*
X319400000Y-108735000D01*
%TO.C,D57*%
X328685000Y-127735000D02*
X326400000Y-127735000D01*
X328685000Y-126265000D02*
X328685000Y-127735000D01*
X326400000Y-126265000D02*
X328685000Y-126265000D01*
%TO.C,D58*%
X335950000Y-50015000D02*
X338235000Y-50015000D01*
X338235000Y-50015000D02*
X338235000Y-51485000D01*
X338235000Y-51485000D02*
X335950000Y-51485000D01*
%TO.C,D59*%
X343085000Y-70535000D02*
X340800000Y-70535000D01*
X343085000Y-69065000D02*
X343085000Y-70535000D01*
X340800000Y-69065000D02*
X343085000Y-69065000D01*
%TO.C,D60*%
X333600000Y-88065000D02*
X335885000Y-88065000D01*
X335885000Y-88065000D02*
X335885000Y-89535000D01*
X335885000Y-89535000D02*
X333600000Y-89535000D01*
%TO.C,D61*%
X347560000Y-108685000D02*
X345275000Y-108685000D01*
X347560000Y-107215000D02*
X347560000Y-108685000D01*
X345275000Y-107215000D02*
X347560000Y-107215000D01*
%TO.C,D62*%
X345600000Y-126265000D02*
X347885000Y-126265000D01*
X347885000Y-126265000D02*
X347885000Y-127735000D01*
X347885000Y-127735000D02*
X345600000Y-127735000D01*
%TO.C,D64*%
X366991000Y-70585000D02*
X364706000Y-70585000D01*
X366991000Y-69115000D02*
X366991000Y-70585000D01*
X364706000Y-69115000D02*
X366991000Y-69115000D01*
%TO.C,D65*%
X364731500Y-88165000D02*
X367016500Y-88165000D01*
X367016500Y-88165000D02*
X367016500Y-89635000D01*
X367016500Y-89635000D02*
X364731500Y-89635000D01*
%TO.C,D66*%
X366991000Y-108735000D02*
X364706000Y-108735000D01*
X366991000Y-107265000D02*
X366991000Y-108735000D01*
X364706000Y-107265000D02*
X366991000Y-107265000D01*
%TO.C,D67*%
X366991000Y-127735000D02*
X364706000Y-127735000D01*
X366991000Y-126265000D02*
X366991000Y-127735000D01*
X364706000Y-126265000D02*
X366991000Y-126265000D01*
%TO.C,SW1*%
X133148000Y-38292000D02*
X133148000Y-36792000D01*
X134398000Y-34292000D02*
X138898000Y-34292000D01*
X140148000Y-36792000D02*
X140148000Y-38292000D01*
X138898000Y-40792000D02*
X134398000Y-40792000D01*
%TO.C,R1*%
X130033500Y-35543258D02*
X130033500Y-35068742D01*
X131078500Y-35543258D02*
X131078500Y-35068742D01*
%TO.C,R2*%
X110501198Y-41486560D02*
X110026682Y-41486560D01*
X110501198Y-42531560D02*
X110026682Y-42531560D01*
%TO.C,R3*%
X76421720Y-40377342D02*
X76421720Y-40851858D01*
X77466720Y-40377342D02*
X77466720Y-40851858D01*
%TO.C,R4*%
X89953360Y-40382422D02*
X89953360Y-40856938D01*
X88908360Y-40382422D02*
X88908360Y-40856938D01*
%TO.C,R5*%
X84989438Y-43000400D02*
X84514922Y-43000400D01*
X84989438Y-44045400D02*
X84514922Y-44045400D01*
%TO.C,R6*%
X81372942Y-42997860D02*
X81847458Y-42997860D01*
X81372942Y-44042860D02*
X81847458Y-44042860D01*
D11*
%TO.C,U1*%
X102870000Y-47367747D02*
X102481091Y-46978839D01*
X97920253Y-42418000D02*
X98309161Y-42806909D01*
X107819747Y-42418000D02*
X107430839Y-42029091D01*
X102870000Y-37468253D02*
X103258909Y-37857161D01*
X102870000Y-47367747D02*
X103258909Y-46978839D01*
X97920253Y-42418000D02*
X98309161Y-42029091D01*
X107819747Y-42418000D02*
X107430839Y-42806909D01*
X102870000Y-37468253D02*
X102481091Y-37857161D01*
D12*
X101506289Y-47417245D02*
G75*
G03*
X101506289Y-47417245I-100000J0D01*
G01*
D10*
%TO.C,D63*%
X366991000Y-51535000D02*
X364706000Y-51535000D01*
X366991000Y-50065000D02*
X366991000Y-51535000D01*
X364706000Y-50065000D02*
X366991000Y-50065000D01*
%TO.C,D68*%
D13*
X365031185Y-38648880D02*
X365031185Y-37648880D01*
X364793090Y-37648880D01*
X364650233Y-37696500D01*
X364554995Y-37791738D01*
X364507376Y-37886976D01*
X364459757Y-38077452D01*
X364459757Y-38220309D01*
X364507376Y-38410785D01*
X364554995Y-38506023D01*
X364650233Y-38601261D01*
X364793090Y-38648880D01*
X365031185Y-38648880D01*
X363602614Y-37648880D02*
X363793090Y-37648880D01*
X363888328Y-37696500D01*
X363935947Y-37744119D01*
X364031185Y-37886976D01*
X364078804Y-38077452D01*
X364078804Y-38458404D01*
X364031185Y-38553642D01*
X363983566Y-38601261D01*
X363888328Y-38648880D01*
X363697852Y-38648880D01*
X363602614Y-38601261D01*
X363554995Y-38553642D01*
X363507376Y-38458404D01*
X363507376Y-38220309D01*
X363554995Y-38125071D01*
X363602614Y-38077452D01*
X363697852Y-38029833D01*
X363888328Y-38029833D01*
X363983566Y-38077452D01*
X364031185Y-38125071D01*
X364078804Y-38220309D01*
X362935947Y-38077452D02*
X363031185Y-38029833D01*
X363078804Y-37982214D01*
X363126423Y-37886976D01*
X363126423Y-37839357D01*
X363078804Y-37744119D01*
X363031185Y-37696500D01*
X362935947Y-37648880D01*
X362745471Y-37648880D01*
X362650233Y-37696500D01*
X362602614Y-37744119D01*
X362554995Y-37839357D01*
X362554995Y-37886976D01*
X362602614Y-37982214D01*
X362650233Y-38029833D01*
X362745471Y-38077452D01*
X362935947Y-38077452D01*
X363031185Y-38125071D01*
X363078804Y-38172690D01*
X363126423Y-38267928D01*
X363126423Y-38458404D01*
X363078804Y-38553642D01*
X363031185Y-38601261D01*
X362935947Y-38648880D01*
X362745471Y-38648880D01*
X362650233Y-38601261D01*
X362602614Y-38553642D01*
X362554995Y-38458404D01*
X362554995Y-38267928D01*
X362602614Y-38172690D01*
X362650233Y-38125071D01*
X362745471Y-38077452D01*
%TO.C,C8*%
X97293426Y-49092102D02*
X97341045Y-49139721D01*
X97483902Y-49187340D01*
X97579140Y-49187340D01*
X97721998Y-49139721D01*
X97817236Y-49044483D01*
X97864855Y-48949245D01*
X97912474Y-48758769D01*
X97912474Y-48615912D01*
X97864855Y-48425436D01*
X97817236Y-48330198D01*
X97721998Y-48234960D01*
X97579140Y-48187340D01*
X97483902Y-48187340D01*
X97341045Y-48234960D01*
X97293426Y-48282579D01*
X96721998Y-48615912D02*
X96817236Y-48568293D01*
X96864855Y-48520674D01*
X96912474Y-48425436D01*
X96912474Y-48377817D01*
X96864855Y-48282579D01*
X96817236Y-48234960D01*
X96721998Y-48187340D01*
X96531521Y-48187340D01*
X96436283Y-48234960D01*
X96388664Y-48282579D01*
X96341045Y-48377817D01*
X96341045Y-48425436D01*
X96388664Y-48520674D01*
X96436283Y-48568293D01*
X96531521Y-48615912D01*
X96721998Y-48615912D01*
X96817236Y-48663531D01*
X96864855Y-48711150D01*
X96912474Y-48806388D01*
X96912474Y-48996864D01*
X96864855Y-49092102D01*
X96817236Y-49139721D01*
X96721998Y-49187340D01*
X96531521Y-49187340D01*
X96436283Y-49139721D01*
X96388664Y-49092102D01*
X96341045Y-48996864D01*
X96341045Y-48806388D01*
X96388664Y-48711150D01*
X96436283Y-48663531D01*
X96531521Y-48615912D01*
%TO.C,J1*%
X83513253Y-42037860D02*
X83513253Y-42752146D01*
X83560872Y-42895003D01*
X83656110Y-42990241D01*
X83798967Y-43037860D01*
X83894205Y-43037860D01*
X82513253Y-43037860D02*
X83084681Y-43037860D01*
X82798967Y-43037860D02*
X82798967Y-42037860D01*
X82894205Y-42180718D01*
X82989443Y-42275956D01*
X83084681Y-42323575D01*
%TO.C,Y1*%
X95742469Y-34998034D02*
X96079187Y-35334752D01*
X95607782Y-34391943D02*
X95742469Y-34998034D01*
X95136378Y-34863347D01*
X95237393Y-36176545D02*
X95641454Y-35772484D01*
X95439423Y-35974515D02*
X94732317Y-35267408D01*
X94900675Y-35301080D01*
X95035362Y-35301080D01*
X95136378Y-35267408D01*
%TO.C,C1*%
X100190475Y-34157226D02*
X100190475Y-34224569D01*
X100257819Y-34359256D01*
X100325163Y-34426600D01*
X100459850Y-34493943D01*
X100594537Y-34493943D01*
X100695552Y-34460272D01*
X100863911Y-34359256D01*
X100964926Y-34258241D01*
X101065941Y-34089882D01*
X101099613Y-33988867D01*
X101099613Y-33854180D01*
X101032269Y-33719493D01*
X100964926Y-33652149D01*
X100830239Y-33584806D01*
X100762895Y-33584806D01*
X99449697Y-33551134D02*
X99853758Y-33955195D01*
X99651727Y-33753165D02*
X100358834Y-33046058D01*
X100325163Y-33214417D01*
X100325163Y-33349104D01*
X100358834Y-33450119D01*
%TO.C,C2*%
X95872475Y-38729226D02*
X95872475Y-38796569D01*
X95939819Y-38931256D01*
X96007163Y-38998600D01*
X96141850Y-39065943D01*
X96276537Y-39065943D01*
X96377552Y-39032272D01*
X96545911Y-38931256D01*
X96646926Y-38830241D01*
X96747941Y-38661882D01*
X96781613Y-38560867D01*
X96781613Y-38426180D01*
X96714269Y-38291493D01*
X96646926Y-38224149D01*
X96512239Y-38156806D01*
X96444895Y-38156806D01*
X96175521Y-37887432D02*
X96175521Y-37820088D01*
X96141850Y-37719073D01*
X95973491Y-37550714D01*
X95872475Y-37517043D01*
X95805132Y-37517043D01*
X95704117Y-37550714D01*
X95636773Y-37618058D01*
X95569430Y-37752745D01*
X95569430Y-38560867D01*
X95131697Y-38123134D01*
%TO.C,C3*%
X110420446Y-45396402D02*
X110468065Y-45444021D01*
X110610922Y-45491640D01*
X110706160Y-45491640D01*
X110849018Y-45444021D01*
X110944256Y-45348783D01*
X110991875Y-45253545D01*
X111039494Y-45063069D01*
X111039494Y-44920212D01*
X110991875Y-44729736D01*
X110944256Y-44634498D01*
X110849018Y-44539260D01*
X110706160Y-44491640D01*
X110610922Y-44491640D01*
X110468065Y-44539260D01*
X110420446Y-44586879D01*
X110087113Y-44491640D02*
X109468065Y-44491640D01*
X109801399Y-44872593D01*
X109658541Y-44872593D01*
X109563303Y-44920212D01*
X109515684Y-44967831D01*
X109468065Y-45063069D01*
X109468065Y-45301164D01*
X109515684Y-45396402D01*
X109563303Y-45444021D01*
X109658541Y-45491640D01*
X109944256Y-45491640D01*
X110039494Y-45444021D01*
X110087113Y-45396402D01*
%TO.C,C4*%
X97311506Y-44649682D02*
X97359125Y-44697301D01*
X97501982Y-44744920D01*
X97597220Y-44744920D01*
X97740078Y-44697301D01*
X97835316Y-44602063D01*
X97882935Y-44506825D01*
X97930554Y-44316349D01*
X97930554Y-44173492D01*
X97882935Y-43983016D01*
X97835316Y-43887778D01*
X97740078Y-43792540D01*
X97597220Y-43744920D01*
X97501982Y-43744920D01*
X97359125Y-43792540D01*
X97311506Y-43840159D01*
X96454363Y-44078254D02*
X96454363Y-44744920D01*
X96692459Y-43697301D02*
X96930554Y-44411587D01*
X96311506Y-44411587D01*
%TO.C,C5*%
X99958466Y-47495284D02*
X100025809Y-47495284D01*
X100160496Y-47427940D01*
X100227840Y-47360597D01*
X100295183Y-47225909D01*
X100295183Y-47091222D01*
X100261512Y-46990207D01*
X100160496Y-46821848D01*
X100059481Y-46720833D01*
X99891122Y-46619818D01*
X99790107Y-46586146D01*
X99655420Y-46586146D01*
X99520733Y-46653490D01*
X99453389Y-46720833D01*
X99386046Y-46855520D01*
X99386046Y-46922864D01*
X98678939Y-47495284D02*
X99015657Y-47158566D01*
X99386046Y-47461612D01*
X99318702Y-47461612D01*
X99217687Y-47495284D01*
X99049328Y-47663642D01*
X99015657Y-47764658D01*
X99015657Y-47832001D01*
X99049328Y-47933016D01*
X99217687Y-48101375D01*
X99318702Y-48135047D01*
X99386046Y-48135047D01*
X99487061Y-48101375D01*
X99655420Y-47933016D01*
X99689092Y-47832001D01*
X99689092Y-47764658D01*
%TO.C,C6*%
X103370318Y-47479412D02*
X103437661Y-47479412D01*
X103572348Y-47412068D01*
X103639692Y-47344725D01*
X103707035Y-47210037D01*
X103707035Y-47075350D01*
X103673364Y-46974335D01*
X103572348Y-46805976D01*
X103471333Y-46704961D01*
X103302974Y-46603946D01*
X103201959Y-46570274D01*
X103067272Y-46570274D01*
X102932585Y-46637618D01*
X102865241Y-46704961D01*
X102797898Y-46839648D01*
X102797898Y-46906992D01*
X102124463Y-47445740D02*
X102259150Y-47311053D01*
X102360165Y-47277381D01*
X102427509Y-47277381D01*
X102595867Y-47311053D01*
X102764226Y-47412068D01*
X103033600Y-47681442D01*
X103067272Y-47782457D01*
X103067272Y-47849801D01*
X103033600Y-47950816D01*
X102898913Y-48085503D01*
X102797898Y-48119175D01*
X102730554Y-48119175D01*
X102629539Y-48085503D01*
X102461180Y-47917144D01*
X102427509Y-47816129D01*
X102427509Y-47748786D01*
X102461180Y-47647770D01*
X102595867Y-47513083D01*
X102696883Y-47479412D01*
X102764226Y-47479412D01*
X102865241Y-47513083D01*
%TO.C,C7*%
X105760695Y-35660906D02*
X105760695Y-35728249D01*
X105828039Y-35862936D01*
X105895383Y-35930280D01*
X106030070Y-35997623D01*
X106164757Y-35997623D01*
X106265772Y-35963952D01*
X106434131Y-35862936D01*
X106535146Y-35761921D01*
X106636161Y-35593562D01*
X106669833Y-35492547D01*
X106669833Y-35357860D01*
X106602489Y-35223173D01*
X106535146Y-35155829D01*
X106400459Y-35088486D01*
X106333115Y-35088486D01*
X106164757Y-34785440D02*
X105693352Y-34314036D01*
X105289291Y-35324188D01*
%TO.C,D1*%
X80338095Y-49822380D02*
X80338095Y-48822380D01*
X80100000Y-48822380D01*
X79957142Y-48870000D01*
X79861904Y-48965238D01*
X79814285Y-49060476D01*
X79766666Y-49250952D01*
X79766666Y-49393809D01*
X79814285Y-49584285D01*
X79861904Y-49679523D01*
X79957142Y-49774761D01*
X80100000Y-49822380D01*
X80338095Y-49822380D01*
X78814285Y-49822380D02*
X79385714Y-49822380D01*
X79100000Y-49822380D02*
X79100000Y-48822380D01*
X79195238Y-48965238D01*
X79290476Y-49060476D01*
X79385714Y-49108095D01*
%TO.C,D2*%
X85193095Y-68872380D02*
X85193095Y-67872380D01*
X84955000Y-67872380D01*
X84812142Y-67920000D01*
X84716904Y-68015238D01*
X84669285Y-68110476D01*
X84621666Y-68300952D01*
X84621666Y-68443809D01*
X84669285Y-68634285D01*
X84716904Y-68729523D01*
X84812142Y-68824761D01*
X84955000Y-68872380D01*
X85193095Y-68872380D01*
X84240714Y-67967619D02*
X84193095Y-67920000D01*
X84097857Y-67872380D01*
X83859761Y-67872380D01*
X83764523Y-67920000D01*
X83716904Y-67967619D01*
X83669285Y-68062857D01*
X83669285Y-68158095D01*
X83716904Y-68300952D01*
X84288333Y-68872380D01*
X83669285Y-68872380D01*
%TO.C,D3*%
X87733095Y-87922380D02*
X87733095Y-86922380D01*
X87495000Y-86922380D01*
X87352142Y-86970000D01*
X87256904Y-87065238D01*
X87209285Y-87160476D01*
X87161666Y-87350952D01*
X87161666Y-87493809D01*
X87209285Y-87684285D01*
X87256904Y-87779523D01*
X87352142Y-87874761D01*
X87495000Y-87922380D01*
X87733095Y-87922380D01*
X86828333Y-86922380D02*
X86209285Y-86922380D01*
X86542619Y-87303333D01*
X86399761Y-87303333D01*
X86304523Y-87350952D01*
X86256904Y-87398571D01*
X86209285Y-87493809D01*
X86209285Y-87731904D01*
X86256904Y-87827142D01*
X86304523Y-87874761D01*
X86399761Y-87922380D01*
X86685476Y-87922380D01*
X86780714Y-87874761D01*
X86828333Y-87827142D01*
%TO.C,D4*%
X92178095Y-106972380D02*
X92178095Y-105972380D01*
X91940000Y-105972380D01*
X91797142Y-106020000D01*
X91701904Y-106115238D01*
X91654285Y-106210476D01*
X91606666Y-106400952D01*
X91606666Y-106543809D01*
X91654285Y-106734285D01*
X91701904Y-106829523D01*
X91797142Y-106924761D01*
X91940000Y-106972380D01*
X92178095Y-106972380D01*
X90749523Y-106305714D02*
X90749523Y-106972380D01*
X90987619Y-105924761D02*
X91225714Y-106639047D01*
X90606666Y-106639047D01*
%TO.C,D5*%
X82738095Y-126022380D02*
X82738095Y-125022380D01*
X82500000Y-125022380D01*
X82357142Y-125070000D01*
X82261904Y-125165238D01*
X82214285Y-125260476D01*
X82166666Y-125450952D01*
X82166666Y-125593809D01*
X82214285Y-125784285D01*
X82261904Y-125879523D01*
X82357142Y-125974761D01*
X82500000Y-126022380D01*
X82738095Y-126022380D01*
X81261904Y-125022380D02*
X81738095Y-125022380D01*
X81785714Y-125498571D01*
X81738095Y-125450952D01*
X81642857Y-125403333D01*
X81404761Y-125403333D01*
X81309523Y-125450952D01*
X81261904Y-125498571D01*
X81214285Y-125593809D01*
X81214285Y-125831904D01*
X81261904Y-125927142D01*
X81309523Y-125974761D01*
X81404761Y-126022380D01*
X81642857Y-126022380D01*
X81738095Y-125974761D01*
X81785714Y-125927142D01*
%TO.C,D6*%
X99538095Y-49822380D02*
X99538095Y-48822380D01*
X99300000Y-48822380D01*
X99157142Y-48870000D01*
X99061904Y-48965238D01*
X99014285Y-49060476D01*
X98966666Y-49250952D01*
X98966666Y-49393809D01*
X99014285Y-49584285D01*
X99061904Y-49679523D01*
X99157142Y-49774761D01*
X99300000Y-49822380D01*
X99538095Y-49822380D01*
X98109523Y-48822380D02*
X98300000Y-48822380D01*
X98395238Y-48870000D01*
X98442857Y-48917619D01*
X98538095Y-49060476D01*
X98585714Y-49250952D01*
X98585714Y-49631904D01*
X98538095Y-49727142D01*
X98490476Y-49774761D01*
X98395238Y-49822380D01*
X98204761Y-49822380D01*
X98109523Y-49774761D01*
X98061904Y-49727142D01*
X98014285Y-49631904D01*
X98014285Y-49393809D01*
X98061904Y-49298571D01*
X98109523Y-49250952D01*
X98204761Y-49203333D01*
X98395238Y-49203333D01*
X98490476Y-49250952D01*
X98538095Y-49298571D01*
X98585714Y-49393809D01*
%TO.C,D7*%
X108938095Y-68822380D02*
X108938095Y-67822380D01*
X108700000Y-67822380D01*
X108557142Y-67870000D01*
X108461904Y-67965238D01*
X108414285Y-68060476D01*
X108366666Y-68250952D01*
X108366666Y-68393809D01*
X108414285Y-68584285D01*
X108461904Y-68679523D01*
X108557142Y-68774761D01*
X108700000Y-68822380D01*
X108938095Y-68822380D01*
X108033333Y-67822380D02*
X107366666Y-67822380D01*
X107795238Y-68822380D01*
%TO.C,D8*%
X113768095Y-87922380D02*
X113768095Y-86922380D01*
X113530000Y-86922380D01*
X113387142Y-86970000D01*
X113291904Y-87065238D01*
X113244285Y-87160476D01*
X113196666Y-87350952D01*
X113196666Y-87493809D01*
X113244285Y-87684285D01*
X113291904Y-87779523D01*
X113387142Y-87874761D01*
X113530000Y-87922380D01*
X113768095Y-87922380D01*
X112625238Y-87350952D02*
X112720476Y-87303333D01*
X112768095Y-87255714D01*
X112815714Y-87160476D01*
X112815714Y-87112857D01*
X112768095Y-87017619D01*
X112720476Y-86970000D01*
X112625238Y-86922380D01*
X112434761Y-86922380D01*
X112339523Y-86970000D01*
X112291904Y-87017619D01*
X112244285Y-87112857D01*
X112244285Y-87160476D01*
X112291904Y-87255714D01*
X112339523Y-87303333D01*
X112434761Y-87350952D01*
X112625238Y-87350952D01*
X112720476Y-87398571D01*
X112768095Y-87446190D01*
X112815714Y-87541428D01*
X112815714Y-87731904D01*
X112768095Y-87827142D01*
X112720476Y-87874761D01*
X112625238Y-87922380D01*
X112434761Y-87922380D01*
X112339523Y-87874761D01*
X112291904Y-87827142D01*
X112244285Y-87731904D01*
X112244285Y-87541428D01*
X112291904Y-87446190D01*
X112339523Y-87398571D01*
X112434761Y-87350952D01*
%TO.C,D9*%
X106538095Y-126022380D02*
X106538095Y-125022380D01*
X106300000Y-125022380D01*
X106157142Y-125070000D01*
X106061904Y-125165238D01*
X106014285Y-125260476D01*
X105966666Y-125450952D01*
X105966666Y-125593809D01*
X106014285Y-125784285D01*
X106061904Y-125879523D01*
X106157142Y-125974761D01*
X106300000Y-126022380D01*
X106538095Y-126022380D01*
X105490476Y-126022380D02*
X105300000Y-126022380D01*
X105204761Y-125974761D01*
X105157142Y-125927142D01*
X105061904Y-125784285D01*
X105014285Y-125593809D01*
X105014285Y-125212857D01*
X105061904Y-125117619D01*
X105109523Y-125070000D01*
X105204761Y-125022380D01*
X105395238Y-125022380D01*
X105490476Y-125070000D01*
X105538095Y-125117619D01*
X105585714Y-125212857D01*
X105585714Y-125450952D01*
X105538095Y-125546190D01*
X105490476Y-125593809D01*
X105395238Y-125641428D01*
X105204761Y-125641428D01*
X105109523Y-125593809D01*
X105061904Y-125546190D01*
X105014285Y-125450952D01*
%TO.C,D10*%
X119014285Y-49822380D02*
X119014285Y-48822380D01*
X118776190Y-48822380D01*
X118633333Y-48870000D01*
X118538095Y-48965238D01*
X118490476Y-49060476D01*
X118442857Y-49250952D01*
X118442857Y-49393809D01*
X118490476Y-49584285D01*
X118538095Y-49679523D01*
X118633333Y-49774761D01*
X118776190Y-49822380D01*
X119014285Y-49822380D01*
X117490476Y-49822380D02*
X118061904Y-49822380D01*
X117776190Y-49822380D02*
X117776190Y-48822380D01*
X117871428Y-48965238D01*
X117966666Y-49060476D01*
X118061904Y-49108095D01*
X116871428Y-48822380D02*
X116776190Y-48822380D01*
X116680952Y-48870000D01*
X116633333Y-48917619D01*
X116585714Y-49012857D01*
X116538095Y-49203333D01*
X116538095Y-49441428D01*
X116585714Y-49631904D01*
X116633333Y-49727142D01*
X116680952Y-49774761D01*
X116776190Y-49822380D01*
X116871428Y-49822380D01*
X116966666Y-49774761D01*
X117014285Y-49727142D01*
X117061904Y-49631904D01*
X117109523Y-49441428D01*
X117109523Y-49203333D01*
X117061904Y-49012857D01*
X117014285Y-48917619D01*
X116966666Y-48870000D01*
X116871428Y-48822380D01*
%TO.C,D11*%
X128414285Y-68822380D02*
X128414285Y-67822380D01*
X128176190Y-67822380D01*
X128033333Y-67870000D01*
X127938095Y-67965238D01*
X127890476Y-68060476D01*
X127842857Y-68250952D01*
X127842857Y-68393809D01*
X127890476Y-68584285D01*
X127938095Y-68679523D01*
X128033333Y-68774761D01*
X128176190Y-68822380D01*
X128414285Y-68822380D01*
X126890476Y-68822380D02*
X127461904Y-68822380D01*
X127176190Y-68822380D02*
X127176190Y-67822380D01*
X127271428Y-67965238D01*
X127366666Y-68060476D01*
X127461904Y-68108095D01*
X125938095Y-68822380D02*
X126509523Y-68822380D01*
X126223809Y-68822380D02*
X126223809Y-67822380D01*
X126319047Y-67965238D01*
X126414285Y-68060476D01*
X126509523Y-68108095D01*
%TO.C,D12*%
X133214285Y-87822380D02*
X133214285Y-86822380D01*
X132976190Y-86822380D01*
X132833333Y-86870000D01*
X132738095Y-86965238D01*
X132690476Y-87060476D01*
X132642857Y-87250952D01*
X132642857Y-87393809D01*
X132690476Y-87584285D01*
X132738095Y-87679523D01*
X132833333Y-87774761D01*
X132976190Y-87822380D01*
X133214285Y-87822380D01*
X131690476Y-87822380D02*
X132261904Y-87822380D01*
X131976190Y-87822380D02*
X131976190Y-86822380D01*
X132071428Y-86965238D01*
X132166666Y-87060476D01*
X132261904Y-87108095D01*
X131309523Y-86917619D02*
X131261904Y-86870000D01*
X131166666Y-86822380D01*
X130928571Y-86822380D01*
X130833333Y-86870000D01*
X130785714Y-86917619D01*
X130738095Y-87012857D01*
X130738095Y-87108095D01*
X130785714Y-87250952D01*
X131357142Y-87822380D01*
X130738095Y-87822380D01*
%TO.C,D13*%
X123814285Y-107022380D02*
X123814285Y-106022380D01*
X123576190Y-106022380D01*
X123433333Y-106070000D01*
X123338095Y-106165238D01*
X123290476Y-106260476D01*
X123242857Y-106450952D01*
X123242857Y-106593809D01*
X123290476Y-106784285D01*
X123338095Y-106879523D01*
X123433333Y-106974761D01*
X123576190Y-107022380D01*
X123814285Y-107022380D01*
X122290476Y-107022380D02*
X122861904Y-107022380D01*
X122576190Y-107022380D02*
X122576190Y-106022380D01*
X122671428Y-106165238D01*
X122766666Y-106260476D01*
X122861904Y-106308095D01*
X121957142Y-106022380D02*
X121338095Y-106022380D01*
X121671428Y-106403333D01*
X121528571Y-106403333D01*
X121433333Y-106450952D01*
X121385714Y-106498571D01*
X121338095Y-106593809D01*
X121338095Y-106831904D01*
X121385714Y-106927142D01*
X121433333Y-106974761D01*
X121528571Y-107022380D01*
X121814285Y-107022380D01*
X121909523Y-106974761D01*
X121957142Y-106927142D01*
%TO.C,D14*%
X130814285Y-126022380D02*
X130814285Y-125022380D01*
X130576190Y-125022380D01*
X130433333Y-125070000D01*
X130338095Y-125165238D01*
X130290476Y-125260476D01*
X130242857Y-125450952D01*
X130242857Y-125593809D01*
X130290476Y-125784285D01*
X130338095Y-125879523D01*
X130433333Y-125974761D01*
X130576190Y-126022380D01*
X130814285Y-126022380D01*
X129290476Y-126022380D02*
X129861904Y-126022380D01*
X129576190Y-126022380D02*
X129576190Y-125022380D01*
X129671428Y-125165238D01*
X129766666Y-125260476D01*
X129861904Y-125308095D01*
X128433333Y-125355714D02*
X128433333Y-126022380D01*
X128671428Y-124974761D02*
X128909523Y-125689047D01*
X128290476Y-125689047D01*
%TO.C,D15*%
X138014285Y-49822380D02*
X138014285Y-48822380D01*
X137776190Y-48822380D01*
X137633333Y-48870000D01*
X137538095Y-48965238D01*
X137490476Y-49060476D01*
X137442857Y-49250952D01*
X137442857Y-49393809D01*
X137490476Y-49584285D01*
X137538095Y-49679523D01*
X137633333Y-49774761D01*
X137776190Y-49822380D01*
X138014285Y-49822380D01*
X136490476Y-49822380D02*
X137061904Y-49822380D01*
X136776190Y-49822380D02*
X136776190Y-48822380D01*
X136871428Y-48965238D01*
X136966666Y-49060476D01*
X137061904Y-49108095D01*
X135585714Y-48822380D02*
X136061904Y-48822380D01*
X136109523Y-49298571D01*
X136061904Y-49250952D01*
X135966666Y-49203333D01*
X135728571Y-49203333D01*
X135633333Y-49250952D01*
X135585714Y-49298571D01*
X135538095Y-49393809D01*
X135538095Y-49631904D01*
X135585714Y-49727142D01*
X135633333Y-49774761D01*
X135728571Y-49822380D01*
X135966666Y-49822380D01*
X136061904Y-49774761D01*
X136109523Y-49727142D01*
%TO.C,D16*%
X147614285Y-68822380D02*
X147614285Y-67822380D01*
X147376190Y-67822380D01*
X147233333Y-67870000D01*
X147138095Y-67965238D01*
X147090476Y-68060476D01*
X147042857Y-68250952D01*
X147042857Y-68393809D01*
X147090476Y-68584285D01*
X147138095Y-68679523D01*
X147233333Y-68774761D01*
X147376190Y-68822380D01*
X147614285Y-68822380D01*
X146090476Y-68822380D02*
X146661904Y-68822380D01*
X146376190Y-68822380D02*
X146376190Y-67822380D01*
X146471428Y-67965238D01*
X146566666Y-68060476D01*
X146661904Y-68108095D01*
X145233333Y-67822380D02*
X145423809Y-67822380D01*
X145519047Y-67870000D01*
X145566666Y-67917619D01*
X145661904Y-68060476D01*
X145709523Y-68250952D01*
X145709523Y-68631904D01*
X145661904Y-68727142D01*
X145614285Y-68774761D01*
X145519047Y-68822380D01*
X145328571Y-68822380D01*
X145233333Y-68774761D01*
X145185714Y-68727142D01*
X145138095Y-68631904D01*
X145138095Y-68393809D01*
X145185714Y-68298571D01*
X145233333Y-68250952D01*
X145328571Y-68203333D01*
X145519047Y-68203333D01*
X145614285Y-68250952D01*
X145661904Y-68298571D01*
X145709523Y-68393809D01*
%TO.C,D17*%
X152214285Y-87822380D02*
X152214285Y-86822380D01*
X151976190Y-86822380D01*
X151833333Y-86870000D01*
X151738095Y-86965238D01*
X151690476Y-87060476D01*
X151642857Y-87250952D01*
X151642857Y-87393809D01*
X151690476Y-87584285D01*
X151738095Y-87679523D01*
X151833333Y-87774761D01*
X151976190Y-87822380D01*
X152214285Y-87822380D01*
X150690476Y-87822380D02*
X151261904Y-87822380D01*
X150976190Y-87822380D02*
X150976190Y-86822380D01*
X151071428Y-86965238D01*
X151166666Y-87060476D01*
X151261904Y-87108095D01*
X150357142Y-86822380D02*
X149690476Y-86822380D01*
X150119047Y-87822380D01*
%TO.C,D18*%
X142814285Y-106822380D02*
X142814285Y-105822380D01*
X142576190Y-105822380D01*
X142433333Y-105870000D01*
X142338095Y-105965238D01*
X142290476Y-106060476D01*
X142242857Y-106250952D01*
X142242857Y-106393809D01*
X142290476Y-106584285D01*
X142338095Y-106679523D01*
X142433333Y-106774761D01*
X142576190Y-106822380D01*
X142814285Y-106822380D01*
X141290476Y-106822380D02*
X141861904Y-106822380D01*
X141576190Y-106822380D02*
X141576190Y-105822380D01*
X141671428Y-105965238D01*
X141766666Y-106060476D01*
X141861904Y-106108095D01*
X140719047Y-106250952D02*
X140814285Y-106203333D01*
X140861904Y-106155714D01*
X140909523Y-106060476D01*
X140909523Y-106012857D01*
X140861904Y-105917619D01*
X140814285Y-105870000D01*
X140719047Y-105822380D01*
X140528571Y-105822380D01*
X140433333Y-105870000D01*
X140385714Y-105917619D01*
X140338095Y-106012857D01*
X140338095Y-106060476D01*
X140385714Y-106155714D01*
X140433333Y-106203333D01*
X140528571Y-106250952D01*
X140719047Y-106250952D01*
X140814285Y-106298571D01*
X140861904Y-106346190D01*
X140909523Y-106441428D01*
X140909523Y-106631904D01*
X140861904Y-106727142D01*
X140814285Y-106774761D01*
X140719047Y-106822380D01*
X140528571Y-106822380D01*
X140433333Y-106774761D01*
X140385714Y-106727142D01*
X140338095Y-106631904D01*
X140338095Y-106441428D01*
X140385714Y-106346190D01*
X140433333Y-106298571D01*
X140528571Y-106250952D01*
%TO.C,D19*%
X156789285Y-49822380D02*
X156789285Y-48822380D01*
X156551190Y-48822380D01*
X156408333Y-48870000D01*
X156313095Y-48965238D01*
X156265476Y-49060476D01*
X156217857Y-49250952D01*
X156217857Y-49393809D01*
X156265476Y-49584285D01*
X156313095Y-49679523D01*
X156408333Y-49774761D01*
X156551190Y-49822380D01*
X156789285Y-49822380D01*
X155265476Y-49822380D02*
X155836904Y-49822380D01*
X155551190Y-49822380D02*
X155551190Y-48822380D01*
X155646428Y-48965238D01*
X155741666Y-49060476D01*
X155836904Y-49108095D01*
X154789285Y-49822380D02*
X154598809Y-49822380D01*
X154503571Y-49774761D01*
X154455952Y-49727142D01*
X154360714Y-49584285D01*
X154313095Y-49393809D01*
X154313095Y-49012857D01*
X154360714Y-48917619D01*
X154408333Y-48870000D01*
X154503571Y-48822380D01*
X154694047Y-48822380D01*
X154789285Y-48870000D01*
X154836904Y-48917619D01*
X154884523Y-49012857D01*
X154884523Y-49250952D01*
X154836904Y-49346190D01*
X154789285Y-49393809D01*
X154694047Y-49441428D01*
X154503571Y-49441428D01*
X154408333Y-49393809D01*
X154360714Y-49346190D01*
X154313095Y-49250952D01*
%TO.C,D20*%
X166614285Y-68822380D02*
X166614285Y-67822380D01*
X166376190Y-67822380D01*
X166233333Y-67870000D01*
X166138095Y-67965238D01*
X166090476Y-68060476D01*
X166042857Y-68250952D01*
X166042857Y-68393809D01*
X166090476Y-68584285D01*
X166138095Y-68679523D01*
X166233333Y-68774761D01*
X166376190Y-68822380D01*
X166614285Y-68822380D01*
X165661904Y-67917619D02*
X165614285Y-67870000D01*
X165519047Y-67822380D01*
X165280952Y-67822380D01*
X165185714Y-67870000D01*
X165138095Y-67917619D01*
X165090476Y-68012857D01*
X165090476Y-68108095D01*
X165138095Y-68250952D01*
X165709523Y-68822380D01*
X165090476Y-68822380D01*
X164471428Y-67822380D02*
X164376190Y-67822380D01*
X164280952Y-67870000D01*
X164233333Y-67917619D01*
X164185714Y-68012857D01*
X164138095Y-68203333D01*
X164138095Y-68441428D01*
X164185714Y-68631904D01*
X164233333Y-68727142D01*
X164280952Y-68774761D01*
X164376190Y-68822380D01*
X164471428Y-68822380D01*
X164566666Y-68774761D01*
X164614285Y-68727142D01*
X164661904Y-68631904D01*
X164709523Y-68441428D01*
X164709523Y-68203333D01*
X164661904Y-68012857D01*
X164614285Y-67917619D01*
X164566666Y-67870000D01*
X164471428Y-67822380D01*
%TO.C,D21*%
X171414285Y-87822380D02*
X171414285Y-86822380D01*
X171176190Y-86822380D01*
X171033333Y-86870000D01*
X170938095Y-86965238D01*
X170890476Y-87060476D01*
X170842857Y-87250952D01*
X170842857Y-87393809D01*
X170890476Y-87584285D01*
X170938095Y-87679523D01*
X171033333Y-87774761D01*
X171176190Y-87822380D01*
X171414285Y-87822380D01*
X170461904Y-86917619D02*
X170414285Y-86870000D01*
X170319047Y-86822380D01*
X170080952Y-86822380D01*
X169985714Y-86870000D01*
X169938095Y-86917619D01*
X169890476Y-87012857D01*
X169890476Y-87108095D01*
X169938095Y-87250952D01*
X170509523Y-87822380D01*
X169890476Y-87822380D01*
X168938095Y-87822380D02*
X169509523Y-87822380D01*
X169223809Y-87822380D02*
X169223809Y-86822380D01*
X169319047Y-86965238D01*
X169414285Y-87060476D01*
X169509523Y-87108095D01*
%TO.C,D22*%
X161814285Y-106822380D02*
X161814285Y-105822380D01*
X161576190Y-105822380D01*
X161433333Y-105870000D01*
X161338095Y-105965238D01*
X161290476Y-106060476D01*
X161242857Y-106250952D01*
X161242857Y-106393809D01*
X161290476Y-106584285D01*
X161338095Y-106679523D01*
X161433333Y-106774761D01*
X161576190Y-106822380D01*
X161814285Y-106822380D01*
X160861904Y-105917619D02*
X160814285Y-105870000D01*
X160719047Y-105822380D01*
X160480952Y-105822380D01*
X160385714Y-105870000D01*
X160338095Y-105917619D01*
X160290476Y-106012857D01*
X160290476Y-106108095D01*
X160338095Y-106250952D01*
X160909523Y-106822380D01*
X160290476Y-106822380D01*
X159909523Y-105917619D02*
X159861904Y-105870000D01*
X159766666Y-105822380D01*
X159528571Y-105822380D01*
X159433333Y-105870000D01*
X159385714Y-105917619D01*
X159338095Y-106012857D01*
X159338095Y-106108095D01*
X159385714Y-106250952D01*
X159957142Y-106822380D01*
X159338095Y-106822380D01*
%TO.C,D23*%
X176214285Y-49822380D02*
X176214285Y-48822380D01*
X175976190Y-48822380D01*
X175833333Y-48870000D01*
X175738095Y-48965238D01*
X175690476Y-49060476D01*
X175642857Y-49250952D01*
X175642857Y-49393809D01*
X175690476Y-49584285D01*
X175738095Y-49679523D01*
X175833333Y-49774761D01*
X175976190Y-49822380D01*
X176214285Y-49822380D01*
X175261904Y-48917619D02*
X175214285Y-48870000D01*
X175119047Y-48822380D01*
X174880952Y-48822380D01*
X174785714Y-48870000D01*
X174738095Y-48917619D01*
X174690476Y-49012857D01*
X174690476Y-49108095D01*
X174738095Y-49250952D01*
X175309523Y-49822380D01*
X174690476Y-49822380D01*
X174357142Y-48822380D02*
X173738095Y-48822380D01*
X174071428Y-49203333D01*
X173928571Y-49203333D01*
X173833333Y-49250952D01*
X173785714Y-49298571D01*
X173738095Y-49393809D01*
X173738095Y-49631904D01*
X173785714Y-49727142D01*
X173833333Y-49774761D01*
X173928571Y-49822380D01*
X174214285Y-49822380D01*
X174309523Y-49774761D01*
X174357142Y-49727142D01*
%TO.C,D24*%
X185614285Y-68822380D02*
X185614285Y-67822380D01*
X185376190Y-67822380D01*
X185233333Y-67870000D01*
X185138095Y-67965238D01*
X185090476Y-68060476D01*
X185042857Y-68250952D01*
X185042857Y-68393809D01*
X185090476Y-68584285D01*
X185138095Y-68679523D01*
X185233333Y-68774761D01*
X185376190Y-68822380D01*
X185614285Y-68822380D01*
X184661904Y-67917619D02*
X184614285Y-67870000D01*
X184519047Y-67822380D01*
X184280952Y-67822380D01*
X184185714Y-67870000D01*
X184138095Y-67917619D01*
X184090476Y-68012857D01*
X184090476Y-68108095D01*
X184138095Y-68250952D01*
X184709523Y-68822380D01*
X184090476Y-68822380D01*
X183233333Y-68155714D02*
X183233333Y-68822380D01*
X183471428Y-67774761D02*
X183709523Y-68489047D01*
X183090476Y-68489047D01*
%TO.C,D25*%
X190414285Y-87822380D02*
X190414285Y-86822380D01*
X190176190Y-86822380D01*
X190033333Y-86870000D01*
X189938095Y-86965238D01*
X189890476Y-87060476D01*
X189842857Y-87250952D01*
X189842857Y-87393809D01*
X189890476Y-87584285D01*
X189938095Y-87679523D01*
X190033333Y-87774761D01*
X190176190Y-87822380D01*
X190414285Y-87822380D01*
X189461904Y-86917619D02*
X189414285Y-86870000D01*
X189319047Y-86822380D01*
X189080952Y-86822380D01*
X188985714Y-86870000D01*
X188938095Y-86917619D01*
X188890476Y-87012857D01*
X188890476Y-87108095D01*
X188938095Y-87250952D01*
X189509523Y-87822380D01*
X188890476Y-87822380D01*
X187985714Y-86822380D02*
X188461904Y-86822380D01*
X188509523Y-87298571D01*
X188461904Y-87250952D01*
X188366666Y-87203333D01*
X188128571Y-87203333D01*
X188033333Y-87250952D01*
X187985714Y-87298571D01*
X187938095Y-87393809D01*
X187938095Y-87631904D01*
X187985714Y-87727142D01*
X188033333Y-87774761D01*
X188128571Y-87822380D01*
X188366666Y-87822380D01*
X188461904Y-87774761D01*
X188509523Y-87727142D01*
%TO.C,D26*%
X180814285Y-107022380D02*
X180814285Y-106022380D01*
X180576190Y-106022380D01*
X180433333Y-106070000D01*
X180338095Y-106165238D01*
X180290476Y-106260476D01*
X180242857Y-106450952D01*
X180242857Y-106593809D01*
X180290476Y-106784285D01*
X180338095Y-106879523D01*
X180433333Y-106974761D01*
X180576190Y-107022380D01*
X180814285Y-107022380D01*
X179861904Y-106117619D02*
X179814285Y-106070000D01*
X179719047Y-106022380D01*
X179480952Y-106022380D01*
X179385714Y-106070000D01*
X179338095Y-106117619D01*
X179290476Y-106212857D01*
X179290476Y-106308095D01*
X179338095Y-106450952D01*
X179909523Y-107022380D01*
X179290476Y-107022380D01*
X178433333Y-106022380D02*
X178623809Y-106022380D01*
X178719047Y-106070000D01*
X178766666Y-106117619D01*
X178861904Y-106260476D01*
X178909523Y-106450952D01*
X178909523Y-106831904D01*
X178861904Y-106927142D01*
X178814285Y-106974761D01*
X178719047Y-107022380D01*
X178528571Y-107022380D01*
X178433333Y-106974761D01*
X178385714Y-106927142D01*
X178338095Y-106831904D01*
X178338095Y-106593809D01*
X178385714Y-106498571D01*
X178433333Y-106450952D01*
X178528571Y-106403333D01*
X178719047Y-106403333D01*
X178814285Y-106450952D01*
X178861904Y-106498571D01*
X178909523Y-106593809D01*
%TO.C,D27*%
X195214285Y-49822380D02*
X195214285Y-48822380D01*
X194976190Y-48822380D01*
X194833333Y-48870000D01*
X194738095Y-48965238D01*
X194690476Y-49060476D01*
X194642857Y-49250952D01*
X194642857Y-49393809D01*
X194690476Y-49584285D01*
X194738095Y-49679523D01*
X194833333Y-49774761D01*
X194976190Y-49822380D01*
X195214285Y-49822380D01*
X194261904Y-48917619D02*
X194214285Y-48870000D01*
X194119047Y-48822380D01*
X193880952Y-48822380D01*
X193785714Y-48870000D01*
X193738095Y-48917619D01*
X193690476Y-49012857D01*
X193690476Y-49108095D01*
X193738095Y-49250952D01*
X194309523Y-49822380D01*
X193690476Y-49822380D01*
X193357142Y-48822380D02*
X192690476Y-48822380D01*
X193119047Y-49822380D01*
%TO.C,D28*%
X204614285Y-68822380D02*
X204614285Y-67822380D01*
X204376190Y-67822380D01*
X204233333Y-67870000D01*
X204138095Y-67965238D01*
X204090476Y-68060476D01*
X204042857Y-68250952D01*
X204042857Y-68393809D01*
X204090476Y-68584285D01*
X204138095Y-68679523D01*
X204233333Y-68774761D01*
X204376190Y-68822380D01*
X204614285Y-68822380D01*
X203661904Y-67917619D02*
X203614285Y-67870000D01*
X203519047Y-67822380D01*
X203280952Y-67822380D01*
X203185714Y-67870000D01*
X203138095Y-67917619D01*
X203090476Y-68012857D01*
X203090476Y-68108095D01*
X203138095Y-68250952D01*
X203709523Y-68822380D01*
X203090476Y-68822380D01*
X202519047Y-68250952D02*
X202614285Y-68203333D01*
X202661904Y-68155714D01*
X202709523Y-68060476D01*
X202709523Y-68012857D01*
X202661904Y-67917619D01*
X202614285Y-67870000D01*
X202519047Y-67822380D01*
X202328571Y-67822380D01*
X202233333Y-67870000D01*
X202185714Y-67917619D01*
X202138095Y-68012857D01*
X202138095Y-68060476D01*
X202185714Y-68155714D01*
X202233333Y-68203333D01*
X202328571Y-68250952D01*
X202519047Y-68250952D01*
X202614285Y-68298571D01*
X202661904Y-68346190D01*
X202709523Y-68441428D01*
X202709523Y-68631904D01*
X202661904Y-68727142D01*
X202614285Y-68774761D01*
X202519047Y-68822380D01*
X202328571Y-68822380D01*
X202233333Y-68774761D01*
X202185714Y-68727142D01*
X202138095Y-68631904D01*
X202138095Y-68441428D01*
X202185714Y-68346190D01*
X202233333Y-68298571D01*
X202328571Y-68250952D01*
%TO.C,D29*%
X209426785Y-87822380D02*
X209426785Y-86822380D01*
X209188690Y-86822380D01*
X209045833Y-86870000D01*
X208950595Y-86965238D01*
X208902976Y-87060476D01*
X208855357Y-87250952D01*
X208855357Y-87393809D01*
X208902976Y-87584285D01*
X208950595Y-87679523D01*
X209045833Y-87774761D01*
X209188690Y-87822380D01*
X209426785Y-87822380D01*
X208474404Y-86917619D02*
X208426785Y-86870000D01*
X208331547Y-86822380D01*
X208093452Y-86822380D01*
X207998214Y-86870000D01*
X207950595Y-86917619D01*
X207902976Y-87012857D01*
X207902976Y-87108095D01*
X207950595Y-87250952D01*
X208522023Y-87822380D01*
X207902976Y-87822380D01*
X207426785Y-87822380D02*
X207236309Y-87822380D01*
X207141071Y-87774761D01*
X207093452Y-87727142D01*
X206998214Y-87584285D01*
X206950595Y-87393809D01*
X206950595Y-87012857D01*
X206998214Y-86917619D01*
X207045833Y-86870000D01*
X207141071Y-86822380D01*
X207331547Y-86822380D01*
X207426785Y-86870000D01*
X207474404Y-86917619D01*
X207522023Y-87012857D01*
X207522023Y-87250952D01*
X207474404Y-87346190D01*
X207426785Y-87393809D01*
X207331547Y-87441428D01*
X207141071Y-87441428D01*
X207045833Y-87393809D01*
X206998214Y-87346190D01*
X206950595Y-87250952D01*
%TO.C,D30*%
X199814285Y-106822380D02*
X199814285Y-105822380D01*
X199576190Y-105822380D01*
X199433333Y-105870000D01*
X199338095Y-105965238D01*
X199290476Y-106060476D01*
X199242857Y-106250952D01*
X199242857Y-106393809D01*
X199290476Y-106584285D01*
X199338095Y-106679523D01*
X199433333Y-106774761D01*
X199576190Y-106822380D01*
X199814285Y-106822380D01*
X198909523Y-105822380D02*
X198290476Y-105822380D01*
X198623809Y-106203333D01*
X198480952Y-106203333D01*
X198385714Y-106250952D01*
X198338095Y-106298571D01*
X198290476Y-106393809D01*
X198290476Y-106631904D01*
X198338095Y-106727142D01*
X198385714Y-106774761D01*
X198480952Y-106822380D01*
X198766666Y-106822380D01*
X198861904Y-106774761D01*
X198909523Y-106727142D01*
X197671428Y-105822380D02*
X197576190Y-105822380D01*
X197480952Y-105870000D01*
X197433333Y-105917619D01*
X197385714Y-106012857D01*
X197338095Y-106203333D01*
X197338095Y-106441428D01*
X197385714Y-106631904D01*
X197433333Y-106727142D01*
X197480952Y-106774761D01*
X197576190Y-106822380D01*
X197671428Y-106822380D01*
X197766666Y-106774761D01*
X197814285Y-106727142D01*
X197861904Y-106631904D01*
X197909523Y-106441428D01*
X197909523Y-106203333D01*
X197861904Y-106012857D01*
X197814285Y-105917619D01*
X197766666Y-105870000D01*
X197671428Y-105822380D01*
%TO.C,D31*%
X202214285Y-126022380D02*
X202214285Y-125022380D01*
X201976190Y-125022380D01*
X201833333Y-125070000D01*
X201738095Y-125165238D01*
X201690476Y-125260476D01*
X201642857Y-125450952D01*
X201642857Y-125593809D01*
X201690476Y-125784285D01*
X201738095Y-125879523D01*
X201833333Y-125974761D01*
X201976190Y-126022380D01*
X202214285Y-126022380D01*
X201309523Y-125022380D02*
X200690476Y-125022380D01*
X201023809Y-125403333D01*
X200880952Y-125403333D01*
X200785714Y-125450952D01*
X200738095Y-125498571D01*
X200690476Y-125593809D01*
X200690476Y-125831904D01*
X200738095Y-125927142D01*
X200785714Y-125974761D01*
X200880952Y-126022380D01*
X201166666Y-126022380D01*
X201261904Y-125974761D01*
X201309523Y-125927142D01*
X199738095Y-126022380D02*
X200309523Y-126022380D01*
X200023809Y-126022380D02*
X200023809Y-125022380D01*
X200119047Y-125165238D01*
X200214285Y-125260476D01*
X200309523Y-125308095D01*
%TO.C,D32*%
X214214285Y-49822380D02*
X214214285Y-48822380D01*
X213976190Y-48822380D01*
X213833333Y-48870000D01*
X213738095Y-48965238D01*
X213690476Y-49060476D01*
X213642857Y-49250952D01*
X213642857Y-49393809D01*
X213690476Y-49584285D01*
X213738095Y-49679523D01*
X213833333Y-49774761D01*
X213976190Y-49822380D01*
X214214285Y-49822380D01*
X213309523Y-48822380D02*
X212690476Y-48822380D01*
X213023809Y-49203333D01*
X212880952Y-49203333D01*
X212785714Y-49250952D01*
X212738095Y-49298571D01*
X212690476Y-49393809D01*
X212690476Y-49631904D01*
X212738095Y-49727142D01*
X212785714Y-49774761D01*
X212880952Y-49822380D01*
X213166666Y-49822380D01*
X213261904Y-49774761D01*
X213309523Y-49727142D01*
X212309523Y-48917619D02*
X212261904Y-48870000D01*
X212166666Y-48822380D01*
X211928571Y-48822380D01*
X211833333Y-48870000D01*
X211785714Y-48917619D01*
X211738095Y-49012857D01*
X211738095Y-49108095D01*
X211785714Y-49250952D01*
X212357142Y-49822380D01*
X211738095Y-49822380D01*
%TO.C,D33*%
X223814285Y-68822380D02*
X223814285Y-67822380D01*
X223576190Y-67822380D01*
X223433333Y-67870000D01*
X223338095Y-67965238D01*
X223290476Y-68060476D01*
X223242857Y-68250952D01*
X223242857Y-68393809D01*
X223290476Y-68584285D01*
X223338095Y-68679523D01*
X223433333Y-68774761D01*
X223576190Y-68822380D01*
X223814285Y-68822380D01*
X222909523Y-67822380D02*
X222290476Y-67822380D01*
X222623809Y-68203333D01*
X222480952Y-68203333D01*
X222385714Y-68250952D01*
X222338095Y-68298571D01*
X222290476Y-68393809D01*
X222290476Y-68631904D01*
X222338095Y-68727142D01*
X222385714Y-68774761D01*
X222480952Y-68822380D01*
X222766666Y-68822380D01*
X222861904Y-68774761D01*
X222909523Y-68727142D01*
X221957142Y-67822380D02*
X221338095Y-67822380D01*
X221671428Y-68203333D01*
X221528571Y-68203333D01*
X221433333Y-68250952D01*
X221385714Y-68298571D01*
X221338095Y-68393809D01*
X221338095Y-68631904D01*
X221385714Y-68727142D01*
X221433333Y-68774761D01*
X221528571Y-68822380D01*
X221814285Y-68822380D01*
X221909523Y-68774761D01*
X221957142Y-68727142D01*
%TO.C,D34*%
X228414285Y-87822380D02*
X228414285Y-86822380D01*
X228176190Y-86822380D01*
X228033333Y-86870000D01*
X227938095Y-86965238D01*
X227890476Y-87060476D01*
X227842857Y-87250952D01*
X227842857Y-87393809D01*
X227890476Y-87584285D01*
X227938095Y-87679523D01*
X228033333Y-87774761D01*
X228176190Y-87822380D01*
X228414285Y-87822380D01*
X227509523Y-86822380D02*
X226890476Y-86822380D01*
X227223809Y-87203333D01*
X227080952Y-87203333D01*
X226985714Y-87250952D01*
X226938095Y-87298571D01*
X226890476Y-87393809D01*
X226890476Y-87631904D01*
X226938095Y-87727142D01*
X226985714Y-87774761D01*
X227080952Y-87822380D01*
X227366666Y-87822380D01*
X227461904Y-87774761D01*
X227509523Y-87727142D01*
X226033333Y-87155714D02*
X226033333Y-87822380D01*
X226271428Y-86774761D02*
X226509523Y-87489047D01*
X225890476Y-87489047D01*
%TO.C,D35*%
X219014285Y-107022380D02*
X219014285Y-106022380D01*
X218776190Y-106022380D01*
X218633333Y-106070000D01*
X218538095Y-106165238D01*
X218490476Y-106260476D01*
X218442857Y-106450952D01*
X218442857Y-106593809D01*
X218490476Y-106784285D01*
X218538095Y-106879523D01*
X218633333Y-106974761D01*
X218776190Y-107022380D01*
X219014285Y-107022380D01*
X218109523Y-106022380D02*
X217490476Y-106022380D01*
X217823809Y-106403333D01*
X217680952Y-106403333D01*
X217585714Y-106450952D01*
X217538095Y-106498571D01*
X217490476Y-106593809D01*
X217490476Y-106831904D01*
X217538095Y-106927142D01*
X217585714Y-106974761D01*
X217680952Y-107022380D01*
X217966666Y-107022380D01*
X218061904Y-106974761D01*
X218109523Y-106927142D01*
X216585714Y-106022380D02*
X217061904Y-106022380D01*
X217109523Y-106498571D01*
X217061904Y-106450952D01*
X216966666Y-106403333D01*
X216728571Y-106403333D01*
X216633333Y-106450952D01*
X216585714Y-106498571D01*
X216538095Y-106593809D01*
X216538095Y-106831904D01*
X216585714Y-106927142D01*
X216633333Y-106974761D01*
X216728571Y-107022380D01*
X216966666Y-107022380D01*
X217061904Y-106974761D01*
X217109523Y-106927142D01*
%TO.C,D36*%
X233214285Y-49822380D02*
X233214285Y-48822380D01*
X232976190Y-48822380D01*
X232833333Y-48870000D01*
X232738095Y-48965238D01*
X232690476Y-49060476D01*
X232642857Y-49250952D01*
X232642857Y-49393809D01*
X232690476Y-49584285D01*
X232738095Y-49679523D01*
X232833333Y-49774761D01*
X232976190Y-49822380D01*
X233214285Y-49822380D01*
X232309523Y-48822380D02*
X231690476Y-48822380D01*
X232023809Y-49203333D01*
X231880952Y-49203333D01*
X231785714Y-49250952D01*
X231738095Y-49298571D01*
X231690476Y-49393809D01*
X231690476Y-49631904D01*
X231738095Y-49727142D01*
X231785714Y-49774761D01*
X231880952Y-49822380D01*
X232166666Y-49822380D01*
X232261904Y-49774761D01*
X232309523Y-49727142D01*
X230833333Y-48822380D02*
X231023809Y-48822380D01*
X231119047Y-48870000D01*
X231166666Y-48917619D01*
X231261904Y-49060476D01*
X231309523Y-49250952D01*
X231309523Y-49631904D01*
X231261904Y-49727142D01*
X231214285Y-49774761D01*
X231119047Y-49822380D01*
X230928571Y-49822380D01*
X230833333Y-49774761D01*
X230785714Y-49727142D01*
X230738095Y-49631904D01*
X230738095Y-49393809D01*
X230785714Y-49298571D01*
X230833333Y-49250952D01*
X230928571Y-49203333D01*
X231119047Y-49203333D01*
X231214285Y-49250952D01*
X231261904Y-49298571D01*
X231309523Y-49393809D01*
%TO.C,D37*%
X242814285Y-68822380D02*
X242814285Y-67822380D01*
X242576190Y-67822380D01*
X242433333Y-67870000D01*
X242338095Y-67965238D01*
X242290476Y-68060476D01*
X242242857Y-68250952D01*
X242242857Y-68393809D01*
X242290476Y-68584285D01*
X242338095Y-68679523D01*
X242433333Y-68774761D01*
X242576190Y-68822380D01*
X242814285Y-68822380D01*
X241909523Y-67822380D02*
X241290476Y-67822380D01*
X241623809Y-68203333D01*
X241480952Y-68203333D01*
X241385714Y-68250952D01*
X241338095Y-68298571D01*
X241290476Y-68393809D01*
X241290476Y-68631904D01*
X241338095Y-68727142D01*
X241385714Y-68774761D01*
X241480952Y-68822380D01*
X241766666Y-68822380D01*
X241861904Y-68774761D01*
X241909523Y-68727142D01*
X240957142Y-67822380D02*
X240290476Y-67822380D01*
X240719047Y-68822380D01*
%TO.C,D38*%
X247614285Y-87822380D02*
X247614285Y-86822380D01*
X247376190Y-86822380D01*
X247233333Y-86870000D01*
X247138095Y-86965238D01*
X247090476Y-87060476D01*
X247042857Y-87250952D01*
X247042857Y-87393809D01*
X247090476Y-87584285D01*
X247138095Y-87679523D01*
X247233333Y-87774761D01*
X247376190Y-87822380D01*
X247614285Y-87822380D01*
X246709523Y-86822380D02*
X246090476Y-86822380D01*
X246423809Y-87203333D01*
X246280952Y-87203333D01*
X246185714Y-87250952D01*
X246138095Y-87298571D01*
X246090476Y-87393809D01*
X246090476Y-87631904D01*
X246138095Y-87727142D01*
X246185714Y-87774761D01*
X246280952Y-87822380D01*
X246566666Y-87822380D01*
X246661904Y-87774761D01*
X246709523Y-87727142D01*
X245519047Y-87250952D02*
X245614285Y-87203333D01*
X245661904Y-87155714D01*
X245709523Y-87060476D01*
X245709523Y-87012857D01*
X245661904Y-86917619D01*
X245614285Y-86870000D01*
X245519047Y-86822380D01*
X245328571Y-86822380D01*
X245233333Y-86870000D01*
X245185714Y-86917619D01*
X245138095Y-87012857D01*
X245138095Y-87060476D01*
X245185714Y-87155714D01*
X245233333Y-87203333D01*
X245328571Y-87250952D01*
X245519047Y-87250952D01*
X245614285Y-87298571D01*
X245661904Y-87346190D01*
X245709523Y-87441428D01*
X245709523Y-87631904D01*
X245661904Y-87727142D01*
X245614285Y-87774761D01*
X245519047Y-87822380D01*
X245328571Y-87822380D01*
X245233333Y-87774761D01*
X245185714Y-87727142D01*
X245138095Y-87631904D01*
X245138095Y-87441428D01*
X245185714Y-87346190D01*
X245233333Y-87298571D01*
X245328571Y-87250952D01*
%TO.C,D39*%
X238014285Y-106822380D02*
X238014285Y-105822380D01*
X237776190Y-105822380D01*
X237633333Y-105870000D01*
X237538095Y-105965238D01*
X237490476Y-106060476D01*
X237442857Y-106250952D01*
X237442857Y-106393809D01*
X237490476Y-106584285D01*
X237538095Y-106679523D01*
X237633333Y-106774761D01*
X237776190Y-106822380D01*
X238014285Y-106822380D01*
X237109523Y-105822380D02*
X236490476Y-105822380D01*
X236823809Y-106203333D01*
X236680952Y-106203333D01*
X236585714Y-106250952D01*
X236538095Y-106298571D01*
X236490476Y-106393809D01*
X236490476Y-106631904D01*
X236538095Y-106727142D01*
X236585714Y-106774761D01*
X236680952Y-106822380D01*
X236966666Y-106822380D01*
X237061904Y-106774761D01*
X237109523Y-106727142D01*
X236014285Y-106822380D02*
X235823809Y-106822380D01*
X235728571Y-106774761D01*
X235680952Y-106727142D01*
X235585714Y-106584285D01*
X235538095Y-106393809D01*
X235538095Y-106012857D01*
X235585714Y-105917619D01*
X235633333Y-105870000D01*
X235728571Y-105822380D01*
X235919047Y-105822380D01*
X236014285Y-105870000D01*
X236061904Y-105917619D01*
X236109523Y-106012857D01*
X236109523Y-106250952D01*
X236061904Y-106346190D01*
X236014285Y-106393809D01*
X235919047Y-106441428D01*
X235728571Y-106441428D01*
X235633333Y-106393809D01*
X235585714Y-106346190D01*
X235538095Y-106250952D01*
%TO.C,D40*%
X252214285Y-49822380D02*
X252214285Y-48822380D01*
X251976190Y-48822380D01*
X251833333Y-48870000D01*
X251738095Y-48965238D01*
X251690476Y-49060476D01*
X251642857Y-49250952D01*
X251642857Y-49393809D01*
X251690476Y-49584285D01*
X251738095Y-49679523D01*
X251833333Y-49774761D01*
X251976190Y-49822380D01*
X252214285Y-49822380D01*
X250785714Y-49155714D02*
X250785714Y-49822380D01*
X251023809Y-48774761D02*
X251261904Y-49489047D01*
X250642857Y-49489047D01*
X250071428Y-48822380D02*
X249976190Y-48822380D01*
X249880952Y-48870000D01*
X249833333Y-48917619D01*
X249785714Y-49012857D01*
X249738095Y-49203333D01*
X249738095Y-49441428D01*
X249785714Y-49631904D01*
X249833333Y-49727142D01*
X249880952Y-49774761D01*
X249976190Y-49822380D01*
X250071428Y-49822380D01*
X250166666Y-49774761D01*
X250214285Y-49727142D01*
X250261904Y-49631904D01*
X250309523Y-49441428D01*
X250309523Y-49203333D01*
X250261904Y-49012857D01*
X250214285Y-48917619D01*
X250166666Y-48870000D01*
X250071428Y-48822380D01*
%TO.C,D41*%
X261814285Y-68822380D02*
X261814285Y-67822380D01*
X261576190Y-67822380D01*
X261433333Y-67870000D01*
X261338095Y-67965238D01*
X261290476Y-68060476D01*
X261242857Y-68250952D01*
X261242857Y-68393809D01*
X261290476Y-68584285D01*
X261338095Y-68679523D01*
X261433333Y-68774761D01*
X261576190Y-68822380D01*
X261814285Y-68822380D01*
X260385714Y-68155714D02*
X260385714Y-68822380D01*
X260623809Y-67774761D02*
X260861904Y-68489047D01*
X260242857Y-68489047D01*
X259338095Y-68822380D02*
X259909523Y-68822380D01*
X259623809Y-68822380D02*
X259623809Y-67822380D01*
X259719047Y-67965238D01*
X259814285Y-68060476D01*
X259909523Y-68108095D01*
%TO.C,D42*%
X266614285Y-87822380D02*
X266614285Y-86822380D01*
X266376190Y-86822380D01*
X266233333Y-86870000D01*
X266138095Y-86965238D01*
X266090476Y-87060476D01*
X266042857Y-87250952D01*
X266042857Y-87393809D01*
X266090476Y-87584285D01*
X266138095Y-87679523D01*
X266233333Y-87774761D01*
X266376190Y-87822380D01*
X266614285Y-87822380D01*
X265185714Y-87155714D02*
X265185714Y-87822380D01*
X265423809Y-86774761D02*
X265661904Y-87489047D01*
X265042857Y-87489047D01*
X264709523Y-86917619D02*
X264661904Y-86870000D01*
X264566666Y-86822380D01*
X264328571Y-86822380D01*
X264233333Y-86870000D01*
X264185714Y-86917619D01*
X264138095Y-87012857D01*
X264138095Y-87108095D01*
X264185714Y-87250952D01*
X264757142Y-87822380D01*
X264138095Y-87822380D01*
%TO.C,D43*%
X257014285Y-106822380D02*
X257014285Y-105822380D01*
X256776190Y-105822380D01*
X256633333Y-105870000D01*
X256538095Y-105965238D01*
X256490476Y-106060476D01*
X256442857Y-106250952D01*
X256442857Y-106393809D01*
X256490476Y-106584285D01*
X256538095Y-106679523D01*
X256633333Y-106774761D01*
X256776190Y-106822380D01*
X257014285Y-106822380D01*
X255585714Y-106155714D02*
X255585714Y-106822380D01*
X255823809Y-105774761D02*
X256061904Y-106489047D01*
X255442857Y-106489047D01*
X255157142Y-105822380D02*
X254538095Y-105822380D01*
X254871428Y-106203333D01*
X254728571Y-106203333D01*
X254633333Y-106250952D01*
X254585714Y-106298571D01*
X254538095Y-106393809D01*
X254538095Y-106631904D01*
X254585714Y-106727142D01*
X254633333Y-106774761D01*
X254728571Y-106822380D01*
X255014285Y-106822380D01*
X255109523Y-106774761D01*
X255157142Y-106727142D01*
%TO.C,D53*%
X297614285Y-126022380D02*
X297614285Y-125022380D01*
X297376190Y-125022380D01*
X297233333Y-125070000D01*
X297138095Y-125165238D01*
X297090476Y-125260476D01*
X297042857Y-125450952D01*
X297042857Y-125593809D01*
X297090476Y-125784285D01*
X297138095Y-125879523D01*
X297233333Y-125974761D01*
X297376190Y-126022380D01*
X297614285Y-126022380D01*
X296138095Y-125022380D02*
X296614285Y-125022380D01*
X296661904Y-125498571D01*
X296614285Y-125450952D01*
X296519047Y-125403333D01*
X296280952Y-125403333D01*
X296185714Y-125450952D01*
X296138095Y-125498571D01*
X296090476Y-125593809D01*
X296090476Y-125831904D01*
X296138095Y-125927142D01*
X296185714Y-125974761D01*
X296280952Y-126022380D01*
X296519047Y-126022380D01*
X296614285Y-125974761D01*
X296661904Y-125927142D01*
X295757142Y-125022380D02*
X295138095Y-125022380D01*
X295471428Y-125403333D01*
X295328571Y-125403333D01*
X295233333Y-125450952D01*
X295185714Y-125498571D01*
X295138095Y-125593809D01*
X295138095Y-125831904D01*
X295185714Y-125927142D01*
X295233333Y-125974761D01*
X295328571Y-126022380D01*
X295614285Y-126022380D01*
X295709523Y-125974761D01*
X295757142Y-125927142D01*
%TO.C,D44*%
X271414285Y-49822380D02*
X271414285Y-48822380D01*
X271176190Y-48822380D01*
X271033333Y-48870000D01*
X270938095Y-48965238D01*
X270890476Y-49060476D01*
X270842857Y-49250952D01*
X270842857Y-49393809D01*
X270890476Y-49584285D01*
X270938095Y-49679523D01*
X271033333Y-49774761D01*
X271176190Y-49822380D01*
X271414285Y-49822380D01*
X269985714Y-49155714D02*
X269985714Y-49822380D01*
X270223809Y-48774761D02*
X270461904Y-49489047D01*
X269842857Y-49489047D01*
X269033333Y-49155714D02*
X269033333Y-49822380D01*
X269271428Y-48774761D02*
X269509523Y-49489047D01*
X268890476Y-49489047D01*
%TO.C,D45*%
X280814285Y-68822380D02*
X280814285Y-67822380D01*
X280576190Y-67822380D01*
X280433333Y-67870000D01*
X280338095Y-67965238D01*
X280290476Y-68060476D01*
X280242857Y-68250952D01*
X280242857Y-68393809D01*
X280290476Y-68584285D01*
X280338095Y-68679523D01*
X280433333Y-68774761D01*
X280576190Y-68822380D01*
X280814285Y-68822380D01*
X279385714Y-68155714D02*
X279385714Y-68822380D01*
X279623809Y-67774761D02*
X279861904Y-68489047D01*
X279242857Y-68489047D01*
X278385714Y-67822380D02*
X278861904Y-67822380D01*
X278909523Y-68298571D01*
X278861904Y-68250952D01*
X278766666Y-68203333D01*
X278528571Y-68203333D01*
X278433333Y-68250952D01*
X278385714Y-68298571D01*
X278338095Y-68393809D01*
X278338095Y-68631904D01*
X278385714Y-68727142D01*
X278433333Y-68774761D01*
X278528571Y-68822380D01*
X278766666Y-68822380D01*
X278861904Y-68774761D01*
X278909523Y-68727142D01*
%TO.C,D46*%
X285601785Y-87822380D02*
X285601785Y-86822380D01*
X285363690Y-86822380D01*
X285220833Y-86870000D01*
X285125595Y-86965238D01*
X285077976Y-87060476D01*
X285030357Y-87250952D01*
X285030357Y-87393809D01*
X285077976Y-87584285D01*
X285125595Y-87679523D01*
X285220833Y-87774761D01*
X285363690Y-87822380D01*
X285601785Y-87822380D01*
X284173214Y-87155714D02*
X284173214Y-87822380D01*
X284411309Y-86774761D02*
X284649404Y-87489047D01*
X284030357Y-87489047D01*
X283220833Y-86822380D02*
X283411309Y-86822380D01*
X283506547Y-86870000D01*
X283554166Y-86917619D01*
X283649404Y-87060476D01*
X283697023Y-87250952D01*
X283697023Y-87631904D01*
X283649404Y-87727142D01*
X283601785Y-87774761D01*
X283506547Y-87822380D01*
X283316071Y-87822380D01*
X283220833Y-87774761D01*
X283173214Y-87727142D01*
X283125595Y-87631904D01*
X283125595Y-87393809D01*
X283173214Y-87298571D01*
X283220833Y-87250952D01*
X283316071Y-87203333D01*
X283506547Y-87203333D01*
X283601785Y-87250952D01*
X283649404Y-87298571D01*
X283697023Y-87393809D01*
%TO.C,D47*%
X276014285Y-107022380D02*
X276014285Y-106022380D01*
X275776190Y-106022380D01*
X275633333Y-106070000D01*
X275538095Y-106165238D01*
X275490476Y-106260476D01*
X275442857Y-106450952D01*
X275442857Y-106593809D01*
X275490476Y-106784285D01*
X275538095Y-106879523D01*
X275633333Y-106974761D01*
X275776190Y-107022380D01*
X276014285Y-107022380D01*
X274585714Y-106355714D02*
X274585714Y-107022380D01*
X274823809Y-105974761D02*
X275061904Y-106689047D01*
X274442857Y-106689047D01*
X274157142Y-106022380D02*
X273490476Y-106022380D01*
X273919047Y-107022380D01*
%TO.C,D48*%
X273814285Y-126022380D02*
X273814285Y-125022380D01*
X273576190Y-125022380D01*
X273433333Y-125070000D01*
X273338095Y-125165238D01*
X273290476Y-125260476D01*
X273242857Y-125450952D01*
X273242857Y-125593809D01*
X273290476Y-125784285D01*
X273338095Y-125879523D01*
X273433333Y-125974761D01*
X273576190Y-126022380D01*
X273814285Y-126022380D01*
X272385714Y-125355714D02*
X272385714Y-126022380D01*
X272623809Y-124974761D02*
X272861904Y-125689047D01*
X272242857Y-125689047D01*
X271719047Y-125450952D02*
X271814285Y-125403333D01*
X271861904Y-125355714D01*
X271909523Y-125260476D01*
X271909523Y-125212857D01*
X271861904Y-125117619D01*
X271814285Y-125070000D01*
X271719047Y-125022380D01*
X271528571Y-125022380D01*
X271433333Y-125070000D01*
X271385714Y-125117619D01*
X271338095Y-125212857D01*
X271338095Y-125260476D01*
X271385714Y-125355714D01*
X271433333Y-125403333D01*
X271528571Y-125450952D01*
X271719047Y-125450952D01*
X271814285Y-125498571D01*
X271861904Y-125546190D01*
X271909523Y-125641428D01*
X271909523Y-125831904D01*
X271861904Y-125927142D01*
X271814285Y-125974761D01*
X271719047Y-126022380D01*
X271528571Y-126022380D01*
X271433333Y-125974761D01*
X271385714Y-125927142D01*
X271338095Y-125831904D01*
X271338095Y-125641428D01*
X271385714Y-125546190D01*
X271433333Y-125498571D01*
X271528571Y-125450952D01*
%TO.C,D49*%
X290414285Y-49822380D02*
X290414285Y-48822380D01*
X290176190Y-48822380D01*
X290033333Y-48870000D01*
X289938095Y-48965238D01*
X289890476Y-49060476D01*
X289842857Y-49250952D01*
X289842857Y-49393809D01*
X289890476Y-49584285D01*
X289938095Y-49679523D01*
X290033333Y-49774761D01*
X290176190Y-49822380D01*
X290414285Y-49822380D01*
X288985714Y-49155714D02*
X288985714Y-49822380D01*
X289223809Y-48774761D02*
X289461904Y-49489047D01*
X288842857Y-49489047D01*
X288414285Y-49822380D02*
X288223809Y-49822380D01*
X288128571Y-49774761D01*
X288080952Y-49727142D01*
X287985714Y-49584285D01*
X287938095Y-49393809D01*
X287938095Y-49012857D01*
X287985714Y-48917619D01*
X288033333Y-48870000D01*
X288128571Y-48822380D01*
X288319047Y-48822380D01*
X288414285Y-48870000D01*
X288461904Y-48917619D01*
X288509523Y-49012857D01*
X288509523Y-49250952D01*
X288461904Y-49346190D01*
X288414285Y-49393809D01*
X288319047Y-49441428D01*
X288128571Y-49441428D01*
X288033333Y-49393809D01*
X287985714Y-49346190D01*
X287938095Y-49250952D01*
%TO.C,D50*%
X300014285Y-68822380D02*
X300014285Y-67822380D01*
X299776190Y-67822380D01*
X299633333Y-67870000D01*
X299538095Y-67965238D01*
X299490476Y-68060476D01*
X299442857Y-68250952D01*
X299442857Y-68393809D01*
X299490476Y-68584285D01*
X299538095Y-68679523D01*
X299633333Y-68774761D01*
X299776190Y-68822380D01*
X300014285Y-68822380D01*
X298538095Y-67822380D02*
X299014285Y-67822380D01*
X299061904Y-68298571D01*
X299014285Y-68250952D01*
X298919047Y-68203333D01*
X298680952Y-68203333D01*
X298585714Y-68250952D01*
X298538095Y-68298571D01*
X298490476Y-68393809D01*
X298490476Y-68631904D01*
X298538095Y-68727142D01*
X298585714Y-68774761D01*
X298680952Y-68822380D01*
X298919047Y-68822380D01*
X299014285Y-68774761D01*
X299061904Y-68727142D01*
X297871428Y-67822380D02*
X297776190Y-67822380D01*
X297680952Y-67870000D01*
X297633333Y-67917619D01*
X297585714Y-68012857D01*
X297538095Y-68203333D01*
X297538095Y-68441428D01*
X297585714Y-68631904D01*
X297633333Y-68727142D01*
X297680952Y-68774761D01*
X297776190Y-68822380D01*
X297871428Y-68822380D01*
X297966666Y-68774761D01*
X298014285Y-68727142D01*
X298061904Y-68631904D01*
X298109523Y-68441428D01*
X298109523Y-68203333D01*
X298061904Y-68012857D01*
X298014285Y-67917619D01*
X297966666Y-67870000D01*
X297871428Y-67822380D01*
%TO.C,D51*%
X304614285Y-87822380D02*
X304614285Y-86822380D01*
X304376190Y-86822380D01*
X304233333Y-86870000D01*
X304138095Y-86965238D01*
X304090476Y-87060476D01*
X304042857Y-87250952D01*
X304042857Y-87393809D01*
X304090476Y-87584285D01*
X304138095Y-87679523D01*
X304233333Y-87774761D01*
X304376190Y-87822380D01*
X304614285Y-87822380D01*
X303138095Y-86822380D02*
X303614285Y-86822380D01*
X303661904Y-87298571D01*
X303614285Y-87250952D01*
X303519047Y-87203333D01*
X303280952Y-87203333D01*
X303185714Y-87250952D01*
X303138095Y-87298571D01*
X303090476Y-87393809D01*
X303090476Y-87631904D01*
X303138095Y-87727142D01*
X303185714Y-87774761D01*
X303280952Y-87822380D01*
X303519047Y-87822380D01*
X303614285Y-87774761D01*
X303661904Y-87727142D01*
X302138095Y-87822380D02*
X302709523Y-87822380D01*
X302423809Y-87822380D02*
X302423809Y-86822380D01*
X302519047Y-86965238D01*
X302614285Y-87060476D01*
X302709523Y-87108095D01*
%TO.C,D52*%
X295214285Y-107022380D02*
X295214285Y-106022380D01*
X294976190Y-106022380D01*
X294833333Y-106070000D01*
X294738095Y-106165238D01*
X294690476Y-106260476D01*
X294642857Y-106450952D01*
X294642857Y-106593809D01*
X294690476Y-106784285D01*
X294738095Y-106879523D01*
X294833333Y-106974761D01*
X294976190Y-107022380D01*
X295214285Y-107022380D01*
X293738095Y-106022380D02*
X294214285Y-106022380D01*
X294261904Y-106498571D01*
X294214285Y-106450952D01*
X294119047Y-106403333D01*
X293880952Y-106403333D01*
X293785714Y-106450952D01*
X293738095Y-106498571D01*
X293690476Y-106593809D01*
X293690476Y-106831904D01*
X293738095Y-106927142D01*
X293785714Y-106974761D01*
X293880952Y-107022380D01*
X294119047Y-107022380D01*
X294214285Y-106974761D01*
X294261904Y-106927142D01*
X293309523Y-106117619D02*
X293261904Y-106070000D01*
X293166666Y-106022380D01*
X292928571Y-106022380D01*
X292833333Y-106070000D01*
X292785714Y-106117619D01*
X292738095Y-106212857D01*
X292738095Y-106308095D01*
X292785714Y-106450952D01*
X293357142Y-107022380D01*
X292738095Y-107022380D01*
%TO.C,D54*%
X309414285Y-49822380D02*
X309414285Y-48822380D01*
X309176190Y-48822380D01*
X309033333Y-48870000D01*
X308938095Y-48965238D01*
X308890476Y-49060476D01*
X308842857Y-49250952D01*
X308842857Y-49393809D01*
X308890476Y-49584285D01*
X308938095Y-49679523D01*
X309033333Y-49774761D01*
X309176190Y-49822380D01*
X309414285Y-49822380D01*
X307938095Y-48822380D02*
X308414285Y-48822380D01*
X308461904Y-49298571D01*
X308414285Y-49250952D01*
X308319047Y-49203333D01*
X308080952Y-49203333D01*
X307985714Y-49250952D01*
X307938095Y-49298571D01*
X307890476Y-49393809D01*
X307890476Y-49631904D01*
X307938095Y-49727142D01*
X307985714Y-49774761D01*
X308080952Y-49822380D01*
X308319047Y-49822380D01*
X308414285Y-49774761D01*
X308461904Y-49727142D01*
X307033333Y-49155714D02*
X307033333Y-49822380D01*
X307271428Y-48774761D02*
X307509523Y-49489047D01*
X306890476Y-49489047D01*
%TO.C,D55*%
X319014285Y-68822380D02*
X319014285Y-67822380D01*
X318776190Y-67822380D01*
X318633333Y-67870000D01*
X318538095Y-67965238D01*
X318490476Y-68060476D01*
X318442857Y-68250952D01*
X318442857Y-68393809D01*
X318490476Y-68584285D01*
X318538095Y-68679523D01*
X318633333Y-68774761D01*
X318776190Y-68822380D01*
X319014285Y-68822380D01*
X317538095Y-67822380D02*
X318014285Y-67822380D01*
X318061904Y-68298571D01*
X318014285Y-68250952D01*
X317919047Y-68203333D01*
X317680952Y-68203333D01*
X317585714Y-68250952D01*
X317538095Y-68298571D01*
X317490476Y-68393809D01*
X317490476Y-68631904D01*
X317538095Y-68727142D01*
X317585714Y-68774761D01*
X317680952Y-68822380D01*
X317919047Y-68822380D01*
X318014285Y-68774761D01*
X318061904Y-68727142D01*
X316585714Y-67822380D02*
X317061904Y-67822380D01*
X317109523Y-68298571D01*
X317061904Y-68250952D01*
X316966666Y-68203333D01*
X316728571Y-68203333D01*
X316633333Y-68250952D01*
X316585714Y-68298571D01*
X316538095Y-68393809D01*
X316538095Y-68631904D01*
X316585714Y-68727142D01*
X316633333Y-68774761D01*
X316728571Y-68822380D01*
X316966666Y-68822380D01*
X317061904Y-68774761D01*
X317109523Y-68727142D01*
%TO.C,D56*%
X321414285Y-107022380D02*
X321414285Y-106022380D01*
X321176190Y-106022380D01*
X321033333Y-106070000D01*
X320938095Y-106165238D01*
X320890476Y-106260476D01*
X320842857Y-106450952D01*
X320842857Y-106593809D01*
X320890476Y-106784285D01*
X320938095Y-106879523D01*
X321033333Y-106974761D01*
X321176190Y-107022380D01*
X321414285Y-107022380D01*
X319938095Y-106022380D02*
X320414285Y-106022380D01*
X320461904Y-106498571D01*
X320414285Y-106450952D01*
X320319047Y-106403333D01*
X320080952Y-106403333D01*
X319985714Y-106450952D01*
X319938095Y-106498571D01*
X319890476Y-106593809D01*
X319890476Y-106831904D01*
X319938095Y-106927142D01*
X319985714Y-106974761D01*
X320080952Y-107022380D01*
X320319047Y-107022380D01*
X320414285Y-106974761D01*
X320461904Y-106927142D01*
X319033333Y-106022380D02*
X319223809Y-106022380D01*
X319319047Y-106070000D01*
X319366666Y-106117619D01*
X319461904Y-106260476D01*
X319509523Y-106450952D01*
X319509523Y-106831904D01*
X319461904Y-106927142D01*
X319414285Y-106974761D01*
X319319047Y-107022380D01*
X319128571Y-107022380D01*
X319033333Y-106974761D01*
X318985714Y-106927142D01*
X318938095Y-106831904D01*
X318938095Y-106593809D01*
X318985714Y-106498571D01*
X319033333Y-106450952D01*
X319128571Y-106403333D01*
X319319047Y-106403333D01*
X319414285Y-106450952D01*
X319461904Y-106498571D01*
X319509523Y-106593809D01*
%TO.C,D57*%
X328414285Y-126022380D02*
X328414285Y-125022380D01*
X328176190Y-125022380D01*
X328033333Y-125070000D01*
X327938095Y-125165238D01*
X327890476Y-125260476D01*
X327842857Y-125450952D01*
X327842857Y-125593809D01*
X327890476Y-125784285D01*
X327938095Y-125879523D01*
X328033333Y-125974761D01*
X328176190Y-126022380D01*
X328414285Y-126022380D01*
X326938095Y-125022380D02*
X327414285Y-125022380D01*
X327461904Y-125498571D01*
X327414285Y-125450952D01*
X327319047Y-125403333D01*
X327080952Y-125403333D01*
X326985714Y-125450952D01*
X326938095Y-125498571D01*
X326890476Y-125593809D01*
X326890476Y-125831904D01*
X326938095Y-125927142D01*
X326985714Y-125974761D01*
X327080952Y-126022380D01*
X327319047Y-126022380D01*
X327414285Y-125974761D01*
X327461904Y-125927142D01*
X326557142Y-125022380D02*
X325890476Y-125022380D01*
X326319047Y-126022380D01*
%TO.C,D58*%
X337964285Y-49772380D02*
X337964285Y-48772380D01*
X337726190Y-48772380D01*
X337583333Y-48820000D01*
X337488095Y-48915238D01*
X337440476Y-49010476D01*
X337392857Y-49200952D01*
X337392857Y-49343809D01*
X337440476Y-49534285D01*
X337488095Y-49629523D01*
X337583333Y-49724761D01*
X337726190Y-49772380D01*
X337964285Y-49772380D01*
X336488095Y-48772380D02*
X336964285Y-48772380D01*
X337011904Y-49248571D01*
X336964285Y-49200952D01*
X336869047Y-49153333D01*
X336630952Y-49153333D01*
X336535714Y-49200952D01*
X336488095Y-49248571D01*
X336440476Y-49343809D01*
X336440476Y-49581904D01*
X336488095Y-49677142D01*
X336535714Y-49724761D01*
X336630952Y-49772380D01*
X336869047Y-49772380D01*
X336964285Y-49724761D01*
X337011904Y-49677142D01*
X335869047Y-49200952D02*
X335964285Y-49153333D01*
X336011904Y-49105714D01*
X336059523Y-49010476D01*
X336059523Y-48962857D01*
X336011904Y-48867619D01*
X335964285Y-48820000D01*
X335869047Y-48772380D01*
X335678571Y-48772380D01*
X335583333Y-48820000D01*
X335535714Y-48867619D01*
X335488095Y-48962857D01*
X335488095Y-49010476D01*
X335535714Y-49105714D01*
X335583333Y-49153333D01*
X335678571Y-49200952D01*
X335869047Y-49200952D01*
X335964285Y-49248571D01*
X336011904Y-49296190D01*
X336059523Y-49391428D01*
X336059523Y-49581904D01*
X336011904Y-49677142D01*
X335964285Y-49724761D01*
X335869047Y-49772380D01*
X335678571Y-49772380D01*
X335583333Y-49724761D01*
X335535714Y-49677142D01*
X335488095Y-49581904D01*
X335488095Y-49391428D01*
X335535714Y-49296190D01*
X335583333Y-49248571D01*
X335678571Y-49200952D01*
%TO.C,D59*%
X342814285Y-68822380D02*
X342814285Y-67822380D01*
X342576190Y-67822380D01*
X342433333Y-67870000D01*
X342338095Y-67965238D01*
X342290476Y-68060476D01*
X342242857Y-68250952D01*
X342242857Y-68393809D01*
X342290476Y-68584285D01*
X342338095Y-68679523D01*
X342433333Y-68774761D01*
X342576190Y-68822380D01*
X342814285Y-68822380D01*
X341338095Y-67822380D02*
X341814285Y-67822380D01*
X341861904Y-68298571D01*
X341814285Y-68250952D01*
X341719047Y-68203333D01*
X341480952Y-68203333D01*
X341385714Y-68250952D01*
X341338095Y-68298571D01*
X341290476Y-68393809D01*
X341290476Y-68631904D01*
X341338095Y-68727142D01*
X341385714Y-68774761D01*
X341480952Y-68822380D01*
X341719047Y-68822380D01*
X341814285Y-68774761D01*
X341861904Y-68727142D01*
X340814285Y-68822380D02*
X340623809Y-68822380D01*
X340528571Y-68774761D01*
X340480952Y-68727142D01*
X340385714Y-68584285D01*
X340338095Y-68393809D01*
X340338095Y-68012857D01*
X340385714Y-67917619D01*
X340433333Y-67870000D01*
X340528571Y-67822380D01*
X340719047Y-67822380D01*
X340814285Y-67870000D01*
X340861904Y-67917619D01*
X340909523Y-68012857D01*
X340909523Y-68250952D01*
X340861904Y-68346190D01*
X340814285Y-68393809D01*
X340719047Y-68441428D01*
X340528571Y-68441428D01*
X340433333Y-68393809D01*
X340385714Y-68346190D01*
X340338095Y-68250952D01*
%TO.C,D60*%
X335614285Y-87822380D02*
X335614285Y-86822380D01*
X335376190Y-86822380D01*
X335233333Y-86870000D01*
X335138095Y-86965238D01*
X335090476Y-87060476D01*
X335042857Y-87250952D01*
X335042857Y-87393809D01*
X335090476Y-87584285D01*
X335138095Y-87679523D01*
X335233333Y-87774761D01*
X335376190Y-87822380D01*
X335614285Y-87822380D01*
X334185714Y-86822380D02*
X334376190Y-86822380D01*
X334471428Y-86870000D01*
X334519047Y-86917619D01*
X334614285Y-87060476D01*
X334661904Y-87250952D01*
X334661904Y-87631904D01*
X334614285Y-87727142D01*
X334566666Y-87774761D01*
X334471428Y-87822380D01*
X334280952Y-87822380D01*
X334185714Y-87774761D01*
X334138095Y-87727142D01*
X334090476Y-87631904D01*
X334090476Y-87393809D01*
X334138095Y-87298571D01*
X334185714Y-87250952D01*
X334280952Y-87203333D01*
X334471428Y-87203333D01*
X334566666Y-87250952D01*
X334614285Y-87298571D01*
X334661904Y-87393809D01*
X333471428Y-86822380D02*
X333376190Y-86822380D01*
X333280952Y-86870000D01*
X333233333Y-86917619D01*
X333185714Y-87012857D01*
X333138095Y-87203333D01*
X333138095Y-87441428D01*
X333185714Y-87631904D01*
X333233333Y-87727142D01*
X333280952Y-87774761D01*
X333376190Y-87822380D01*
X333471428Y-87822380D01*
X333566666Y-87774761D01*
X333614285Y-87727142D01*
X333661904Y-87631904D01*
X333709523Y-87441428D01*
X333709523Y-87203333D01*
X333661904Y-87012857D01*
X333614285Y-86917619D01*
X333566666Y-86870000D01*
X333471428Y-86822380D01*
%TO.C,D61*%
X347289285Y-106972380D02*
X347289285Y-105972380D01*
X347051190Y-105972380D01*
X346908333Y-106020000D01*
X346813095Y-106115238D01*
X346765476Y-106210476D01*
X346717857Y-106400952D01*
X346717857Y-106543809D01*
X346765476Y-106734285D01*
X346813095Y-106829523D01*
X346908333Y-106924761D01*
X347051190Y-106972380D01*
X347289285Y-106972380D01*
X345860714Y-105972380D02*
X346051190Y-105972380D01*
X346146428Y-106020000D01*
X346194047Y-106067619D01*
X346289285Y-106210476D01*
X346336904Y-106400952D01*
X346336904Y-106781904D01*
X346289285Y-106877142D01*
X346241666Y-106924761D01*
X346146428Y-106972380D01*
X345955952Y-106972380D01*
X345860714Y-106924761D01*
X345813095Y-106877142D01*
X345765476Y-106781904D01*
X345765476Y-106543809D01*
X345813095Y-106448571D01*
X345860714Y-106400952D01*
X345955952Y-106353333D01*
X346146428Y-106353333D01*
X346241666Y-106400952D01*
X346289285Y-106448571D01*
X346336904Y-106543809D01*
X344813095Y-106972380D02*
X345384523Y-106972380D01*
X345098809Y-106972380D02*
X345098809Y-105972380D01*
X345194047Y-106115238D01*
X345289285Y-106210476D01*
X345384523Y-106258095D01*
%TO.C,D62*%
X347614285Y-126022380D02*
X347614285Y-125022380D01*
X347376190Y-125022380D01*
X347233333Y-125070000D01*
X347138095Y-125165238D01*
X347090476Y-125260476D01*
X347042857Y-125450952D01*
X347042857Y-125593809D01*
X347090476Y-125784285D01*
X347138095Y-125879523D01*
X347233333Y-125974761D01*
X347376190Y-126022380D01*
X347614285Y-126022380D01*
X346185714Y-125022380D02*
X346376190Y-125022380D01*
X346471428Y-125070000D01*
X346519047Y-125117619D01*
X346614285Y-125260476D01*
X346661904Y-125450952D01*
X346661904Y-125831904D01*
X346614285Y-125927142D01*
X346566666Y-125974761D01*
X346471428Y-126022380D01*
X346280952Y-126022380D01*
X346185714Y-125974761D01*
X346138095Y-125927142D01*
X346090476Y-125831904D01*
X346090476Y-125593809D01*
X346138095Y-125498571D01*
X346185714Y-125450952D01*
X346280952Y-125403333D01*
X346471428Y-125403333D01*
X346566666Y-125450952D01*
X346614285Y-125498571D01*
X346661904Y-125593809D01*
X345709523Y-125117619D02*
X345661904Y-125070000D01*
X345566666Y-125022380D01*
X345328571Y-125022380D01*
X345233333Y-125070000D01*
X345185714Y-125117619D01*
X345138095Y-125212857D01*
X345138095Y-125308095D01*
X345185714Y-125450952D01*
X345757142Y-126022380D01*
X345138095Y-126022380D01*
%TO.C,D64*%
X366720285Y-68872380D02*
X366720285Y-67872380D01*
X366482190Y-67872380D01*
X366339333Y-67920000D01*
X366244095Y-68015238D01*
X366196476Y-68110476D01*
X366148857Y-68300952D01*
X366148857Y-68443809D01*
X366196476Y-68634285D01*
X366244095Y-68729523D01*
X366339333Y-68824761D01*
X366482190Y-68872380D01*
X366720285Y-68872380D01*
X365291714Y-67872380D02*
X365482190Y-67872380D01*
X365577428Y-67920000D01*
X365625047Y-67967619D01*
X365720285Y-68110476D01*
X365767904Y-68300952D01*
X365767904Y-68681904D01*
X365720285Y-68777142D01*
X365672666Y-68824761D01*
X365577428Y-68872380D01*
X365386952Y-68872380D01*
X365291714Y-68824761D01*
X365244095Y-68777142D01*
X365196476Y-68681904D01*
X365196476Y-68443809D01*
X365244095Y-68348571D01*
X365291714Y-68300952D01*
X365386952Y-68253333D01*
X365577428Y-68253333D01*
X365672666Y-68300952D01*
X365720285Y-68348571D01*
X365767904Y-68443809D01*
X364339333Y-68205714D02*
X364339333Y-68872380D01*
X364577428Y-67824761D02*
X364815523Y-68539047D01*
X364196476Y-68539047D01*
%TO.C,D65*%
X366745785Y-87922380D02*
X366745785Y-86922380D01*
X366507690Y-86922380D01*
X366364833Y-86970000D01*
X366269595Y-87065238D01*
X366221976Y-87160476D01*
X366174357Y-87350952D01*
X366174357Y-87493809D01*
X366221976Y-87684285D01*
X366269595Y-87779523D01*
X366364833Y-87874761D01*
X366507690Y-87922380D01*
X366745785Y-87922380D01*
X365317214Y-86922380D02*
X365507690Y-86922380D01*
X365602928Y-86970000D01*
X365650547Y-87017619D01*
X365745785Y-87160476D01*
X365793404Y-87350952D01*
X365793404Y-87731904D01*
X365745785Y-87827142D01*
X365698166Y-87874761D01*
X365602928Y-87922380D01*
X365412452Y-87922380D01*
X365317214Y-87874761D01*
X365269595Y-87827142D01*
X365221976Y-87731904D01*
X365221976Y-87493809D01*
X365269595Y-87398571D01*
X365317214Y-87350952D01*
X365412452Y-87303333D01*
X365602928Y-87303333D01*
X365698166Y-87350952D01*
X365745785Y-87398571D01*
X365793404Y-87493809D01*
X364317214Y-86922380D02*
X364793404Y-86922380D01*
X364841023Y-87398571D01*
X364793404Y-87350952D01*
X364698166Y-87303333D01*
X364460071Y-87303333D01*
X364364833Y-87350952D01*
X364317214Y-87398571D01*
X364269595Y-87493809D01*
X364269595Y-87731904D01*
X364317214Y-87827142D01*
X364364833Y-87874761D01*
X364460071Y-87922380D01*
X364698166Y-87922380D01*
X364793404Y-87874761D01*
X364841023Y-87827142D01*
%TO.C,D66*%
X366720285Y-107022380D02*
X366720285Y-106022380D01*
X366482190Y-106022380D01*
X366339333Y-106070000D01*
X366244095Y-106165238D01*
X366196476Y-106260476D01*
X366148857Y-106450952D01*
X366148857Y-106593809D01*
X366196476Y-106784285D01*
X366244095Y-106879523D01*
X366339333Y-106974761D01*
X366482190Y-107022380D01*
X366720285Y-107022380D01*
X365291714Y-106022380D02*
X365482190Y-106022380D01*
X365577428Y-106070000D01*
X365625047Y-106117619D01*
X365720285Y-106260476D01*
X365767904Y-106450952D01*
X365767904Y-106831904D01*
X365720285Y-106927142D01*
X365672666Y-106974761D01*
X365577428Y-107022380D01*
X365386952Y-107022380D01*
X365291714Y-106974761D01*
X365244095Y-106927142D01*
X365196476Y-106831904D01*
X365196476Y-106593809D01*
X365244095Y-106498571D01*
X365291714Y-106450952D01*
X365386952Y-106403333D01*
X365577428Y-106403333D01*
X365672666Y-106450952D01*
X365720285Y-106498571D01*
X365767904Y-106593809D01*
X364339333Y-106022380D02*
X364529809Y-106022380D01*
X364625047Y-106070000D01*
X364672666Y-106117619D01*
X364767904Y-106260476D01*
X364815523Y-106450952D01*
X364815523Y-106831904D01*
X364767904Y-106927142D01*
X364720285Y-106974761D01*
X364625047Y-107022380D01*
X364434571Y-107022380D01*
X364339333Y-106974761D01*
X364291714Y-106927142D01*
X364244095Y-106831904D01*
X364244095Y-106593809D01*
X364291714Y-106498571D01*
X364339333Y-106450952D01*
X364434571Y-106403333D01*
X364625047Y-106403333D01*
X364720285Y-106450952D01*
X364767904Y-106498571D01*
X364815523Y-106593809D01*
%TO.C,D67*%
X366720285Y-126022380D02*
X366720285Y-125022380D01*
X366482190Y-125022380D01*
X366339333Y-125070000D01*
X366244095Y-125165238D01*
X366196476Y-125260476D01*
X366148857Y-125450952D01*
X366148857Y-125593809D01*
X366196476Y-125784285D01*
X366244095Y-125879523D01*
X366339333Y-125974761D01*
X366482190Y-126022380D01*
X366720285Y-126022380D01*
X365291714Y-125022380D02*
X365482190Y-125022380D01*
X365577428Y-125070000D01*
X365625047Y-125117619D01*
X365720285Y-125260476D01*
X365767904Y-125450952D01*
X365767904Y-125831904D01*
X365720285Y-125927142D01*
X365672666Y-125974761D01*
X365577428Y-126022380D01*
X365386952Y-126022380D01*
X365291714Y-125974761D01*
X365244095Y-125927142D01*
X365196476Y-125831904D01*
X365196476Y-125593809D01*
X365244095Y-125498571D01*
X365291714Y-125450952D01*
X365386952Y-125403333D01*
X365577428Y-125403333D01*
X365672666Y-125450952D01*
X365720285Y-125498571D01*
X365767904Y-125593809D01*
X364863142Y-125022380D02*
X364196476Y-125022380D01*
X364625047Y-126022380D01*
%TO.C,SW1*%
X137981333Y-33696761D02*
X137838476Y-33744380D01*
X137600380Y-33744380D01*
X137505142Y-33696761D01*
X137457523Y-33649142D01*
X137409904Y-33553904D01*
X137409904Y-33458666D01*
X137457523Y-33363428D01*
X137505142Y-33315809D01*
X137600380Y-33268190D01*
X137790857Y-33220571D01*
X137886095Y-33172952D01*
X137933714Y-33125333D01*
X137981333Y-33030095D01*
X137981333Y-32934857D01*
X137933714Y-32839619D01*
X137886095Y-32792000D01*
X137790857Y-32744380D01*
X137552761Y-32744380D01*
X137409904Y-32792000D01*
X137076571Y-32744380D02*
X136838476Y-33744380D01*
X136648000Y-33030095D01*
X136457523Y-33744380D01*
X136219428Y-32744380D01*
X135314666Y-33744380D02*
X135886095Y-33744380D01*
X135600380Y-33744380D02*
X135600380Y-32744380D01*
X135695619Y-32887238D01*
X135790857Y-32982476D01*
X135886095Y-33030095D01*
%TO.C,R1*%
X132438380Y-35139333D02*
X131962190Y-34806000D01*
X132438380Y-34567904D02*
X131438380Y-34567904D01*
X131438380Y-34948857D01*
X131486000Y-35044095D01*
X131533619Y-35091714D01*
X131628857Y-35139333D01*
X131771714Y-35139333D01*
X131866952Y-35091714D01*
X131914571Y-35044095D01*
X131962190Y-34948857D01*
X131962190Y-34567904D01*
X132438380Y-36091714D02*
X132438380Y-35520285D01*
X132438380Y-35806000D02*
X131438380Y-35806000D01*
X131581238Y-35710761D01*
X131676476Y-35615523D01*
X131724095Y-35520285D01*
%TO.C,R2*%
X110430606Y-41031440D02*
X110763940Y-40555250D01*
X111002035Y-41031440D02*
X111002035Y-40031440D01*
X110621082Y-40031440D01*
X110525844Y-40079060D01*
X110478225Y-40126679D01*
X110430606Y-40221917D01*
X110430606Y-40364774D01*
X110478225Y-40460012D01*
X110525844Y-40507631D01*
X110621082Y-40555250D01*
X111002035Y-40555250D01*
X110049654Y-40126679D02*
X110002035Y-40079060D01*
X109906797Y-40031440D01*
X109668701Y-40031440D01*
X109573463Y-40079060D01*
X109525844Y-40126679D01*
X109478225Y-40221917D01*
X109478225Y-40317155D01*
X109525844Y-40460012D01*
X110097273Y-41031440D01*
X109478225Y-41031440D01*
%TO.C,R3*%
X75966600Y-40447933D02*
X75490410Y-40114600D01*
X75966600Y-39876504D02*
X74966600Y-39876504D01*
X74966600Y-40257457D01*
X75014220Y-40352695D01*
X75061839Y-40400314D01*
X75157077Y-40447933D01*
X75299934Y-40447933D01*
X75395172Y-40400314D01*
X75442791Y-40352695D01*
X75490410Y-40257457D01*
X75490410Y-39876504D01*
X74966600Y-40781266D02*
X74966600Y-41400314D01*
X75347553Y-41066980D01*
X75347553Y-41209838D01*
X75395172Y-41305076D01*
X75442791Y-41352695D01*
X75538029Y-41400314D01*
X75776124Y-41400314D01*
X75871362Y-41352695D01*
X75918981Y-41305076D01*
X75966600Y-41209838D01*
X75966600Y-40924123D01*
X75918981Y-40828885D01*
X75871362Y-40781266D01*
%TO.C,R4*%
X88453240Y-40453013D02*
X87977050Y-40119680D01*
X88453240Y-39881584D02*
X87453240Y-39881584D01*
X87453240Y-40262537D01*
X87500860Y-40357775D01*
X87548479Y-40405394D01*
X87643717Y-40453013D01*
X87786574Y-40453013D01*
X87881812Y-40405394D01*
X87929431Y-40357775D01*
X87977050Y-40262537D01*
X87977050Y-39881584D01*
X87786574Y-41310156D02*
X88453240Y-41310156D01*
X87405621Y-41072060D02*
X88119907Y-40833965D01*
X88119907Y-41453013D01*
%TO.C,R5*%
X84918846Y-42545280D02*
X85252180Y-42069090D01*
X85490275Y-42545280D02*
X85490275Y-41545280D01*
X85109322Y-41545280D01*
X85014084Y-41592900D01*
X84966465Y-41640519D01*
X84918846Y-41735757D01*
X84918846Y-41878614D01*
X84966465Y-41973852D01*
X85014084Y-42021471D01*
X85109322Y-42069090D01*
X85490275Y-42069090D01*
X84014084Y-41545280D02*
X84490275Y-41545280D01*
X84537894Y-42021471D01*
X84490275Y-41973852D01*
X84395037Y-41926233D01*
X84156941Y-41926233D01*
X84061703Y-41973852D01*
X84014084Y-42021471D01*
X83966465Y-42116709D01*
X83966465Y-42354804D01*
X84014084Y-42450042D01*
X84061703Y-42497661D01*
X84156941Y-42545280D01*
X84395037Y-42545280D01*
X84490275Y-42497661D01*
X84537894Y-42450042D01*
%TO.C,R6*%
X81776866Y-45402740D02*
X82110200Y-44926550D01*
X82348295Y-45402740D02*
X82348295Y-44402740D01*
X81967342Y-44402740D01*
X81872104Y-44450360D01*
X81824485Y-44497979D01*
X81776866Y-44593217D01*
X81776866Y-44736074D01*
X81824485Y-44831312D01*
X81872104Y-44878931D01*
X81967342Y-44926550D01*
X82348295Y-44926550D01*
X80919723Y-44402740D02*
X81110200Y-44402740D01*
X81205438Y-44450360D01*
X81253057Y-44497979D01*
X81348295Y-44640836D01*
X81395914Y-44831312D01*
X81395914Y-45212264D01*
X81348295Y-45307502D01*
X81300676Y-45355121D01*
X81205438Y-45402740D01*
X81014961Y-45402740D01*
X80919723Y-45355121D01*
X80872104Y-45307502D01*
X80824485Y-45212264D01*
X80824485Y-44974169D01*
X80872104Y-44878931D01*
X80919723Y-44831312D01*
X81014961Y-44783693D01*
X81205438Y-44783693D01*
X81300676Y-44831312D01*
X81348295Y-44878931D01*
X81395914Y-44974169D01*
%TO.C,U1*%
D14*
X106793230Y-45263734D02*
X107365650Y-45836154D01*
X107399322Y-45937169D01*
X107399322Y-46004513D01*
X107365650Y-46105528D01*
X107230963Y-46240215D01*
X107129948Y-46273887D01*
X107062604Y-46273887D01*
X106961589Y-46240215D01*
X106389169Y-45667795D01*
X106389169Y-47082009D02*
X106793230Y-46677948D01*
X106591200Y-46879978D02*
X105884093Y-46172872D01*
X106052452Y-46206543D01*
X106187139Y-46206543D01*
X106288154Y-46172872D01*
%TO.C,D63*%
D13*
X366720285Y-49822380D02*
X366720285Y-48822380D01*
X366482190Y-48822380D01*
X366339333Y-48870000D01*
X366244095Y-48965238D01*
X366196476Y-49060476D01*
X366148857Y-49250952D01*
X366148857Y-49393809D01*
X366196476Y-49584285D01*
X366244095Y-49679523D01*
X366339333Y-49774761D01*
X366482190Y-49822380D01*
X366720285Y-49822380D01*
X365291714Y-48822380D02*
X365482190Y-48822380D01*
X365577428Y-48870000D01*
X365625047Y-48917619D01*
X365720285Y-49060476D01*
X365767904Y-49250952D01*
X365767904Y-49631904D01*
X365720285Y-49727142D01*
X365672666Y-49774761D01*
X365577428Y-49822380D01*
X365386952Y-49822380D01*
X365291714Y-49774761D01*
X365244095Y-49727142D01*
X365196476Y-49631904D01*
X365196476Y-49393809D01*
X365244095Y-49298571D01*
X365291714Y-49250952D01*
X365386952Y-49203333D01*
X365577428Y-49203333D01*
X365672666Y-49250952D01*
X365720285Y-49298571D01*
X365767904Y-49393809D01*
X364863142Y-48822380D02*
X364244095Y-48822380D01*
X364577428Y-49203333D01*
X364434571Y-49203333D01*
X364339333Y-49250952D01*
X364291714Y-49298571D01*
X364244095Y-49393809D01*
X364244095Y-49631904D01*
X364291714Y-49727142D01*
X364339333Y-49774761D01*
X364434571Y-49822380D01*
X364720285Y-49822380D01*
X364815523Y-49774761D01*
X364863142Y-49727142D01*
%TD*%
M02*
